<?xml version="1.0" encoding="UTF-8"?>
<svg version="1.1" xmlns="http://www.w3.org/2000/svg" width="492" height="259">
<path d="M0 0 C162.36 0 324.72 0 492 0 C492 85.47 492 170.94 492 259 C329.64 259 167.28 259 0 259 C0 173.53 0 88.06 0 0 Z " fill="#FDFDFD" transform="translate(0,0)"/>
<path d="M0 0 C12.05357143 -0.66964286 12.05357143 -0.66964286 15.6875 2.375 C18.35894749 5.4074539 18.91417781 6.25620767 19.375 10.25 C18.88072704 15.19272958 17.46171699 16.53828301 14 20 C11.23547967 21.38226016 8.9538637 21.09525387 5.875 21.0625 C2.966875 21.0315625 2.966875 21.0315625 0 21 C0 14.07 0 7.14 0 0 Z " fill="#353A3E" transform="translate(262,206)"/>
<path d="M0 0 C12.05357143 -0.66964286 12.05357143 -0.66964286 15.6875 2.375 C18.35894749 5.4074539 18.91417781 6.25620767 19.375 10.25 C18.88072704 15.19272958 17.46171699 16.53828301 14 20 C11.23547967 21.38226016 8.9538637 21.09525387 5.875 21.0625 C2.966875 21.0315625 2.966875 21.0315625 0 21 C0 14.07 0 7.14 0 0 Z " fill="#2F639B" transform="translate(145,58)"/>
<path d="M0 0 C10.07203115 -0.60674886 10.07203115 -0.60674886 14.25 2.125 C16 5 16 5 16.0625 8.125 C14.840192 11.43242165 14.15610481 12.46459766 11 14 C7.75 14.1875 7.75 14.1875 5 14 C5 16.31 5 18.62 5 21 C3.35 21 1.7 21 0 21 C0 14.07 0 7.14 0 0 Z " fill="#2F639B" transform="translate(293,58)"/>
<path d="M0 0 C1.50433594 0.01353516 1.50433594 0.01353516 3.0390625 0.02734375 C3.80992187 0.03894531 4.58078125 0.05054688 5.375 0.0625 C4.61822657 3.20344457 3.72800853 6.11771673 2.375 9.0625 C1.385 9.5575 1.385 9.5575 0.375 10.0625 C1.014375 10.330625 1.65375 10.59875 2.3125 10.875 C4.375 12.0625 4.375 12.0625 5.375 15.0625 C4.375 18.0625 4.375 18.0625 2.75 19.25 C-1.16270989 20.58855865 -4.906449 20.89573685 -8.6875 19.0625 C-10.08977697 16.0709758 -9.04486512 13.86276642 -8.0703125 10.8046875 C-7.84988281 9.94230469 -7.84988281 9.94230469 -7.625 9.0625 C-7.955 8.7325 -8.285 8.4025 -8.625 8.0625 C-8.3125 4.5625 -8.3125 4.5625 -7.625 1.0625 C-4.98041621 -0.25979189 -2.94738699 -0.03427194 0 0 Z " fill="#4E5356" transform="translate(446.625,211.9375)"/>
<path d="M0 0 C1.60875 -0.020625 3.2175 -0.04125 4.875 -0.0625 C5.77992187 -0.07410156 6.68484375 -0.08570313 7.6171875 -0.09765625 C10 0 10 0 12 1 C14.3400417 0.71758117 16.67504723 0.38749213 19 0 C22.77755334 4.72194167 22.30096975 9.25928072 22 15 C20.35 15 18.7 15 17 15 C16.67 11.37 16.34 7.74 16 4 C15.34 4 14.68 4 14 4 C13.67 7.63 13.34 11.26 13 15 C11.35 15 9.7 15 8 15 C7.67 11.37 7.34 7.74 7 4 C6.34 4 5.68 4 5 4 C4.67 7.63 4.34 11.26 4 15 C2.68 15 1.36 15 0 15 C0 10.05 0 5.1 0 0 Z " fill="#353A3E" transform="translate(118,212)"/>
<path d="M0 0 C1.32 0 2.64 0 4 0 C4 6.93 4 13.86 4 21 C2.35 20.67 0.7 20.34 -1 20 C-1.33 20.33 -1.66 20.66 -2 21 C-4.69969684 21.28417861 -6.41135091 21.32477191 -8.8125 20 C-10.71286987 16.79937707 -10.63669063 13.56260601 -10 10 C-8.375 7.4375 -8.375 7.4375 -6 6 C-2.75 6.25 -2.75 6.25 0 7 C0 4.69 0 2.38 0 0 Z " fill="#353A3E" transform="translate(95,206)"/>
<path d="M0 0 C1.32 0 2.64 0 4 0 C4.33 2.31 4.66 4.62 5 7 C5.33 6.67 5.66 6.34 6 6 C8.375 5.6875 8.375 5.6875 11 6 C13.73482251 8.35760561 13.98758539 9.90068314 14.4375 13.5 C14 17 14 17 12.625 19.4375 C10 21 10 21 0 21 C0 14.07 0 7.14 0 0 Z " fill="#2F639B" transform="translate(215,58)"/>
<path d="M0 0 C1.32 0 2.64 0 4 0 C4.33 2.31 4.66 4.62 5 7 C5.33 6.67 5.66 6.34 6 6 C8.375 5.6875 8.375 5.6875 11 6 C13.73482251 8.35760561 13.98758539 9.90068314 14.4375 13.5 C14 17 14 17 12.625 19.4375 C10 21 10 21 0 21 C0 14.07 0 7.14 0 0 Z " fill="#2F639B" transform="translate(182,58)"/>
<path d="M0 0 C8.30078125 -0.390625 8.30078125 -0.390625 11 0 C13.6147792 2.57008212 13.97422577 3.79380618 14.4375 7.5 C14 11 14 11 12.3125 13.4375 C9.61589191 15.25953249 8.18873549 15.35430394 5 15 C4.67 16.65 4.34 18.3 4 20 C2.68 20 1.36 20 0 20 C0 13.4 0 6.8 0 0 Z " fill="#353A3E" transform="translate(316,212)"/>
<path d="M0 0 C2.4375 1.5625 2.4375 1.5625 4 4 C4.5625 7.5 4.5625 7.5 4 11 C1.41830549 13.96135546 -0.18881135 14.86756104 -4.0625 15.5 C-7 15 -7 15 -9.375 13.4375 C-11.62340519 10.06489221 -11.56783945 7.97487617 -11 4 C-8.11188513 -0.5054592 -5.11821063 -0.73117295 0 0 Z " fill="#353A3E" transform="translate(240,212)"/>
<path d="M0 0 C4.29 0 8.58 0 13 0 C13 0.99 13 1.98 13 3 C10.36 3 7.72 3 5 3 C5 5.31 5 7.62 5 10 C7.31 10 9.62 10 12 10 C12 10.99 12 11.98 12 13 C9.69 13 7.38 13 5 13 C5 15.64 5 18.28 5 21 C3.35 21 1.7 21 0 21 C0 14.07 0 7.14 0 0 Z " fill="#353A3E" transform="translate(36,206)"/>
<path d="M0 0 C2.375 1.75 2.375 1.75 4 4 C4 5.32 4 6.64 4 8 C-0.455 8.495 -0.455 8.495 -5 9 C-4.67 9.66 -4.34 10.32 -4 11 C-2.02 10.67 -0.04 10.34 2 10 C2.99 11.485 2.99 11.485 4 13 C0.2794164 15.48038907 -1.59796571 15.46337203 -6 15 C-8.4375 13.4375 -8.4375 13.4375 -10 11 C-10.56783945 7.02512383 -10.62340519 4.93510779 -8.375 1.5625 C-5.28314769 -0.47161336 -3.63632575 -0.60605429 0 0 Z " fill="#3F4448" transform="translate(362,212)"/>
<path d="M0 0 C2.375 1.75 2.375 1.75 4 4 C4 5.32 4 6.64 4 8 C-0.455 8.495 -0.455 8.495 -5 9 C-4.67 9.66 -4.34 10.32 -4 11 C-2.02 10.67 -0.04 10.34 2 10 C2.99 11.485 2.99 11.485 4 13 C0.2794164 15.48038907 -1.59796571 15.46337203 -6 15 C-8.4375 13.4375 -8.4375 13.4375 -10 11 C-10.56783945 7.02512383 -10.62340519 4.93510779 -8.375 1.5625 C-5.28314769 -0.47161336 -3.63632575 -0.60605429 0 0 Z " fill="#3F4448" transform="translate(309,212)"/>
<path d="M0 0 C2.375 1.75 2.375 1.75 4 4 C4 5.32 4 6.64 4 8 C-0.455 8.495 -0.455 8.495 -5 9 C-4.67 9.66 -4.34 10.32 -4 11 C-2.02 10.67 -0.04 10.34 2 10 C2.99 11.485 2.99 11.485 4 13 C0.2794164 15.48038907 -1.59796571 15.46337203 -6 15 C-8.4375 13.4375 -8.4375 13.4375 -10 11 C-10.56783945 7.02512383 -10.62340519 4.93510779 -8.375 1.5625 C-5.28314769 -0.47161336 -3.63632575 -0.60605429 0 0 Z " fill="#3F4448" transform="translate(293,212)"/>
<path d="M0 0 C2.375 1.75 2.375 1.75 4 4 C4 5.32 4 6.64 4 8 C-0.455 8.495 -0.455 8.495 -5 9 C-4.67 9.66 -4.34 10.32 -4 11 C-2.02 10.67 -0.04 10.34 2 10 C2.99 11.485 2.99 11.485 4 13 C0.2794164 15.48038907 -1.59796571 15.46337203 -6 15 C-8.4375 13.4375 -8.4375 13.4375 -10 11 C-10.56783945 7.02512383 -10.62340519 4.93510779 -8.375 1.5625 C-5.28314769 -0.47161336 -3.63632575 -0.60605429 0 0 Z " fill="#3F4448" transform="translate(153,212)"/>
<path d="M0 0 C2.375 1.75 2.375 1.75 4 4 C4 5.32 4 6.64 4 8 C-0.455 8.495 -0.455 8.495 -5 9 C-4.67 9.66 -4.34 10.32 -4 11 C-2.02 10.67 -0.04 10.34 2 10 C2.99 11.485 2.99 11.485 4 13 C0.2794164 15.48038907 -1.59796571 15.46337203 -6 15 C-8.4375 13.4375 -8.4375 13.4375 -10 11 C-10.56783945 7.02512383 -10.62340519 4.93510779 -8.375 1.5625 C-5.28314769 -0.47161336 -3.63632575 -0.60605429 0 0 Z " fill="#3A6BA0" transform="translate(176,64)"/>
<path d="M0 0 C1.6796875 1.12890625 1.6796875 1.12890625 3 3 C3.29296875 5.91796875 3.29296875 5.91796875 3.1875 9.1875 C3.16042969 10.27417969 3.13335937 11.36085937 3.10546875 12.48046875 C3.07066406 13.31191406 3.03585937 14.14335937 3 15 C1.20866022 15.05391993 -0.58313899 15.09275571 -2.375 15.125 C-3.37273437 15.14820313 -4.37046875 15.17140625 -5.3984375 15.1953125 C-8 15 -8 15 -10 13 C-9.875 10.5 -9.875 10.5 -9 8 C-6.10189884 5.90137502 -4.71621139 6 -1 6 C-1.33 5.34 -1.66 4.68 -2 4 C-4.31 4 -6.62 4 -9 4 C-8.67 3.01 -8.34 2.02 -8 1 C-5.20129973 -0.39935013 -3.09501208 -0.25265405 0 0 Z " fill="#44484C" transform="translate(377,212)"/>
<path d="M0 0 C1.6796875 1.12890625 1.6796875 1.12890625 3 3 C3.29296875 5.91796875 3.29296875 5.91796875 3.1875 9.1875 C3.16042969 10.27417969 3.13335937 11.36085937 3.10546875 12.48046875 C3.07066406 13.31191406 3.03585938 14.14335937 3 15 C1.20866022 15.05391993 -0.58313899 15.09275571 -2.375 15.125 C-3.37273437 15.14820313 -4.37046875 15.17140625 -5.3984375 15.1953125 C-8 15 -8 15 -10 13 C-9.875 10.5 -9.875 10.5 -9 8 C-6.10189884 5.90137502 -4.71621139 6 -1 6 C-1.33 5.34 -1.66 4.68 -2 4 C-4.31 4 -6.62 4 -9 4 C-8.67 3.01 -8.34 2.02 -8 1 C-5.20129973 -0.39935013 -3.09501208 -0.25265405 0 0 Z " fill="#44484C" transform="translate(197,212)"/>
<path d="M0 0 C1.6796875 1.12890625 1.6796875 1.12890625 3 3 C3.29296875 5.91796875 3.29296875 5.91796875 3.1875 9.1875 C3.16042969 10.27417969 3.13335937 11.36085937 3.10546875 12.48046875 C3.07066406 13.31191406 3.03585938 14.14335937 3 15 C1.20866022 15.05391993 -0.58313899 15.09275571 -2.375 15.125 C-3.37273437 15.14820313 -4.37046875 15.17140625 -5.3984375 15.1953125 C-8 15 -8 15 -10 13 C-9.875 10.5 -9.875 10.5 -9 8 C-6.10189884 5.90137502 -4.71621139 6 -1 6 C-1.33 5.34 -1.66 4.68 -2 4 C-4.31 4 -6.62 4 -9 4 C-8.67 3.01 -8.34 2.02 -8 1 C-5.20129973 -0.39935013 -3.09501208 -0.25265405 0 0 Z " fill="#44484C" transform="translate(112,212)"/>
<path d="M0 0 C1.6796875 1.12890625 1.6796875 1.12890625 3 3 C3.29296875 5.91796875 3.29296875 5.91796875 3.1875 9.1875 C3.16042969 10.27417969 3.13335937 11.36085938 3.10546875 12.48046875 C3.07066406 13.31191406 3.03585937 14.14335938 3 15 C1.20866022 15.05391993 -0.58313899 15.09275571 -2.375 15.125 C-3.37273437 15.14820312 -4.37046875 15.17140625 -5.3984375 15.1953125 C-8 15 -8 15 -10 13 C-9.875 10.5 -9.875 10.5 -9 8 C-6.10189884 5.90137502 -4.71621139 6 -1 6 C-1.33 5.34 -1.66 4.68 -2 4 C-4.31 4 -6.62 4 -9 4 C-8.67 3.01 -8.34 2.02 -8 1 C-5.20129973 -0.39935013 -3.09501208 -0.25265405 0 0 Z " fill="#3E6EA2" transform="translate(320,64)"/>
<path d="M0 0 C1.6796875 1.12890625 1.6796875 1.12890625 3 3 C3.29296875 5.91796875 3.29296875 5.91796875 3.1875 9.1875 C3.16042969 10.27417969 3.13335937 11.36085938 3.10546875 12.48046875 C3.07066406 13.31191406 3.03585937 14.14335938 3 15 C1.20866022 15.05391993 -0.58313899 15.09275571 -2.375 15.125 C-3.37273437 15.14820312 -4.37046875 15.17140625 -5.3984375 15.1953125 C-8 15 -8 15 -10 13 C-9.875 10.5 -9.875 10.5 -9 8 C-6.10189884 5.90137502 -4.71621139 6 -1 6 C-1.33 5.34 -1.66 4.68 -2 4 C-4.31 4 -6.62 4 -9 4 C-8.67 3.01 -8.34 2.02 -8 1 C-5.20129973 -0.39935013 -3.09501208 -0.25265405 0 0 Z " fill="#3E6EA2" transform="translate(281,64)"/>
<path d="M0 0 C1.6796875 1.12890625 1.6796875 1.12890625 3 3 C3.29296875 5.91796875 3.29296875 5.91796875 3.1875 9.1875 C3.16042969 10.27417969 3.13335937 11.36085938 3.10546875 12.48046875 C3.07066406 13.31191406 3.03585937 14.14335938 3 15 C1.20866022 15.05391993 -0.58313899 15.09275571 -2.375 15.125 C-3.37273437 15.14820312 -4.37046875 15.17140625 -5.3984375 15.1953125 C-8 15 -8 15 -10 13 C-9.875 10.5 -9.875 10.5 -9 8 C-6.10189884 5.90137502 -4.71621139 6 -1 6 C-1.33 5.34 -1.66 4.68 -2 4 C-4.31 4 -6.62 4 -9 4 C-8.67 3.01 -8.34 2.02 -8 1 C-5.20129973 -0.39935013 -3.09501208 -0.25265405 0 0 Z " fill="#3E6EA2" transform="translate(253,64)"/>
<path d="M0 0 C1.6796875 1.12890625 1.6796875 1.12890625 3 3 C3.29296875 5.91796875 3.29296875 5.91796875 3.1875 9.1875 C3.16042969 10.27417969 3.13335937 11.36085938 3.10546875 12.48046875 C3.07066406 13.31191406 3.03585938 14.14335938 3 15 C1.20866022 15.05391993 -0.58313899 15.09275571 -2.375 15.125 C-3.37273437 15.14820312 -4.37046875 15.17140625 -5.3984375 15.1953125 C-8 15 -8 15 -10 13 C-9.875 10.5 -9.875 10.5 -9 8 C-6.10189884 5.90137502 -4.71621139 6 -1 6 C-1.33 5.34 -1.66 4.68 -2 4 C-4.31 4 -6.62 4 -9 4 C-8.67 3.01 -8.34 2.02 -8 1 C-5.20129973 -0.39935013 -3.09501208 -0.25265405 0 0 Z " fill="#3E6EA2" transform="translate(208,64)"/>
<path d="M0 0 C1.65 0 3.3 0 5 0 C5.33 3.63 5.66 7.26 6 11 C7.32 11 8.64 11 10 11 C10 7.37 10 3.74 10 0 C11.32 0 12.64 0 14 0 C14 4.95 14 9.9 14 15 C3.70642202 15.60550459 3.70642202 15.60550459 0.8125 13.125 C-0.33304173 8.71907028 -0.23720212 4.52441078 0 0 Z " fill="#353A3E" transform="translate(51,212)"/>
<path d="M0 0 C8.3984375 -0.1953125 8.3984375 -0.1953125 11 0 C13 2 13 2 13.1953125 5.0390625 C13.17210937 6.22242188 13.14890625 7.40578125 13.125 8.625 C13.10695313 9.81351563 13.08890625 11.00203125 13.0703125 12.2265625 C13.04710937 13.14179688 13.02390625 14.05703125 13 15 C11.68 15 10.36 15 9 15 C8.67 11.37 8.34 7.74 8 4 C6.68 4 5.36 4 4 4 C4 7.63 4 11.26 4 15 C2.68 15 1.36 15 0 15 C0 10.05 0 5.1 0 0 Z " fill="#353A3E" transform="translate(422,212)"/>
<path d="M0 0 C8.3984375 -0.1953125 8.3984375 -0.1953125 11 0 C13 2 13 2 13.1953125 5.0390625 C13.17210937 6.22242188 13.14890625 7.40578125 13.125 8.625 C13.10695313 9.81351563 13.08890625 11.00203125 13.0703125 12.2265625 C13.04710937 13.14179688 13.02390625 14.05703125 13 15 C11.68 15 10.36 15 9 15 C8.67 11.37 8.34 7.74 8 4 C6.68 4 5.36 4 4 4 C4 7.63 4 11.26 4 15 C2.68 15 1.36 15 0 15 C0 10.05 0 5.1 0 0 Z " fill="#353A3E" transform="translate(397,212)"/>
<path d="M0 0 C8.3984375 -0.1953125 8.3984375 -0.1953125 11 0 C13 2 13 2 13.1953125 5.0390625 C13.17210937 6.22242188 13.14890625 7.40578125 13.125 8.625 C13.10695312 9.81351563 13.08890625 11.00203125 13.0703125 12.2265625 C13.04710937 13.14179688 13.02390625 14.05703125 13 15 C11.68 15 10.36 15 9 15 C8.67 11.37 8.34 7.74 8 4 C6.68 4 5.36 4 4 4 C4 7.63 4 11.26 4 15 C2.68 15 1.36 15 0 15 C0 10.05 0 5.1 0 0 Z " fill="#353A3E" transform="translate(159,212)"/>
<path d="M0 0 C8.3984375 -0.1953125 8.3984375 -0.1953125 11 0 C13 2 13 2 13.1953125 5.0390625 C13.17210938 6.22242188 13.14890625 7.40578125 13.125 8.625 C13.10695313 9.81351563 13.08890625 11.00203125 13.0703125 12.2265625 C13.04710938 13.14179688 13.02390625 14.05703125 13 15 C11.68 15 10.36 15 9 15 C8.67 11.37 8.34 7.74 8 4 C6.68 4 5.36 4 4 4 C4 7.63 4 11.26 4 15 C2.68 15 1.36 15 0 15 C0 10.05 0 5.1 0 0 Z " fill="#353A3E" transform="translate(69,212)"/>
<path d="M0 0 C1.65 0 3.3 0 5 0 C5 5.94 5 11.88 5 18 C7.31 18 9.62 18 12 18 C12 18.99 12 19.98 12 21 C8.04 21 4.08 21 0 21 C0 14.07 0 7.14 0 0 Z " fill="#353A3E" transform="translate(338,206)"/>
<path d="M0 0 C0 3 0 3 -1.5 4.6875 C-1.995 5.120625 -2.49 5.55375 -3 6 C-2.01 6 -1.02 6 0 6 C0 6.99 0 7.98 0 9 C-0.99 9 -1.98 9 -3 9 C-3 12.96 -3 16.92 -3 21 C-4.65 21 -6.3 21 -8 21 C-8 17.04 -8 13.08 -8 9 C-8.66 9 -9.32 9 -10 9 C-10 8.01 -10 7.02 -10 6 C-9.34 6 -8.68 6 -8 6 C-7.71125 5.195625 -7.4225 4.39125 -7.125 3.5625 C-5.3773462 -0.41826699 -4.39661496 0 0 0 Z " fill="#353A3E" transform="translate(255,206)"/>
<path d="M0 0 C7 1 7 1 8.5 2.5625 C9.27554612 6.34328732 8.79554604 9.20585733 8 13 C5 15 5 15 0 15 C0 10.05 0 5.1 0 0 Z " fill="#FFFFFF" transform="translate(267,209)"/>
<path d="M0 0 C7 1 7 1 8.5 2.5625 C9.27554612 6.34328732 8.79554604 9.20585733 8 13 C5 15 5 15 0 15 C0 10.05 0 5.1 0 0 Z " fill="#FFFFFF" transform="translate(150,61)"/>
<path d="M0 0 C0.66 0.99 1.32 1.98 2 3 C1.38125 3.144375 0.7625 3.28875 0.125 3.4375 C-2.03258322 3.93152225 -2.03258322 3.93152225 -4 5 C-2.02 5.99 -0.04 6.98 2 8 C1.625 10.9375 1.625 10.9375 1 14 C-1.52053595 15.26026798 -2.8542098 14.91874445 -5.625 14.5625 C-6.44226563 14.46066406 -7.25953125 14.35882813 -8.1015625 14.25390625 C-8.72804687 14.17011719 -9.35453125 14.08632812 -10 14 C-9.67 13.01 -9.34 12.02 -9 11 C-7.02 11 -5.04 11 -3 11 C-3.99 10.34 -4.98 9.68 -6 9 C-6.99 8.34 -7.98 7.68 -9 7 C-9.375 4.5 -9.375 4.5 -9 2 C-5.54970958 -0.30019361 -4.05445642 -0.43132515 0 0 Z " fill="#353A3E" transform="translate(220,212)"/>
<path d="M0 0 C0.66 0 1.32 0 2 0 C2 1.65 2 3.3 2 5 C3.32 5 4.64 5 6 5 C6 5.99 6 6.98 6 8 C4.68 8 3.36 8 2 8 C2 10.97 2 13.94 2 17 C2.99 16.67 3.98 16.34 5 16 C5.33 16.99 5.66 17.98 6 19 C5.67 19.33 5.34 19.66 5 20 C2.66055264 19.71269945 0.3260857 19.38063221 -2 19 C-2 15.37 -2 11.74 -2 8 C-2.99 7.67 -3.98 7.34 -5 7 C-5 6.34 -5 5.68 -5 5 C-4.01 5 -3.02 5 -2 5 C-1.7834375 4.0409375 -1.7834375 4.0409375 -1.5625 3.0625 C-1 1 -1 1 0 0 Z " fill="#353A3E" transform="translate(179,207)"/>
<path d="M0 0 C0.66 0 1.32 0 2 0 C2 1.65 2 3.3 2 5 C3.32 5 4.64 5 6 5 C6 5.99 6 6.98 6 8 C4.68 8 3.36 8 2 8 C2 10.97 2 13.94 2 17 C2.99 16.67 3.98 16.34 5 16 C5.33 16.99 5.66 17.98 6 19 C5.67 19.33 5.34 19.66 5 20 C2.66055264 19.71269945 0.3260857 19.38063221 -2 19 C-2 15.37 -2 11.74 -2 8 C-2.99 7.67 -3.98 7.34 -5 7 C-5 6.34 -5 5.68 -5 5 C-4.01 5 -3.02 5 -2 5 C-1.7834375 4.0409375 -1.7834375 4.0409375 -1.5625 3.0625 C-1 1 -1 1 0 0 Z " fill="#2F639B" transform="translate(329,59)"/>
<path d="M0 0 C0.66 0 1.32 0 2 0 C2 1.65 2 3.3 2 5 C3.32 5 4.64 5 6 5 C6 5.99 6 6.98 6 8 C4.68 8 3.36 8 2 8 C2 10.97 2 13.94 2 17 C2.99 16.67 3.98 16.34 5 16 C5.33 16.99 5.66 17.98 6 19 C5.67 19.33 5.34 19.66 5 20 C2.66055264 19.71269945 0.3260857 19.38063221 -2 19 C-2 15.37 -2 11.74 -2 8 C-2.99 7.67 -3.98 7.34 -5 7 C-5 6.34 -5 5.68 -5 5 C-4.01 5 -3.02 5 -2 5 C-1.7834375 4.0409375 -1.7834375 4.0409375 -1.5625 3.0625 C-1 1 -1 1 0 0 Z " fill="#2F639B" transform="translate(263,59)"/>
<path d="M0 0 C3.375 -0.125 3.375 -0.125 7 0 C7.66 0.66 8.32 1.32 9 2 C8.625 5.625 8.625 5.625 8 9 C6.35 9.33 4.7 9.66 3 10 C2.67 10.99 2.34 11.98 2 13 C1.34 13 0.68 13 0 13 C0 8.71 0 4.42 0 0 Z " fill="#0F0E0E" transform="translate(258,171)"/>
<path d="M0 0 C1.32 0 2.64 0 4 0 C4 6.93 4 13.86 4 21 C2.68 21 1.36 21 0 21 C0 14.07 0 7.14 0 0 Z " fill="#353A3E" transform="translate(203,206)"/>
<path d="M0 0 C2.475 0.495 2.475 0.495 5 1 C7.72502965 0.62277985 7.72502965 0.62277985 10 0 C9.67 1.32 9.34 2.64 9 4 C7.68 4.33 6.36 4.66 5 5 C4.67 8.3 4.34 11.6 4 15 C2.68 15 1.36 15 0 15 C0 10.05 0 5.1 0 0 Z " fill="#353A3E" transform="translate(384,212)"/>
<path d="M0 0 C2.475 0.495 2.475 0.495 5 1 C7.72502965 0.62277985 7.72502965 0.62277985 10 0 C9.67 1.32 9.34 2.64 9 4 C7.68 4.33 6.36 4.66 5 5 C4.67 8.3 4.34 11.6 4 15 C2.68 15 1.36 15 0 15 C0 10.05 0 5.1 0 0 Z " fill="#2F639B" transform="translate(232,64)"/>
<path d="M0 0 C1.2375 0.1546875 1.2375 0.1546875 2.5 0.3125 C4.5 3.3125 4.5 3.3125 4.125 6.5 C3.91875 7.428125 3.7125 8.35625 3.5 9.3125 C0.625 9.9375 0.625 9.9375 -2.5 10.3125 C-4.5 8.3125 -4.5 8.3125 -4.75 5.3125 C-4.43541678 1.53750135 -3.81908518 0.47738565 0 0 Z " fill="#0F0E0E" transform="translate(357.5,170.6875)"/>
<path d="M0 0 C1.2375 0.1546875 1.2375 0.1546875 2.5 0.3125 C4.5 3.3125 4.5 3.3125 4.125 6.5 C3.91875 7.428125 3.7125 8.35625 3.5 9.3125 C0.625 9.9375 0.625 9.9375 -2.5 10.3125 C-4.5 8.3125 -4.5 8.3125 -4.75 5.3125 C-4.43541678 1.53750135 -3.81908518 0.47738565 0 0 Z " fill="#0F0E0E" transform="translate(236.5,170.6875)"/>
<path d="M0 0 C1.2375 0.1546875 1.2375 0.1546875 2.5 0.3125 C4.5 3.3125 4.5 3.3125 4.125 6.5 C3.91875 7.428125 3.7125 8.35625 3.5 9.3125 C0.625 9.9375 0.625 9.9375 -2.5 10.3125 C-4.5 8.3125 -4.5 8.3125 -4.75 5.3125 C-4.43541678 1.53750135 -3.81908518 0.47738565 0 0 Z " fill="#0F0E0E" transform="translate(228.5,21.6875)"/>
<path d="M0 0 C1.32 0 2.64 0 4 0 C4 4.95 4 9.9 4 15 C2.68 15 1.36 15 0 15 C0 10.05 0 5.1 0 0 Z " fill="#353A3E" transform="translate(414,212)"/>
<path d="M0 0 C1.32 0 2.64 0 4 0 C4 4.95 4 9.9 4 15 C2.68 15 1.36 15 0 15 C0 10.05 0 5.1 0 0 Z " fill="#2F639B" transform="translate(338,64)"/>
<path d="M0 0 C0.99 0.33 1.98 0.66 3 1 C1.515 2.485 1.515 2.485 0 4 C1.65 4 3.3 4 5 4 C5.66 5.98 6.32 7.96 7 10 C7.66 10 8.32 10 9 10 C9.33 8.35 9.66 6.7 10 5 C10.99 5 11.98 5 13 5 C11.02 8.96 9.04 12.92 7 17 C6.34 16.67 5.68 16.34 5 16 C5.20625 15.484375 5.4125 14.96875 5.625 14.4375 C6.15887026 10.96734329 5.07676761 8.29364209 4 5 C2.68 5 1.36 5 0 5 C0 7.97 0 10.94 0 14 C-0.33 14 -0.66 14 -1 14 C-1 11.03 -1 8.06 -1 5 C-1.66 4.67 -2.32 4.34 -3 4 C-2.34 4 -1.68 4 -1 4 C-0.67 2.68 -0.34 1.36 0 0 Z " fill="#0F0E0E" transform="translate(277,18)"/>
<path d="M0 0 C0.66 0 1.32 0 2 0 C2 0.99 2 1.98 2 3 C2.66 3.33 3.32 3.66 4 4 C3.34 4 2.68 4 2 4 C2.32960216 9.01535052 2.32960216 9.01535052 5 13 C3.35 12.67 1.7 12.34 0 12 C0 9.36 0 6.72 0 4 C-1.65 4.66 -3.3 5.32 -5 6 C-5.33 8.31 -5.66 10.62 -6 13 C-6.66 13 -7.32 13 -8 13 C-8 9.7 -8 6.4 -8 3 C-5.36 3 -2.72 3 0 3 C0 2.01 0 1.02 0 0 Z " fill="#0F0E0E" transform="translate(263,19)"/>
<path d="M0 0 C2.625 0.375 2.625 0.375 5 1 C5.33 2.32 5.66 3.64 6 5 C4.02 5.33 2.04 5.66 0 6 C0.33 6.66 0.66 7.32 1 8 C2.65 8 4.3 8 6 8 C5.67 8.66 5.34 9.32 5 10 C2.625 10.125 2.625 10.125 0 10 C-2 8 -2 8 -2.25 5 C-2 2 -2 2 0 0 Z " fill="#464545" transform="translate(392,171)"/>
<path d="M0 0 C2.625 0.375 2.625 0.375 5 1 C5.33 2.32 5.66 3.64 6 5 C4.02 5.33 2.04 5.66 0 6 C0.33 6.66 0.66 7.32 1 8 C2.65 8 4.3 8 6 8 C5.67 8.66 5.34 9.32 5 10 C2.625 10.125 2.625 10.125 0 10 C-2 8 -2 8 -2.25 5 C-2 2 -2 2 0 0 Z " fill="#464545" transform="translate(334,171)"/>
<path d="M0 0 C2.625 0.375 2.625 0.375 5 1 C5.33 2.32 5.66 3.64 6 5 C4.02 5.33 2.04 5.66 0 6 C0.33 6.66 0.66 7.32 1 8 C2.65 8 4.3 8 6 8 C5.67 8.66 5.34 9.32 5 10 C2.625 10.125 2.625 10.125 0 10 C-2 8 -2 8 -2.25 5 C-2 2 -2 2 0 0 Z " fill="#464545" transform="translate(293,171)"/>
<path d="M0 0 C2.625 0.375 2.625 0.375 5 1 C5.33 2.32 5.66 3.64 6 5 C4.02 5.33 2.04 5.66 0 6 C0.33 6.66 0.66 7.32 1 8 C2.65 8 4.3 8 6 8 C5.67 8.66 5.34 9.32 5 10 C2.625 10.125 2.625 10.125 0 10 C-2 8 -2 8 -2.25 5 C-2 2 -2 2 0 0 Z " fill="#464545" transform="translate(276,171)"/>
<path d="M0 0 C2.625 0.375 2.625 0.375 5 1 C5.33 2.32 5.66 3.64 6 5 C4.02 5.33 2.04 5.66 0 6 C0.33 6.66 0.66 7.32 1 8 C2.65 8 4.3 8 6 8 C5.67 8.66 5.34 9.32 5 10 C2.625 10.125 2.625 10.125 0 10 C-2 8 -2 8 -2.25 5 C-2 2 -2 2 0 0 Z " fill="#464545" transform="translate(159,171)"/>
<path d="M0 0 C2.625 0.375 2.625 0.375 5 1 C5 3.97 5 6.94 5 10 C3.02 10 1.04 10 -1 10 C-1.625 8.125 -1.625 8.125 -2 6 C-1.34 5.34 -0.68 4.68 0 4 C1.32 4 2.64 4 4 4 C3.67 3.34 3.34 2.68 3 2 C1.35 2 -0.3 2 -2 2 C-1.34 1.34 -0.68 0.68 0 0 Z " fill="#504F4F" transform="translate(103,171)"/>
<path d="M0 0 C0.66 0 1.32 0 2 0 C2 4.62 2 9.24 2 14 C-0.5654594 11.4345406 -0.54046087 9.52313332 -1 6 C-1.66 6 -2.32 6 -3 6 C-3.78282648 7.79199472 -3.78282648 7.79199472 -4 10 C-2.6483633 12.24755753 -2.6483633 12.24755753 -1 14 C-4.875 13.125 -4.875 13.125 -6 12 C-6.1875 9.0625 -6.1875 9.0625 -6 6 C-5.34 5.34 -4.68 4.68 -4 4 C-2.68 4 -1.36 4 0 4 C0 2.68 0 1.36 0 0 Z " fill="#0F0E0E" transform="translate(306,167)"/>
<path d="M0 0 C2.625 0.375 2.625 0.375 5 1 C5 3.97 5 6.94 5 10 C3.02 10 1.04 10 -1 10 C-1.625 8.125 -1.625 8.125 -2 6 C-1.34 5.34 -0.68 4.68 0 4 C1.32 4 2.64 4 4 4 C3.67 3.34 3.34 2.68 3 2 C1.35 2 -0.3 2 -2 2 C-1.34 1.34 -0.68 0.68 0 0 Z " fill="#504F4F" transform="translate(314,22)"/>
<path d="M0 0 C2.625 0.375 2.625 0.375 5 1 C5.33 2.32 5.66 3.64 6 5 C4.02 5.33 2.04 5.66 0 6 C0.33 6.66 0.66 7.32 1 8 C2.65 8 4.3 8 6 8 C5.67 8.66 5.34 9.32 5 10 C2.625 10.125 2.625 10.125 0 10 C-2 8 -2 8 -2.25 5 C-2 2 -2 2 0 0 Z " fill="#464545" transform="translate(248,22)"/>
<path d="M0 0 C2.0625 0.4375 2.0625 0.4375 4 1 C4 3.31 4 5.62 4 8 C2.68 8.33 1.36 8.66 0 9 C-2 6 -2 6 -1.6875 3.375 C-1 1 -1 1 0 0 Z " fill="#FFFFFF" transform="translate(235,215)"/>
<path d="M0 0 C0.66 0 1.32 0 2 0 C2.33 1.32 2.66 2.64 3 4 C4.65 4.33 6.3 4.66 8 5 C8 7.97 8 10.94 8 14 C7.67 14 7.34 14 7 14 C6.67 11.36 6.34 8.72 6 6 C4.68 6 3.36 6 2 6 C2 8.64 2 11.28 2 14 C1.34 14 0.68 14 0 14 C0 9.38 0 4.76 0 0 Z " fill="#0F0E0E" transform="translate(321,167)"/>
<path d="M0 0 C0.66 0 1.32 0 2 0 C2.33 1.32 2.66 2.64 3 4 C4.65 4.33 6.3 4.66 8 5 C8 7.97 8 10.94 8 14 C7.67 14 7.34 14 7 14 C6.67 11.36 6.34 8.72 6 6 C4.68 6 3.36 6 2 6 C2 8.64 2 11.28 2 14 C1.34 14 0.68 14 0 14 C0 9.38 0 4.76 0 0 Z " fill="#0F0E0E" transform="translate(90,167)"/>
<path d="M0 0 C0.66 0 1.32 0 2 0 C2.33 1.32 2.66 2.64 3 4 C4.65 4.33 6.3 4.66 8 5 C8 7.97 8 10.94 8 14 C7.67 14 7.34 14 7 14 C6.67 11.36 6.34 8.72 6 6 C4.68 6 3.36 6 2 6 C2 8.64 2 11.28 2 14 C1.34 14 0.68 14 0 14 C0 9.38 0 4.76 0 0 Z " fill="#0F0E0E" transform="translate(301,18)"/>
<path d="M0 0 C0.66 0 1.32 0 2 0 C2.33 1.32 2.66 2.64 3 4 C4.65 4.33 6.3 4.66 8 5 C8 7.97 8 10.94 8 14 C7.67 14 7.34 14 7 14 C6.67 11.36 6.34 8.72 6 6 C4.68 6 3.36 6 2 6 C2 8.64 2 11.28 2 14 C1.34 14 0.68 14 0 14 C0 9.38 0 4.76 0 0 Z " fill="#0F0E0E" transform="translate(172,18)"/>
<path d="M0 0 C2.0625 0.4375 2.0625 0.4375 4 1 C4 3.31 4 5.62 4 8 C2.68 8.33 1.36 8.66 0 9 C-2 6 -2 6 -1.6875 3.375 C-1 1 -1 1 0 0 Z " fill="#FFFFFF" transform="translate(91,215)"/>
<path d="M0 0 C2.475 0.495 2.475 0.495 5 1 C5.625 3.375 5.625 3.375 6 6 C5.34 6.66 4.68 7.32 4 8 C2.68 8 1.36 8 0 8 C0 5.36 0 2.72 0 0 Z " fill="#FFFFFF" transform="translate(298,61)"/>
<path d="M0 0 C2.0625 0.4375 2.0625 0.4375 4 1 C4 3.31 4 5.62 4 8 C2.0625 8.5625 2.0625 8.5625 0 9 C-1 8 -1 8 -1.125 4.5 C-1 1 -1 1 0 0 Z " fill="#FFFFFF" transform="translate(321,215)"/>
<path d="M0 0 C0.99 0.33 1.98 0.66 3 1 C3 3.31 3 5.62 3 8 C1.0625 8.5625 1.0625 8.5625 -1 9 C-2 8 -2 8 -2.0625 4.4375 C-2.041875 3.303125 -2.02125 2.16875 -2 1 C-1.34 0.67 -0.68 0.34 0 0 Z " fill="#FFFFFF" transform="translate(221,67)"/>
<path d="M0 0 C0.99 0.33 1.98 0.66 3 1 C3 3.31 3 5.62 3 8 C1.0625 8.5625 1.0625 8.5625 -1 9 C-2 8 -2 8 -2.0625 4.4375 C-2.041875 3.303125 -2.02125 2.16875 -2 1 C-1.34 0.67 -0.68 0.34 0 0 Z " fill="#FFFFFF" transform="translate(188,67)"/>
<path d="M0 0 C0.99 0.33 1.98 0.66 3 1 C3.33 2.65 3.66 4.3 4 6 C4.66 6 5.32 6 6 6 C6.33 4.35 6.66 2.7 7 1 C7.99 1 8.98 1 10 1 C8.02 4.96 6.04 8.92 4 13 C3.34 12.67 2.68 12.34 2 12 C2.19464844 11.42765625 2.38929688 10.8553125 2.58984375 10.265625 C3.0808174 7.55358006 2.61252062 6.27004948 1.5625 3.75 C1.27503906 3.04359375 0.98757812 2.3371875 0.69140625 1.609375 C0.46324219 1.07828125 0.23507813 0.5471875 0 0 Z " fill="#0F0E0E" transform="translate(210,171)"/>
<path d="M0 0 C1.32 0.33 2.64 0.66 4 1 C4 2.98 4 4.96 4 7 C2.68 7.33 1.36 7.66 0 8 C-1.125 5.6875 -1.125 5.6875 -2 3 C-1.34 2.01 -0.68 1.02 0 0 Z " fill="#FFFFFF" transform="translate(356,172)"/>
<path d="M0 0 C1.32 0.33 2.64 0.66 4 1 C4 2.98 4 4.96 4 7 C2.68 7.33 1.36 7.66 0 8 C-1.125 5.6875 -1.125 5.6875 -2 3 C-1.34 2.01 -0.68 1.02 0 0 Z " fill="#FFFFFF" transform="translate(235,172)"/>
<path d="M0 0 C1.32 0.33 2.64 0.66 4 1 C4 2.98 4 4.96 4 7 C2.68 7.33 1.36 7.66 0 8 C-1.125 5.6875 -1.125 5.6875 -2 3 C-1.34 2.01 -0.68 1.02 0 0 Z " fill="#FFFFFF" transform="translate(227,23)"/>
<path d="M0 0 C0.99 0.33 1.98 0.66 3 1 C3 2.98 3 4.96 3 7 C1.0625 7.5625 1.0625 7.5625 -1 8 C-2 7 -2 7 -2.0625 3.9375 C-2.041875 2.968125 -2.02125 1.99875 -2 1 C-1.34 0.67 -0.68 0.34 0 0 Z " fill="#FFFFFF" transform="translate(262,172)"/>
<path d="M0 0 C0.66 0 1.32 0 2 0 C2 0.99 2 1.98 2 3 C2.66 3.33 3.32 3.66 4 4 C3.34 4 2.68 4 2 4 C2.32960216 9.01535052 2.32960216 9.01535052 5 13 C3.35 12.67 1.7 12.34 0 12 C0 9.36 0 6.72 0 4 C-0.66 3.67 -1.32 3.34 -2 3 C-1.34 3 -0.68 3 0 3 C0 2.01 0 1.02 0 0 Z " fill="#0F0E0E" transform="translate(315,168)"/>
<path d="M0 0 C0.66 0 1.32 0 2 0 C2 0.99 2 1.98 2 3 C2.66 3.33 3.32 3.66 4 4 C3.34 4 2.68 4 2 4 C2.32960216 9.01535052 2.32960216 9.01535052 5 13 C3.35 12.67 1.7 12.34 0 12 C0 9.36 0 6.72 0 4 C-0.66 3.67 -1.32 3.34 -2 3 C-1.34 3 -0.68 3 0 3 C0 2.01 0 1.02 0 0 Z " fill="#0F0E0E" transform="translate(284,168)"/>
<path d="M0 0 C0.66 0 1.32 0 2 0 C2 0.99 2 1.98 2 3 C2.66 3.33 3.32 3.66 4 4 C3.34 4 2.68 4 2 4 C2.32960216 9.01535052 2.32960216 9.01535052 5 13 C3.35 12.67 1.7 12.34 0 12 C0 9.36 0 6.72 0 4 C-0.66 3.67 -1.32 3.34 -2 3 C-1.34 3 -0.68 3 0 3 C0 2.01 0 1.02 0 0 Z " fill="#0F0E0E" transform="translate(322,19)"/>
<path d="M0 0 C0.66 0 1.32 0 2 0 C2 0.99 2 1.98 2 3 C2.66 3.33 3.32 3.66 4 4 C3.34 4 2.68 4 2 4 C2.32960216 9.01535052 2.32960216 9.01535052 5 13 C3.35 12.67 1.7 12.34 0 12 C0 9.36 0 6.72 0 4 C-0.66 3.67 -1.32 3.34 -2 3 C-1.34 3 -0.68 3 0 3 C0 2.01 0 1.02 0 0 Z " fill="#0F0E0E" transform="translate(295,19)"/>
<path d="M0 0 C0.66 0 1.32 0 2 0 C2 0.99 2 1.98 2 3 C2.66 3.33 3.32 3.66 4 4 C3.34 4 2.68 4 2 4 C2.32960216 9.01535052 2.32960216 9.01535052 5 13 C3.35 12.67 1.7 12.34 0 12 C0 9.36 0 6.72 0 4 C-0.66 3.67 -1.32 3.34 -2 3 C-1.34 3 -0.68 3 0 3 C0 2.01 0 1.02 0 0 Z " fill="#0F0E0E" transform="translate(217,19)"/>
<path d="M0 0 C1.98 0 3.96 0 6 0 C5.525625 0.350625 5.05125 0.70125 4.5625 1.0625 C2.32126175 3.84163543 2.32882342 6.5144717 2 10 C1.34 10 0.68 10 0 10 C0 6.7 0 3.4 0 0 Z " fill="#0F0E0E" transform="translate(374,171)"/>
<path d="M0 0 C2.0625 0.4375 2.0625 0.4375 4 1 C3.67 2.32 3.34 3.64 3 5 C1.68 4.67 0.36 4.34 -1 4 C-1 1 -1 1 0 0 Z " fill="#353A3E" transform="translate(415,206)"/>
<path d="M0 0 C0.99 0.33 1.98 0.66 3 1 C1.515 2.485 1.515 2.485 0 4 C0.99 4.33 1.98 4.66 3 5 C2.01 5 1.02 5 0 5 C0 7.97 0 10.94 0 14 C-0.33 14 -0.66 14 -1 14 C-1 11.03 -1 8.06 -1 5 C-1.66 4.67 -2.32 4.34 -3 4 C-2.34 4 -1.68 4 -1 4 C-0.67 2.68 -0.34 1.36 0 0 Z " fill="#0F0E0E" transform="translate(186,167)"/>
<path d="M0 0 C2.0625 0.4375 2.0625 0.4375 4 1 C3.67 2.32 3.34 3.64 3 5 C1.68 4.67 0.36 4.34 -1 4 C-1 1 -1 1 0 0 Z " fill="#2F639B" transform="translate(339,58)"/>
<path d="M0 0 C0.99 0.33 1.98 0.66 3 1 C2.67 3.97 2.34 6.94 2 10 C1.34 10 0.68 10 0 10 C0 6.7 0 3.4 0 0 Z " fill="#0F0E0E" transform="translate(242,171)"/>
</svg>
