<?xml version="1.0" encoding="UTF-8"?>
<svg version="1.1" xmlns="http://www.w3.org/2000/svg" width="634" height="418">
<path d="M0 0 C209.22 0 418.44 0 634 0 C634 137.94 634 275.88 634 418 C424.78 418 215.56 418 0 418 C0 280.06 0 142.12 0 0 Z " fill="#FDFEFD" transform="translate(0,0)"/>
<path d="M0 0 C21.84 0 21.84 0 26.54296875 4.46484375 C31.11144587 9.69875731 31.28743222 13.27296292 31.21484375 20.015625 C30.85244155 25.04972096 29.2478157 27.78590905 25.6875 31.25 C17.19239062 36.78169913 10.81754009 35 0 35 C0 23.45 0 11.9 0 0 Z " fill="#2F669F" transform="translate(161,89)"/>
<path d="M0 0 C6 0 6 0 8.5625 2.34375 C9.366875 3.3853125 10.17125 4.426875 11 5.5 C11.804375 6.5209375 12.60875 7.541875 13.4375 8.59375 C16.29557394 12.39289706 19.14749973 16.1966663 22 20 C22.33 13.4 22.66 6.8 23 0 C25.31 0 27.62 0 30 0 C30 11.55 30 23.1 30 35 C28.02 35 26.04 35 24 35 C21.82896686 32.82896686 20.19122322 30.90672228 18.4375 28.4375 C17.98181641 27.82841797 17.52613281 27.21933594 17.05664062 26.59179688 C15.68136717 24.7431007 14.33722236 22.87642848 13 21 C11.35 18.69 9.7 16.38 8 14 C7.67 20.93 7.34 27.86 7 35 C4.69 35 2.38 35 0 35 C0 23.45 0 11.9 0 0 Z " fill="#3E3E45" transform="translate(507,333)"/>
<path d="M0 0 C19.55555556 0 19.55555556 0 24.9375 4.6875 C26.51239129 8.11520458 26.51817819 11.33626123 26 15 C24.56439238 18.8001378 23.36485329 19.7925344 19.8125 21.8125 C15.51161796 23.152119 12.46394807 23.23494464 8 23 C8 26.96 8 30.92 8 35 C5.36 35 2.72 35 0 35 C0 23.45 0 11.9 0 0 Z " fill="#3A3C45" transform="translate(569,333)"/>
<path d="M0 0 C19.55555556 0 19.55555556 0 24.9375 4.6875 C26.51239129 8.11520458 26.51817819 11.33626123 26 15 C24.56439238 18.8001378 23.36485329 19.7925344 19.8125 21.8125 C15.51161796 23.152119 12.46394807 23.23494464 8 23 C8 26.96 8 30.92 8 35 C5.36 35 2.72 35 0 35 C0 23.45 0 11.9 0 0 Z " fill="#2F659F" transform="translate(404,89)"/>
<path d="M0 0 C2.31 0 4.62 0 7 0 C7 11.88 7 23.76 7 36 C5.02 36 3.04 36 1 36 C0.34 35.34 -0.32 34.68 -1 34 C-1.515625 34.350625 -2.03125 34.70125 -2.5625 35.0625 C-6.09964462 36.42294024 -8.37061908 35.9721556 -12 35 C-15.71541738 31.28458262 -16.88365894 28.41936096 -17.3125 23.1875 C-17.24802765 18.81143896 -15.92405636 16.31919911 -13 13 C-9.09926842 10.63903089 -6.35403439 10.93568048 -2 12 C-1.34 12.33 -0.68 12.66 0 13 C0 8.71 0 4.42 0 0 Z " fill="#3A3E48" transform="translate(377,332)"/>
<path d="M0 0 C2.31 0 4.62 0 7 0 C7.33 4.29 7.66 8.58 8 13 C8.99 12.34 9.98 11.68 11 11 C15.02540063 10.37382657 16.73656805 10.85088758 20.3125 12.875 C23.57718585 15.91572323 24.05257318 19.08201631 24.234375 23.42578125 C23.85797041 27.55995831 22.56210367 30.73840137 20 34 C16.78983886 36.1690278 15.1977624 36.01675953 11.3125 35.6875 C8 35 8 35 6 34 C6 34.66 6 35.32 6 36 C4.02 36 2.04 36 0 36 C0 24.12 0 12.24 0 0 Z " fill="#32679F" transform="translate(276,88)"/>
<path d="M0 0 C2.31 0 4.62 0 7 0 C7.33 4.29 7.66 8.58 8 13 C8.99 12.34 9.98 11.68 11 11 C15.02540063 10.37382657 16.73656805 10.85088758 20.3125 12.875 C23.57718585 15.91572323 24.05257318 19.08201631 24.234375 23.42578125 C23.85797041 27.55995831 22.56210367 30.73840137 20 34 C16.78983886 36.1690278 15.1977624 36.01675953 11.3125 35.6875 C8 35 8 35 6 34 C6 34.66 6 35.32 6 36 C4.02 36 2.04 36 0 36 C0 24.12 0 12.24 0 0 Z " fill="#32679F" transform="translate(223,88)"/>
<path d="M0 0 C-0.66 1.65 -1.32 3.3 -2 5 C-2.804375 4.835 -3.60875 4.67 -4.4375 4.5 C-12.58984212 3.19307567 -12.58984212 3.19307567 -20.0625 5.9375 C-22.68568636 10.08382683 -22.6577112 13.22293967 -22 18 C-21.35062487 20.92876584 -21.35062487 20.92876584 -20 23 C-17.11788698 23.96070434 -15.30149956 24.10581883 -12.3125 24.0625 C-11.50425781 24.05347656 -10.69601563 24.04445313 -9.86328125 24.03515625 C-9.24839844 24.02355469 -8.63351563 24.01195312 -8 24 C-7.67 22.02 -7.34 20.04 -7 18 C-8.65 18 -10.3 18 -12 18 C-12 16.35 -12 14.7 -12 13 C-8.04 13 -4.08 13 0 13 C0 17.95 0 22.9 0 28 C-8.15371876 31.01060385 -14.61834853 32.35266059 -23 29 C-26.85864403 26.07061657 -29.90869322 22.80174982 -31 18 C-31.81569152 11.55268483 -31.249979 6.96810446 -27.42578125 1.625 C-19.85051804 -7.00872465 -8.99922065 -4.49961033 0 0 Z " fill="#3B3D43" transform="translate(81,337)"/>
<path d="M0 0 C1.49956519 0.19094633 2.99955332 0.37860867 4.5 0.5625 C5.655 0.706875 6.81 0.85125 8 1 C8 1.99 8 2.98 8 4 C6.68 4.33 5.36 4.66 4 5 C4.103125 5.9075 4.20625 6.815 4.3125 7.75 C4 11 4 11 1.9375 13.375 C-1.61671263 15.34116018 -3.997753 15.31390173 -8 15 C-7.67 15.66 -7.34 16.32 -7 17 C-4.51308326 17.35786234 -2.05202642 17.44370337 0.45703125 17.55859375 C3.37462749 18.06502751 4.79452246 19.07213502 7 21 C6.83888798 25.1889125 6.61946287 27.34705265 3.6875 30.4375 C-0.97555133 33.06968469 -6.85026632 32.79612874 -12 32 C-14.34375 30.6640625 -14.34375 30.6640625 -16 29 C-16.375 25.9375 -16.375 25.9375 -16 23 C-15.34 22.34 -14.68 21.68 -14 21 C-13.83329727 18.04173894 -13.83329727 18.04173894 -14 15 C-14 14.01 -14 13.02 -14 12 C-14.33 11.34 -14.66 10.68 -15 10 C-15.3125 6.5625 -15.3125 6.5625 -15 3 C-10.50503867 -1.64996 -5.91291978 -0.86862361 0 0 Z " fill="#3A3E44" transform="translate(206,344)"/>
<path d="M0 0 C2.31 0 4.62 0 7 0 C9.27376292 4.96093728 10.78623966 9.67812773 12 15 C12.19335938 14.16855469 12.38671875 13.33710938 12.5859375 12.48046875 C12.84632813 11.39378906 13.10671875 10.30710937 13.375 9.1875 C13.75785156 7.56908203 13.75785156 7.56908203 14.1484375 5.91796875 C15 3 15 3 17 0 C20.125 -0.1875 20.125 -0.1875 23 0 C26.25968109 9.41002278 26.25968109 9.41002278 27 14 C27.33 14 27.66 14 28 14 C28.20496094 13.07316406 28.40992188 12.14632813 28.62109375 11.19140625 C28.89050781 9.99386719 29.15992188 8.79632813 29.4375 7.5625 C29.70433594 6.36753906 29.97117187 5.17257812 30.24609375 3.94140625 C31 1 31 1 32 0 C34.31 0 36.62 0 39 0 C36.69 8.25 34.38 16.5 32 25 C29.69 25 27.38 25 25 25 C22.92373687 20.37559575 21.29977048 15.8991349 20 11 C17.92373687 15.62440425 16.29977048 20.1008651 15 25 C12.69 25 10.38 25 8 25 C6.66425789 21.02163777 5.33180936 17.04218033 4 13.0625 C3.6184375 11.92619141 3.236875 10.78988281 2.84375 9.61914062 C2.4828125 8.53955078 2.121875 7.45996094 1.75 6.34765625 C1.41484375 5.34742432 1.0796875 4.34719238 0.734375 3.31665039 C0 1 0 1 0 0 Z " fill="#3F4149" transform="translate(396,343)"/>
<path d="M0 0 C0.85722656 0.07863281 1.71445313 0.15726562 2.59765625 0.23828125 C4.9375 0.6875 4.9375 0.6875 7.9375 2.6875 C7.2775 4.3375 6.6175 5.9875 5.9375 7.6875 C0.4925 7.1925 0.4925 7.1925 -5.0625 6.6875 C-5.3925 8.0075 -5.7225 9.3275 -6.0625 10.6875 C-4.56396484 11.41066406 -4.56396484 11.41066406 -3.03515625 12.1484375 C-1.73161549 12.78614089 -0.42823849 13.42417911 0.875 14.0625 C1.53435547 14.37960937 2.19371094 14.69671875 2.87304688 15.0234375 C7.82421875 17.4609375 7.82421875 17.4609375 8.9375 19.6875 C9.6343063 26.77169743 9.6343063 26.77169743 6.75 30.5625 C1.37751351 34.62171201 -2.09371508 34.86648045 -8.66015625 34.26953125 C-11.39888511 33.60600182 -12.93975378 32.50629641 -15.0625 30.6875 C-14.4025 29.0375 -13.7425 27.3875 -13.0625 25.6875 C-10.89375748 26.19353992 -9.06282373 26.68733813 -7.0625 27.6875 C-5.68907169 27.7564472 -4.31247898 27.77217708 -2.9375 27.75 C-1.65875 27.729375 -0.38 27.70875 0.9375 27.6875 C0.8159514 25.23663426 0.8159514 25.23663426 -0.0625 22.6875 C-2.22283668 21.39385301 -2.22283668 21.39385301 -4.875 20.6875 C-9.25260177 19.1093088 -11.89023965 18.03202071 -14.0625 13.6875 C-14.65233087 10.87005546 -14.7263088 8.49592186 -14.0625 5.6875 C-9.92307756 0.28325404 -6.53333541 -0.66023148 0 0 Z " fill="#3C4046" transform="translate(239.0625,333.3125)"/>
<path d="M0 0 C2.31 0 4.62 0 7 0 C7 4.29 7 8.58 7 13 C8.65 12.34 10.3 11.68 12 11 C18.24398888 11.21530996 18.24398888 11.21530996 20.69262695 13.75683594 C22.20395356 16.34993937 22.35022986 17.78804735 22.29296875 20.765625 C22.28330078 21.65507812 22.27363281 22.54453125 22.26367188 23.4609375 C22.23853516 24.38132812 22.21339844 25.30171875 22.1875 26.25 C22.16719727 27.65378906 22.16719727 27.65378906 22.14648438 29.0859375 C22.11119954 31.39121327 22.06190281 33.6953106 22 36 C19.69 36 17.38 36 15 36 C14.67 30.06 14.34 24.12 14 18 C10.25308553 16.60229416 10.25308553 16.60229416 8 18 C7.67 23.94 7.34 29.88 7 36 C4.69 36 2.38 36 0 36 C0 24.12 0 12.24 0 0 Z " fill="#3D3B41" transform="translate(471,332)"/>
<path d="M0 0 C2.93087207 2.25451698 3.82814288 3.48442865 5 7 C5.07973476 8.33525717 5.10771338 9.67412083 5.09765625 11.01171875 C5.09443359 11.76904297 5.09121094 12.52636719 5.08789062 13.30664062 C5.07951172 14.09232422 5.07113281 14.87800781 5.0625 15.6875 C5.05798828 16.48478516 5.05347656 17.28207031 5.04882812 18.10351562 C5.0370585 20.06904257 5.01912348 22.03453085 5 24 C3.35 24 1.7 24 0 24 C-0.33 23.01 -0.66 22.02 -1 21 C-1.86625 21.495 -2.7325 21.99 -3.625 22.5 C-7.19797628 24.08798946 -9.15287882 24.58543148 -13 24 C-16.08884321 21.88658096 -16.87108765 20.68753254 -17.5625 17 C-17 14 -17 14 -15.0625 11.6875 C-11.07043464 9.48779052 -7.49885443 9.19602852 -3 9 C-3.33 7.68 -3.66 6.36 -4 5 C-7.3 5.33 -10.6 5.66 -14 6 C-14.66 4.68 -15.32 3.36 -16 2 C-10.03958215 -0.66090082 -6.39573138 -1.59893284 0 0 Z " fill="#346BA2" transform="translate(449,100)"/>
<path d="M0 0 C2.93087207 2.25451698 3.82814288 3.48442865 5 7 C5.07973476 8.33525717 5.10771338 9.67412083 5.09765625 11.01171875 C5.09443359 11.76904297 5.09121094 12.52636719 5.08789062 13.30664062 C5.07951172 14.09232422 5.07113281 14.87800781 5.0625 15.6875 C5.05798828 16.48478516 5.05347656 17.28207031 5.04882812 18.10351562 C5.0370585 20.06904257 5.01912348 22.03453085 5 24 C3.35 24 1.7 24 0 24 C-0.33 23.01 -0.66 22.02 -1 21 C-1.86625 21.495 -2.7325 21.99 -3.625 22.5 C-7.19797628 24.08798946 -9.15287882 24.58543148 -13 24 C-16.08884321 21.88658096 -16.87108765 20.68753254 -17.5625 17 C-17 14 -17 14 -15.0625 11.6875 C-11.07043464 9.48779052 -7.49885443 9.19602852 -3 9 C-3.33 7.68 -3.66 6.36 -4 5 C-7.3 5.33 -10.6 5.66 -14 6 C-14.66 4.68 -15.32 3.36 -16 2 C-10.03958215 -0.66090082 -6.39573138 -1.59893284 0 0 Z " fill="#346BA2" transform="translate(385,100)"/>
<path d="M0 0 C2.93087207 2.25451698 3.82814288 3.48442865 5 7 C5.07973476 8.33525717 5.10771338 9.67412083 5.09765625 11.01171875 C5.09443359 11.76904297 5.09121094 12.52636719 5.08789062 13.30664062 C5.07951172 14.09232422 5.07113281 14.87800781 5.0625 15.6875 C5.05798828 16.48478516 5.05347656 17.28207031 5.04882812 18.10351562 C5.0370585 20.06904257 5.01912348 22.03453085 5 24 C3.35 24 1.7 24 0 24 C-0.33 23.01 -0.66 22.02 -1 21 C-1.86625 21.495 -2.7325 21.99 -3.625 22.5 C-7.19797628 24.08798946 -9.15287882 24.58543148 -13 24 C-16.08884321 21.88658096 -16.87108765 20.68753254 -17.5625 17 C-17 14 -17 14 -15.0625 11.6875 C-11.07043464 9.48779052 -7.49885443 9.19602852 -3 9 C-3.33 7.68 -3.66 6.36 -4 5 C-7.3 5.33 -10.6 5.66 -14 6 C-14.66 4.68 -15.32 3.36 -16 2 C-10.03958215 -0.66090082 -6.39573138 -1.59893284 0 0 Z " fill="#346BA2" transform="translate(341,100)"/>
<path d="M0 0 C2.93087207 2.25451698 3.82814288 3.48442865 5 7 C5.07973476 8.33525717 5.10771338 9.67412083 5.09765625 11.01171875 C5.09443359 11.76904297 5.09121094 12.52636719 5.08789062 13.30664062 C5.07951172 14.09232422 5.07113281 14.87800781 5.0625 15.6875 C5.05798828 16.48478516 5.05347656 17.28207031 5.04882812 18.10351562 C5.0370585 20.06904257 5.01912348 22.03453085 5 24 C3.35 24 1.7 24 0 24 C-0.33 23.01 -0.66 22.02 -1 21 C-1.86625 21.495 -2.7325 21.99 -3.625 22.5 C-7.19797628 24.08798946 -9.15287882 24.58543148 -13 24 C-16.08884321 21.88658096 -16.87108765 20.68753254 -17.5625 17 C-17 14 -17 14 -15.0625 11.6875 C-11.07043464 9.48779052 -7.49885443 9.19602852 -3 9 C-3.33 7.68 -3.66 6.36 -4 5 C-7.3 5.33 -10.6 5.66 -14 6 C-14.66 4.68 -15.32 3.36 -16 2 C-10.03958215 -0.66090082 -6.39573138 -1.59893284 0 0 Z " fill="#346BA2" transform="translate(266,100)"/>
<path d="M0 0 C4.20181603 2.56777646 5.73302028 3.93208114 6.9375 8.75 C6.958125 9.8225 6.97875 10.895 7 12 C6 13 6 13 2.62109375 13.09765625 C1.22652923 13.09098369 -0.16801743 13.07902532 -1.5625 13.0625 C-2.27341797 13.05798828 -2.98433594 13.05347656 -3.71679688 13.04882812 C-5.47790013 13.03700864 -7.23896036 13.01907263 -9 13 C-8.22533772 15.50233586 -8.22533772 15.50233586 -7 18 C-3.99668927 18.98705203 -3.99668927 18.98705203 -1 19 C-0.67 18.67 -0.34 18.34 0 18 C1.66617115 17.95936168 3.33388095 17.957279 5 18 C5.33 19.32 5.66 20.64 6 22 C0.41931047 24.96845188 -3.82756064 25.72227241 -10 24 C-13.46121174 21.83674266 -14.70741598 20.87775207 -16 17 C-17.14191853 7.66228647 -17.14191853 7.66228647 -14.765625 4.203125 C-10.16626582 0.33237718 -5.87366934 -0.59732231 0 0 Z " fill="#2F68A0" transform="translate(212,99)"/>
<path d="M0 0 C2.21875 1.41796875 2.21875 1.41796875 4 4 C4.49136585 7.42929249 4.37581655 10.79488402 4.25 14.25 C4.23195313 15.18585938 4.21390625 16.12171875 4.1953125 17.0859375 C4.14825673 19.39167015 4.08253713 21.69530945 4 24 C2.35 24 0.7 24 -1 24 C-1 23.01 -1 22.02 -1 21 C-1.86625 21.495 -2.7325 21.99 -3.625 22.5 C-7.19797628 24.08798946 -9.15287882 24.58543148 -13 24 C-16.08884321 21.88658096 -16.87108765 20.68753254 -17.5625 17 C-17 14 -17 14 -15.0625 11.6875 C-11.07043464 9.48779052 -7.49885443 9.19602852 -3 9 C-3.33 7.68 -3.66 6.36 -4 5 C-7.3 5.33 -10.6 5.66 -14 6 C-14.66 4.68 -15.32 3.36 -16 2 C-10.03958215 -0.66090082 -6.39573138 -1.59893284 0 0 Z " fill="#3D3E43" transform="translate(287,344)"/>
<path d="M0 0 C2.9375 1.625 2.9375 1.625 5 4 C5.875 7.6875 5.875 7.6875 6 11 C5 12 5 12 1.62109375 12.09765625 C0.22652923 12.09098369 -1.16801743 12.07902532 -2.5625 12.0625 C-3.27341797 12.05798828 -3.98433594 12.05347656 -4.71679688 12.04882812 C-6.47790013 12.03700864 -8.23896036 12.01907263 -10 12 C-9.22533772 14.50233586 -9.22533772 14.50233586 -8 17 C-4.99668927 17.98705203 -4.99668927 17.98705203 -2 18 C-1.67 17.67 -1.34 17.34 -1 17 C0.66617115 16.95936168 2.33388095 16.957279 4 17 C4.33 18.32 4.66 19.64 5 21 C-0.58068953 23.96845188 -4.82756064 24.72227241 -11 23 C-14.46121174 20.83674266 -15.70741598 19.87775207 -17 16 C-18.14191853 6.66228647 -18.14191853 6.66228647 -15.765625 3.203125 C-10.74760076 -1.01996471 -6.2013343 -1.53522311 0 0 Z " fill="#3A3F46" transform="translate(353,344)"/>
<path d="M0 0 C2.9375 1.625 2.9375 1.625 5 4 C5.875 7.6875 5.875 7.6875 6 11 C5 12 5 12 1.62109375 12.09765625 C0.22652923 12.09098369 -1.16801743 12.07902532 -2.5625 12.0625 C-3.27341797 12.05798828 -3.98433594 12.05347656 -4.71679688 12.04882812 C-6.47790013 12.03700864 -8.23896036 12.01907263 -10 12 C-9.22533772 14.50233586 -9.22533772 14.50233586 -8 17 C-4.99668927 17.98705203 -4.99668927 17.98705203 -2 18 C-1.67 17.67 -1.34 17.34 -1 17 C0.66617115 16.95936168 2.33388095 16.957279 4 17 C4.33 18.32 4.66 19.64 5 21 C-0.58068953 23.96845188 -4.82756064 24.72227241 -11 23 C-14.46121174 20.83674266 -15.70741598 19.87775207 -17 16 C-18.14191853 6.66228647 -18.14191853 6.66228647 -15.765625 3.203125 C-10.74760076 -1.01996471 -6.2013343 -1.53522311 0 0 Z " fill="#3A3F46" transform="translate(103,344)"/>
<path d="M0 0 C6 0 6 0 9 1 C10.11375 0.79375 11.2275 0.5875 12.375 0.375 C16.49795644 -0.05151274 17.81067616 0.46730165 21 3 C22.20029908 5.40059817 22.11459743 6.89360649 22.09765625 9.5703125 C22.09443359 10.46621094 22.09121094 11.36210937 22.08789062 12.28515625 C22.07951172 13.22230469 22.07113281 14.15945313 22.0625 15.125 C22.05798828 16.06988281 22.05347656 17.01476562 22.04882812 17.98828125 C22.03702357 20.32558387 22.02055759 22.66276061 22 25 C19.69 25 17.38 25 15 25 C14.67 19.06 14.34 13.12 14 7 C10.25308553 5.60229416 10.25308553 5.60229416 8 7 C7.67 12.94 7.34 18.88 7 25 C4.69 25 2.38 25 0 25 C0 16.75 0 8.5 0 0 Z " fill="#3E3C42" transform="translate(164,343)"/>
<path d="M0 0 C2.64 0 5.28 0 8 0 C8 9.57 8 19.14 8 29 C12.29 29 16.58 29 21 29 C21 30.98 21 32.96 21 35 C14.07 35 7.14 35 0 35 C0 23.45 0 11.9 0 0 Z " fill="#3A3B46" transform="translate(543,333)"/>
<path d="M0 0 C10 0 10 0 13.125 1.75 C16.01032072 6.75122259 15.91131675 11.37261907 15 17 C13.78063105 20.29839301 13.02975224 20.81857838 10 23 C6.7 23 3.4 23 0 23 C0 15.41 0 7.82 0 0 Z " fill="#FAFCFB" transform="translate(169,95)"/>
<path d="M0 0 C0.99 0.66 1.98 1.32 3 2 C3.515625 1.484375 4.03125 0.96875 4.5625 0.4375 C7.9710271 -1.57265701 10.23106857 -0.79727396 14 0 C14 0.66 14 1.32 14 2 C11.69 1.67 9.38 1.34 7 1 C7.03955898 2.92309422 7.03955898 2.92309422 8 5 C8.99 5.495 9.98 5.99 11 6.5 C14 8 14 8 14.875 10.1875 C14.91625 10.785625 14.9575 11.38375 15 12 C13.5 13.5625 13.5 13.5625 11 15 C8.23625238 14.96722829 5.74005131 14.48613814 3 14 C0.75904701 13.92639145 0.75904701 13.92639145 -2.3125 14.75 C-6 15 -6 15 -8.9375 13.625 C-11.544935 10.30644637 -11.67278304 8.19912645 -11.4140625 4.06640625 C-11 2 -11 2 -9.4375 -0.125 C-5.97527375 -1.36785045 -3.54112686 -0.83699362 0 0 Z " fill="#F1F4F1" transform="translate(193,277)"/>
<path d="M0 0 C0 0.66 0 1.32 0 2 C0.845625 1.484375 1.69125 0.96875 2.5625 0.4375 C6.63883813 -1.26715049 8.77024556 -1.13878004 13 0 C15 3 15 3 15 7 C11.37 7 7.74 7 4 7 C4.66 8.65 5.32 10.3 6 12 C8.64 12 11.28 12 14 12 C14 12.66 14 13.32 14 14 C8.62823181 14.91046918 6.05525648 15.0494283 1 13 C-0.67540664 13.64438717 -2.34183216 14.31246699 -4 15 C-7.1875 14.8125 -7.1875 14.8125 -10 14 C-12.67670319 9.98494521 -12.68367882 6.71563081 -12 2 C-8.91008528 -2.37737919 -4.68001736 -0.85800318 0 0 Z " fill="#EEF4F5" transform="translate(325,34)"/>
<path d="M0 0 C1.65 0 3.3 0 5 0 C5 2.31 5 4.62 5 7 C6.98 7 8.96 7 11 7 C11 8.65 11 10.3 11 12 C9.02 12 7.04 12 5 12 C5.33 16.62 5.66 21.24 6 26 C7.32 26.33 8.64 26.66 10 27 C10.33 28.32 10.66 29.64 11 31 C9.42270283 31.30402102 7.83746472 31.56703941 6.25 31.8125 C4.92742187 32.03873047 4.92742187 32.03873047 3.578125 32.26953125 C1 32 1 32 -1.3125 29.96875 C-3.41220775 26.2748197 -3.40774976 23.90730607 -3.25 19.6875 C-3.21390625 18.43324219 -3.1778125 17.17898437 -3.140625 15.88671875 C-3.07101562 14.45779297 -3.07101562 14.45779297 -3 13 C-3.99 12.67 -4.98 12.34 -6 12 C-6 10.68 -6 9.36 -6 8 C-5.01 7.67 -4.02 7.34 -3 7 C-1.28432339 3.49705129 -1.28432339 3.49705129 0 0 Z " fill="#366CA2" transform="translate(463,92)"/>
<path d="M0 0 C1.65 0 3.3 0 5 0 C5 2.31 5 4.62 5 7 C6.98 7 8.96 7 11 7 C11 8.65 11 10.3 11 12 C9.02 12 7.04 12 5 12 C5.33 16.62 5.66 21.24 6 26 C7.32 26.33 8.64 26.66 10 27 C10.33 28.32 10.66 29.64 11 31 C9.42270283 31.30402102 7.83746472 31.56703941 6.25 31.8125 C4.92742187 32.03873047 4.92742187 32.03873047 3.578125 32.26953125 C1 32 1 32 -1.3125 29.96875 C-3.41220775 26.2748197 -3.40774976 23.90730607 -3.25 19.6875 C-3.21390625 18.43324219 -3.1778125 17.17898437 -3.140625 15.88671875 C-3.07101562 14.45779297 -3.07101562 14.45779297 -3 13 C-3.99 12.67 -4.98 12.34 -6 12 C-6 10.68 -6 9.36 -6 8 C-5.01 7.67 -4.02 7.34 -3 7 C-1.28432339 3.49705129 -1.28432339 3.49705129 0 0 Z " fill="#366CA2" transform="translate(354,92)"/>
<path d="M0 0 C1.65 0 3.3 0 5 0 C5 2.31 5 4.62 5 7 C6.98 7 8.96 7 11 7 C11 8.65 11 10.3 11 12 C9.02 12 7.04 12 5 12 C5 16.62 5 21.24 5 26 C6.65 26.33 8.3 26.66 10 27 C10.33 27.99 10.66 28.98 11 30 C7.5970516 32.09412209 4.96378615 32.57805215 1 32 C-1.97804669 29.16121449 -2.93655985 27.57667097 -3.390625 23.44921875 C-3.34421875 22.20785156 -3.2978125 20.96648437 -3.25 19.6875 C-3.21390625 18.43324219 -3.1778125 17.17898438 -3.140625 15.88671875 C-3.07101562 14.45779297 -3.07101562 14.45779297 -3 13 C-3.99 12.67 -4.98 12.34 -6 12 C-6 10.68 -6 9.36 -6 8 C-5.38125 7.79375 -4.7625 7.5875 -4.125 7.375 C-1.15346355 5.45224112 -0.86975341 3.33405473 0 0 Z " fill="#41454C" transform="translate(456,336)"/>
<path d="M0 0 C1.65 0 3.3 0 5 0 C5 2.31 5 4.62 5 7 C6.98 7 8.96 7 11 7 C11 8.65 11 10.3 11 12 C9.02 12 7.04 12 5 12 C5 16.62 5 21.24 5 26 C6.65 26.33 8.3 26.66 10 27 C10.33 27.99 10.66 28.98 11 30 C7.5970516 32.09412209 4.96378615 32.57805215 1 32 C-1.97804669 29.16121449 -2.93655985 27.57667097 -3.390625 23.44921875 C-3.34421875 22.20785156 -3.2978125 20.96648437 -3.25 19.6875 C-3.21390625 18.43324219 -3.1778125 17.17898438 -3.140625 15.88671875 C-3.07101562 14.45779297 -3.07101562 14.45779297 -3 13 C-3.99 12.67 -4.98 12.34 -6 12 C-6 10.68 -6 9.36 -6 8 C-5.38125 7.79375 -4.7625 7.5875 -4.125 7.375 C-1.15346355 5.45224112 -0.86975341 3.33405473 0 0 Z " fill="#41454C" transform="translate(322,336)"/>
<path d="M0 0 C1.65 0 3.3 0 5 0 C5 2.31 5 4.62 5 7 C6.98 7 8.96 7 11 7 C11 8.65 11 10.3 11 12 C9.02 12 7.04 12 5 12 C5 16.62 5 21.24 5 26 C6.65 26.33 8.3 26.66 10 27 C10.33 27.99 10.66 28.98 11 30 C7.5970516 32.09412209 4.96378615 32.57805215 1 32 C-1.97804669 29.16121449 -2.93655985 27.57667097 -3.390625 23.44921875 C-3.34421875 22.20785156 -3.2978125 20.96648437 -3.25 19.6875 C-3.21390625 18.43324219 -3.1778125 17.17898438 -3.140625 15.88671875 C-3.07101563 14.45779297 -3.07101563 14.45779297 -3 13 C-3.99 12.67 -4.98 12.34 -6 12 C-6 10.68 -6 9.36 -6 8 C-5.38125 7.79375 -4.7625 7.5875 -4.125 7.375 C-1.15346355 5.45224112 -0.86975341 3.33405473 0 0 Z " fill="#41454C" transform="translate(256,336)"/>
<path d="M0 0 C1.65 0 3.3 0 5 0 C5 2.31 5 4.62 5 7 C6.98 7 8.96 7 11 7 C11 8.65 11 10.3 11 12 C9.02 12 7.04 12 5 12 C5 16.62 5 21.24 5 26 C6.65 26.33 8.3 26.66 10 27 C10.33 27.99 10.66 28.98 11 30 C7.5970516 32.09412209 4.96378615 32.57805215 1 32 C-1.97804669 29.16121449 -2.93655985 27.57667097 -3.390625 23.44921875 C-3.34421875 22.20785156 -3.2978125 20.96648437 -3.25 19.6875 C-3.21390625 18.43324219 -3.1778125 17.17898438 -3.140625 15.88671875 C-3.07101563 14.45779297 -3.07101563 14.45779297 -3 13 C-3.99 12.67 -4.98 12.34 -6 12 C-6 10.68 -6 9.36 -6 8 C-5.38125 7.79375 -4.7625 7.5875 -4.125 7.375 C-1.15346355 5.45224112 -0.86975341 3.33405473 0 0 Z " fill="#41454C" transform="translate(135,336)"/>
<path d="M0 0 C1.65 0 3.3 0 5 0 C5 2.31 5 4.62 5 7 C6.98 7 8.96 7 11 7 C11 8.65 11 10.3 11 12 C9.02 12 7.04 12 5 12 C5 16.62 5 21.24 5 26 C6.65 26.33 8.3 26.66 10 27 C10.33 27.99 10.66 28.98 11 30 C7.5970516 32.09412209 4.96378615 32.57805215 1 32 C-1.97804669 29.16121449 -2.93655985 27.57667097 -3.390625 23.44921875 C-3.34421875 22.20785156 -3.2978125 20.96648437 -3.25 19.6875 C-3.21390625 18.43324219 -3.1778125 17.17898438 -3.140625 15.88671875 C-3.07101563 14.45779297 -3.07101563 14.45779297 -3 13 C-3.99 12.67 -4.98 12.34 -6 12 C-6 10.68 -6 9.36 -6 8 C-5.38125 7.79375 -4.7625 7.5875 -4.125 7.375 C-1.15346355 5.45224112 -0.86975341 3.33405473 0 0 Z " fill="#41454C" transform="translate(117,336)"/>
<path d="M0 0 C2.46076457 0.26403053 4.37336576 0.21398981 6.79296875 -0.20703125 C9.73046875 -0.70703125 9.73046875 -0.70703125 11.73046875 0.29296875 C11.73046875 0.95296875 11.73046875 1.61296875 11.73046875 2.29296875 C10.78171875 2.25171875 9.83296875 2.21046875 8.85546875 2.16796875 C5.62802019 1.94323057 5.62802019 1.94323057 3.73046875 4.29296875 C3.39713542 7.29296875 3.39713542 7.29296875 3.73046875 10.29296875 C5.6868085 12.70418734 5.6868085 12.70418734 9.35546875 12.41796875 C10.46921875 12.37671875 11.58296875 12.33546875 12.73046875 12.29296875 C12.40046875 12.95296875 12.07046875 13.61296875 11.73046875 14.29296875 C8.41796875 15.16796875 8.41796875 15.16796875 4.73046875 15.29296875 C2.29296875 13.35546875 2.29296875 13.35546875 0.73046875 11.29296875 C0.40046875 12.28296875 0.07046875 13.27296875 -0.26953125 14.29296875 C-3.13150993 14.92357422 -5.38171384 15.40506517 -8.26953125 15.29296875 C-11.26953125 13.29296875 -11.26953125 13.29296875 -13.26953125 10.29296875 C-13.89453125 6.73046875 -13.89453125 6.73046875 -13.26953125 3.29296875 C-9.5983217 -1.77076857 -5.5822458 -0.76087291 0 0 Z " fill="#F1F2EF" transform="translate(167.26953125,276.70703125)"/>
<path d="M0 0 C1.98 0 3.96 0 6 0 C6.66 0.66 7.32 1.32 8 2 C8.99 1.34 9.98 0.68 11 0 C13.6875 -0.125 13.6875 -0.125 16 0 C15.67 2.31 15.34 4.62 15 7 C12.69 7.66 10.38 8.32 8 9 C7.67 14.28 7.34 19.56 7 25 C4.69 25 2.38 25 0 25 C0 16.75 0 8.5 0 0 Z " fill="#3D3D45" transform="translate(297,343)"/>
<path d="M0 0 C1.98 0 3.96 0 6 0 C6 0.99 6 1.98 6 3 C6.721875 2.505 7.44375 2.01 8.1875 1.5 C11.14848659 -0.07919285 12.71253029 -0.28178312 16 0 C16 1.98 16 3.96 16 6 C13.36 6.99 10.72 7.98 8 9 C7.67 14.28 7.34 19.56 7 25 C4.69 25 2.38 25 0 25 C0 16.75 0 8.5 0 0 Z " fill="#32669F" transform="translate(304,99)"/>
<path d="M0 0 C0.99 0 1.98 0 3 0 C3 7.59 3 15.18 3 23 C1.68 22.67 0.36 22.34 -1 22 C-2.010625 22.185625 -3.02125 22.37125 -4.0625 22.5625 C-7 23 -7 23 -10 21 C-11.19754817 17.40735548 -11.33094958 14.77282526 -11 11 C-9.3125 8.5625 -9.3125 8.5625 -7 7 C-4.3125 6.6875 -4.3125 6.6875 -2 7 C-1.67 7.33 -1.34 7.66 -1 8 C-0.67 5.36 -0.34 2.72 0 0 Z " fill="#34272A" transform="translate(427,269)"/>
<path d="M0 0 C0.66 0 1.32 0 2 0 C2 0.66 2 1.32 2 2 C2.53625 1.649375 3.0725 1.29875 3.625 0.9375 C6.80703406 -0.31856608 8.74212952 0.07929747 12 1 C14.5166597 4.77498955 14.14943772 6.5631637 13.53515625 10.8984375 C13 13 13 13 11.3125 15.125 C8.23258428 16.29037352 6.14847026 15.78711756 3 15 C3 16.98 3 18.96 3 21 C2.01 21 1.02 21 0 21 C0 14.07 0 7.14 0 0 Z " fill="#37232C" transform="translate(348,276)"/>
<path d="M0 0 C2.64 0 5.28 0 8 0 C8 8.25 8 16.5 8 25 C5.36 25 2.72 25 0 25 C0 16.75 0 8.5 0 0 Z " fill="#4173A7" transform="translate(478,99)"/>
<path d="M0 0 C1.9375 1.0625 1.9375 1.0625 3 3 C3.39309578 6.09562931 3.62338668 8.04336605 3 11 C0.9375 13.5625 0.9375 13.5625 -2 15 C-5.625 15.0625 -5.625 15.0625 -9 14 C-11.79612568 11.02911646 -12.00789609 9.45797334 -11.9375 5.375 C-11 2 -11 2 -9.375 0 C-5.91616747 -1.45635054 -3.58701629 -0.91305869 0 0 Z " fill="#311E2B" transform="translate(514,277)"/>
<path d="M0 0 C1.8125 1.0625 1.8125 1.0625 3 3 C3.98586223 6.80261145 4.29822018 9.14261699 3 12.875 C1 15 1 15 -2.375 16.125 C-6 16 -6 16 -8.9375 14 C-11.50331836 10.26790056 -11.80740332 8.44071826 -11 4 C-7.68164378 0.19365022 -4.97969683 -0.75777995 0 0 Z " fill="#242E45" transform="translate(315,276)"/>
<path d="M0 0 C1.8125 1.0625 1.8125 1.0625 3 3 C3.98586223 6.80261145 4.29822018 9.14261699 3 12.875 C1 15 1 15 -2.375 16.125 C-6 16 -6 16 -8.9375 14 C-11.50331836 10.26790056 -11.80740332 8.44071826 -11 4 C-7.68164378 0.19365022 -4.97969683 -0.75777995 0 0 Z " fill="#242E45" transform="translate(301,33)"/>
<path d="M0 0 C2.31 0 4.62 0 7 0 C7 8.25 7 16.5 7 25 C4.69 25 2.38 25 0 25 C0 16.75 0 8.5 0 0 Z " fill="#474140" transform="translate(438,343)"/>
<path d="M0 0 C2.31 0 4.62 0 7 0 C7 8.25 7 16.5 7 25 C4.69 25 2.38 25 0 25 C0 16.75 0 8.5 0 0 Z " fill="#474140" transform="translate(150,343)"/>
<path d="M0 0 C1.32 0.33 2.64 0.66 4 1 C5.2684375 0.7215625 5.2684375 0.7215625 6.5625 0.4375 C9 0 9 0 12 2 C12.66 1.34 13.32 0.68 14 0 C19.56818182 0.56818182 19.56818182 0.56818182 21 2 C21.07271741 4.35313555 21.08370868 6.70833668 21.0625 9.0625 C21.05347656 10.35285156 21.04445313 11.64320313 21.03515625 12.97265625 C21.02355469 13.97167969 21.01195312 14.97070312 21 16 C20.34 16 19.68 16 19 16 C18.505 9.565 18.505 9.565 18 3 C16.35 3.33 14.7 3.66 13 4 C12.67 7.96 12.34 11.92 12 16 C11.34 16 10.68 16 10 16 C10 11.71 10 7.42 10 3 C8.35 3 6.7 3 5 3 C3.18884044 4.81115956 3.61800552 7.61278227 3.4375 10.0625 C3.31181641 11.71958984 3.31181641 11.71958984 3.18359375 13.41015625 C3.12300781 14.26480469 3.06242187 15.11945313 3 16 C2.01 16 1.02 16 0 16 C0 10.72 0 5.44 0 0 Z " fill="#342B35" transform="translate(322,276)"/>
<path d="M0 0 C3.3125 1 3.3125 1 5.3125 4 C5.3125 5.32 5.3125 6.64 5.3125 8 C1.6825 8 -1.9475 8 -5.6875 8 C-5.0275 9.65 -4.3675 11.3 -3.6875 13 C-1.0475 13 1.5925 13 4.3125 13 C4.3125 13.66 4.3125 14.32 4.3125 15 C1.4499819 15.63072433 -0.79919279 16.11745427 -3.6875 16 C-7.17054057 13.60540961 -8.4482855 12.14822958 -9.3125 8 C-8.17095136 2.52056654 -5.63238171 0 0 0 Z " fill="#292229" transform="translate(408.6875,276)"/>
<path d="M0 0 C3.3125 1 3.3125 1 5.3125 4 C5.3125 5.32 5.3125 6.64 5.3125 8 C1.6825 8 -1.9475 8 -5.6875 8 C-5.0275 9.65 -4.3675 11.3 -3.6875 13 C-1.0475 13 1.5925 13 4.3125 13 C4.3125 13.66 4.3125 14.32 4.3125 15 C1.4499819 15.63072433 -0.79919279 16.11745427 -3.6875 16 C-7.17054057 13.60540961 -8.4482855 12.14822958 -9.3125 8 C-8.17095136 2.52056654 -5.63238171 0 0 0 Z " fill="#292229" transform="translate(334.6875,33)"/>
<path d="M0 0 C3.26597819 1.13599241 4.27288761 1.97378771 5.875 5 C5.875 5.99 5.875 6.98 5.875 8 C2.245 8 -1.385 8 -5.125 8 C-4.465 9.65 -3.805 11.3 -3.125 13 C-0.485 13 2.155 13 4.875 13 C4.545 13.66 4.215 14.32 3.875 15 C0.625 15.9375 0.625 15.9375 -3.125 16 C-6.0625 14 -6.0625 14 -8.125 11 C-8.75 7.4375 -8.75 7.4375 -8.125 4 C-5.45946825 0.86408029 -4.13747529 0 0 0 Z " fill="#1C2131" transform="translate(381.125,276)"/>
<path d="M0 0 C2.875 0.8125 2.875 0.8125 4.875 2.8125 C5.0703125 5.8515625 5.0703125 5.8515625 5 9.4375 C4.98195313 10.62601562 4.96390625 11.81453125 4.9453125 13.0390625 C4.92210938 13.95429688 4.89890625 14.86953125 4.875 15.8125 C4.215 15.8125 3.555 15.8125 2.875 15.8125 C2.875 15.1525 2.875 14.4925 2.875 13.8125 C2.318125 14.163125 1.76125 14.51375 1.1875 14.875 C-1.68425711 16.03922585 -3.19633328 15.6831847 -6.125 14.8125 C-7.125 13.8125 -7.125 13.8125 -7.1875 11.25 C-7.166875 10.445625 -7.14625 9.64125 -7.125 8.8125 C-3.75402617 7.31428941 -1.92057881 6.8125 1.875 6.8125 C1.545 5.4925 1.215 4.1725 0.875 2.8125 C-1.765 2.8125 -4.405 2.8125 -7.125 2.8125 C-4.57630895 0.36183553 -3.6094771 -0.21656863 0 0 Z " fill="#29110E" transform="translate(96.125,276.1875)"/>
<path d="M0 0 C2 2 2 2 2 7 C-1.63 7 -5.26 7 -9 7 C-8.08216876 9.6450037 -8.08216876 9.6450037 -6 12 C-3.20625708 12.46837899 -0.85778964 12.23424505 2 12 C1.67 12.66 1.34 13.32 1 14 C-2.98555167 15.07303314 -5.15634589 15.39490192 -8.9375 13.625 C-11.544935 10.30644637 -11.67278304 8.19912645 -11.4140625 4.06640625 C-11 2 -11 2 -9.4375 -0.125 C-5.98160125 -1.36557904 -3.52798477 -0.84932967 0 0 Z " fill="#18141D" transform="translate(574,277)"/>
<path d="M0 0 C2 2 2 2 2 7 C-1.63 7 -5.26 7 -9 7 C-8.08216876 9.6450037 -8.08216876 9.6450037 -6 12 C-3.20625708 12.46837899 -0.85778964 12.23424505 2 12 C1.67 12.66 1.34 13.32 1 14 C-2.98555167 15.07303314 -5.15634589 15.39490192 -8.9375 13.625 C-11.544935 10.30644637 -11.67278304 8.19912645 -11.4140625 4.06640625 C-11 2 -11 2 -9.4375 -0.125 C-5.98160125 -1.36557904 -3.52798477 -0.84932967 0 0 Z " fill="#18141D" transform="translate(479,277)"/>
<path d="M0 0 C2 2 2 2 2 7 C-1.63 7 -5.26 7 -9 7 C-8.08216876 9.6450037 -8.08216876 9.6450037 -6 12 C-3.20625708 12.46837899 -0.85778964 12.23424505 2 12 C1.67 12.66 1.34 13.32 1 14 C-2.98555167 15.07303314 -5.15634589 15.39490192 -8.9375 13.625 C-11.544935 10.30644637 -11.67278304 8.19912645 -11.4140625 4.06640625 C-11 2 -11 2 -9.4375 -0.125 C-5.98160125 -1.36557904 -3.52798477 -0.84932967 0 0 Z " fill="#18141D" transform="translate(193,277)"/>
<path d="M0 0 C1 1 1 1 1.09765625 4.16015625 C1.08605469 5.44792969 1.07445312 6.73570313 1.0625 8.0625 C1.05347656 9.35285156 1.04445313 10.64320312 1.03515625 11.97265625 C1.02355469 12.97167969 1.01195312 13.97070312 1 15 C0.01 14.67 -0.98 14.34 -2 14 C-2.99 14.185625 -3.98 14.37125 -5 14.5625 C-8 15 -8 15 -11 13 C-10.6875 10.625 -10.6875 10.625 -10 8 C-6.5647952 5.70986347 -5.014669 5.82157027 -1 6 C-1 4.68 -1 3.36 -1 2 C-3.97 2 -6.94 2 -10 2 C-7.86862515 -2.2627497 -3.93649859 -0.85576056 0 0 Z " fill="#291C1D" transform="translate(446,34)"/>
<path d="M0 0 C2.375 0.75 2.375 0.75 3.375 1.75 C3.52591913 3.55812724 3.59669008 5.37330617 3.625 7.1875 C3.66367187 8.67056641 3.66367187 8.67056641 3.703125 10.18359375 C3.59484375 11.03050781 3.4865625 11.87742187 3.375 12.75 C0.375 14.75 0.375 14.75 -2.25 14.4375 C-4.625 13.75 -4.625 13.75 -5.625 12.75 C-5.828125 10.5703125 -5.828125 10.5703125 -5.875 7.875 C-5.90078125 6.99070312 -5.9265625 6.10640625 -5.953125 5.1953125 C-5.625 2.75 -5.625 2.75 -4.2734375 0.9140625 C-2.625 -0.25 -2.625 -0.25 0 0 Z " fill="#EFEFEA" transform="translate(373.625,348.25)"/>
<path d="M0 0 C6.34507042 -0.35915493 6.34507042 -0.35915493 8.9375 1.0625 C10.6140629 4.11976176 10.36528977 6.5906288 10 10 C8.9375 11.9375 8.9375 11.9375 7 13 C3.3125 13.1875 3.3125 13.1875 0 13 C0 8.71 0 4.42 0 0 Z " fill="#F0F3EF" transform="translate(577,338)"/>
<path d="M0 0 C6.34507042 -0.35915493 6.34507042 -0.35915493 8.9375 1.0625 C10.6140629 4.11976176 10.36528977 6.5906288 10 10 C8.9375 11.9375 8.9375 11.9375 7 13 C3.3125 13.1875 3.3125 13.1875 0 13 C0 8.71 0 4.42 0 0 Z " fill="#F0F4F5" transform="translate(412,94)"/>
<path d="M0 0 C2.375 0.6875 2.375 0.6875 3.375 1.6875 C3.82062911 5.91240676 4.05136067 9.53205052 1.875 13.25 C1.38 13.724375 0.885 14.19875 0.375 14.6875 C-4.5 13.8125 -4.5 13.8125 -5.625 12.6875 C-5.77591913 10.87937276 -5.84669008 9.06419383 -5.875 7.25 C-5.90078125 6.26128906 -5.9265625 5.27257812 -5.953125 4.25390625 C-5.84484375 3.40699219 -5.7365625 2.56007813 -5.625 1.6875 C-2.625 -0.3125 -2.625 -0.3125 0 0 Z " fill="#EBF1F4" transform="translate(288.625,104.3125)"/>
<path d="M0 0 C2.375 0.6875 2.375 0.6875 3.375 1.6875 C3.82062911 5.91240676 4.05136067 9.53205052 1.875 13.25 C1.38 13.724375 0.885 14.19875 0.375 14.6875 C-4.5 13.8125 -4.5 13.8125 -5.625 12.6875 C-5.77591913 10.87937276 -5.84669008 9.06419383 -5.875 7.25 C-5.90078125 6.26128906 -5.9265625 5.27257812 -5.953125 4.25390625 C-5.84484375 3.40699219 -5.7365625 2.56007813 -5.625 1.6875 C-2.625 -0.3125 -2.625 -0.3125 0 0 Z " fill="#EBF1F4" transform="translate(235.625,104.3125)"/>
<path d="M0 0 C0.99 0 1.98 0 3 0 C3.33 2.64 3.66 5.28 4 8 C4.928125 7.79375 5.85625 7.5875 6.8125 7.375 C10 7 10 7 13 9 C13.29296875 12.2578125 13.29296875 12.2578125 13.1875 16.125 C13.16042969 17.40632813 13.13335937 18.68765625 13.10546875 20.0078125 C13.07066406 20.99523437 13.03585937 21.98265625 13 23 C12.34 23 11.68 23 11 23 C10.67 19.04 10.34 15.08 10 11 C8.35 10.67 6.7 10.34 5 10 C3.18884044 11.81115956 3.61800552 14.61278227 3.4375 17.0625 C3.35371094 18.16722656 3.26992188 19.27195312 3.18359375 20.41015625 C3.12300781 21.26480469 3.06242187 22.11945313 3 23 C2.01 23 1.02 23 0 23 C0 15.41 0 7.82 0 0 Z " fill="#49363C" transform="translate(451,269)"/>
<path d="M0 0 C0.99 0 1.98 0 3 0 C3.33 2.64 3.66 5.28 4 8 C4.928125 7.79375 5.85625 7.5875 6.8125 7.375 C10 7 10 7 13 9 C13.29296875 12.2578125 13.29296875 12.2578125 13.1875 16.125 C13.16042969 17.40632813 13.13335937 18.68765625 13.10546875 20.0078125 C13.07066406 20.99523437 13.03585938 21.98265625 13 23 C12.34 23 11.68 23 11 23 C10.67 19.04 10.34 15.08 10 11 C8.35 10.67 6.7 10.34 5 10 C3.18884044 11.81115956 3.61800552 14.61278227 3.4375 17.0625 C3.35371094 18.16722656 3.26992187 19.27195312 3.18359375 20.41015625 C3.12300781 21.26480469 3.06242187 22.11945313 3 23 C2.01 23 1.02 23 0 23 C0 15.41 0 7.82 0 0 Z " fill="#49363C" transform="translate(72,269)"/>
<path d="M0 0 C0.99 0 1.98 0 3 0 C3.33 4.29 3.66 8.58 4 13 C5.98 13 7.96 13 10 13 C10 8.71 10 4.42 10 0 C10.99 0 11.98 0 13 0 C13 5.28 13 10.56 13 16 C11.68 16 10.36 16 9 16 C7.989375 16.0825 6.97875 16.165 5.9375 16.25 C3 16 3 16 1.328125 14.375 C-0.37867453 11.32284084 -0.3007881 9.2241685 -0.1875 5.75 C-0.14689453 4.13351562 -0.14689453 4.13351562 -0.10546875 2.484375 C-0.07066406 1.66453125 -0.03585938 0.8446875 0 0 Z " fill="#432F33" transform="translate(137,276)"/>
<path d="M0 0 C0.99 0 1.98 0 3 0 C3.33 4.29 3.66 8.58 4 13 C5.98 13 7.96 13 10 13 C10 8.71 10 4.42 10 0 C10.99 0 11.98 0 13 0 C13 5.28 13 10.56 13 16 C12.34 16 11.68 16 11 16 C11 15.34 11 14.68 11 14 C10.443125 14.350625 9.88625 14.70125 9.3125 15.0625 C6.3979332 16.24408113 4.95034182 16.00932746 2 15 C-0.35119399 11.47320901 -0.21443452 9.97120515 -0.125 5.8125 C-0.10695313 4.72582031 -0.08890625 3.63914062 -0.0703125 2.51953125 C-0.04710937 1.68808594 -0.02390625 0.85664063 0 0 Z " fill="#25293C" transform="translate(520,276)"/>
<path d="M0 0 C2.5 0.25 2.5 0.25 4.5 2.25 C4.765625 4.125 4.765625 4.125 4.75 6.25 C4.75515625 6.95125 4.7603125 7.6525 4.765625 8.375 C4.5 10.25 4.5 10.25 2.5 12.25 C0 12.5625 0 12.5625 -2.5 12.25 C-4.94897847 8.57653229 -4.81537716 6.58643601 -4.5 2.25 C-2.5 0.25 -2.5 0.25 0 0 Z " fill="#EFF4F1" transform="translate(509.5,277.75)"/>
<path d="M0 0 C5.56818182 0.56818182 5.56818182 0.56818182 7 2 C7.37086093 7.8410596 7.37086093 7.8410596 7 10 C4 12 4 12 1.375 11.6875 C-1 11 -1 11 -2 10 C-2.27314815 4.26388889 -2.27314815 4.26388889 -2 2 C-1.34 1.34 -0.68 0.68 0 0 Z " fill="#F4F3EC" transform="translate(309,278)"/>
<path d="M0 0 C5.56818182 0.56818182 5.56818182 0.56818182 7 2 C7.37086093 7.8410596 7.37086093 7.8410596 7 10 C4 12 4 12 1.375 11.6875 C-1 11 -1 11 -2 10 C-2.27314815 4.26388889 -2.27314815 4.26388889 -2 2 C-1.34 1.34 -0.68 0.68 0 0 Z " fill="#F4F3EC" transform="translate(295,35)"/>
<path d="M0 0 C5.61 0 11.22 0 17 0 C17 0.66 17 1.32 17 2 C14.69 2 12.38 2 10 2 C10 8.6 10 15.2 10 22 C9.01 22 8.02 22 7 22 C7 15.4 7 8.8 7 2 C4.69 2 2.38 2 0 2 C0 1.34 0 0.68 0 0 Z " fill="#261426" transform="translate(186,27)"/>
<path d="M0 0 C0.66 0 1.32 0 2 0 C2.33 3.96 2.66 7.92 3 12 C4.65 12.33 6.3 12.66 8 13 C9.81115956 11.18884044 9.38199448 8.38721773 9.5625 5.9375 C9.64628906 4.83277344 9.73007813 3.72804688 9.81640625 2.58984375 C9.87699219 1.73519531 9.93757812 0.88054687 10 0 C10.99 0 11.98 0 13 0 C13 5.28 13 10.56 13 16 C11.68 15.67 10.36 15.34 9 15 C7.989375 15.20625 6.97875 15.4125 5.9375 15.625 C3 16 3 16 1.328125 14.94140625 C-0.63442572 12.07261888 -0.28936062 9.74180739 -0.1875 6.3125 C-0.16042969 5.13300781 -0.13335937 3.95351563 -0.10546875 2.73828125 C-0.07066406 1.83464844 -0.03585938 0.93101562 0 0 Z " fill="#232838" transform="translate(236,276)"/>
<path d="M0 0 C1.890625 0.24609375 1.890625 0.24609375 4 1 C5.046875 2.84765625 5.046875 2.84765625 5.75 5.0625 C5.99234375 5.79597656 6.2346875 6.52945313 6.484375 7.28515625 C6.65453125 7.85105469 6.8246875 8.41695312 7 9 C9.32472205 6.14693203 10.7508258 3.45925163 12 0 C12.99 0.33 13.98 0.66 15 1 C13.74699312 4.15322989 12.46968518 7.29603402 11.1875 10.4375 C10.65286133 11.78424805 10.65286133 11.78424805 10.10742188 13.15820312 C9.75615234 14.01220703 9.40488281 14.86621094 9.04296875 15.74609375 C8.72352295 16.53685303 8.40407715 17.3276123 8.07495117 18.14233398 C7 20 7 20 4 21 C4.11859375 20.45472656 4.2371875 19.90945312 4.359375 19.34765625 C5.49024402 12.7320725 4.02805785 8.84485586 1 3 C0.67 2.01 0.34 1.02 0 0 Z " fill="#2F2231" transform="translate(384,33)"/>
<path d="M0 0 C3.125 0.375 3.125 0.375 6 1 C6.05399736 2.45792884 6.09279177 3.91642712 6.125 5.375 C6.14820313 6.18710937 6.17140625 6.99921875 6.1953125 7.8359375 C6 10 6 10 4 12 C1.4375 12.1875 1.4375 12.1875 -1 12 C-2.58894072 10.41105928 -2.16998411 8.75198576 -2.1875 6.5625 C-2.20167969 5.75941406 -2.21585937 4.95632813 -2.23046875 4.12890625 C-2 2 -2 2 0 0 Z " fill="#F1F2ED" transform="translate(421,278)"/>
<path d="M0 0 C4.55555556 0.55555556 4.55555556 0.55555556 6 2 C6.27314815 7.73611111 6.27314815 7.73611111 6 10 C4 12 4 12 1.4375 12.1875 C-1 12 -1 12 -2 11 C-2.16796875 9.00390625 -2.16796875 9.00390625 -2.1875 6.5625 C-2.20167969 5.75941406 -2.21585937 4.95632813 -2.23046875 4.12890625 C-2 2 -2 2 0 0 Z " fill="#F5F2EA" transform="translate(353,278)"/>
<path d="M0 0 C3 1 3 1 4.16796875 3.06640625 C5.11197917 5.37760417 6.05598958 7.68880208 7 10 C8.65 6.7 10.3 3.4 12 0 C12.66 0 13.32 0 14 0 C11.72564796 7.18216433 8.96415819 14.0758202 6 21 C5.01 21 4.02 21 3 21 C3.4125 20.01 3.825 19.02 4.25 18 C5.23642147 14.6325612 4.83738768 13.00664591 3.1875 9.9375 C2.80464844 9.27621094 2.42179687 8.61492187 2.02734375 7.93359375 C0.66161057 5.36310735 0.28749879 2.87498791 0 0 Z " fill="#2E1E28" transform="translate(269,276)"/>
<path d="M0 0 C1.32 0 2.64 0 4 0 C4 0.66 4 1.32 4 2 C3.01 2.33 2.02 2.66 1 3 C0.67 3.99 0.34 4.98 0 6 C1.32 6 2.64 6 4 6 C4 6.66 4 7.32 4 8 C2.68 8 1.36 8 0 8 C0 12.62 0 17.24 0 22 C-0.99 22 -1.98 22 -3 22 C-3 17.38 -3 12.76 -3 8 C-3.66 8 -4.32 8 -5 8 C-5 7.34 -5 6.68 -5 6 C-4.34 6 -3.68 6 -3 6 C-2.87625 5.38125 -2.7525 4.7625 -2.625 4.125 C-2 2 -2 2 0 0 Z " fill="#2F202F" transform="translate(229,270)"/>
<path d="M0 0 C1.32 0 2.64 0 4 0 C4 0.66 4 1.32 4 2 C3.01 2.33 2.02 2.66 1 3 C0.67 3.99 0.34 4.98 0 6 C1.32 6 2.64 6 4 6 C4 6.66 4 7.32 4 8 C2.68 8 1.36 8 0 8 C0 12.62 0 17.24 0 22 C-0.99 22 -1.98 22 -3 22 C-3 17.38 -3 12.76 -3 8 C-3.66 8 -4.32 8 -5 8 C-5 7.34 -5 6.68 -5 6 C-4.34 6 -3.68 6 -3 6 C-2.87625 5.38125 -2.7525 4.7625 -2.625 4.125 C-2 2 -2 2 0 0 Z " fill="#2F202F" transform="translate(379,27)"/>
<path d="M0 0 C0.99 0 1.98 0 3 0 C3 1.65 3 3.3 3 5 C4.32 5 5.64 5 7 5 C7 5.66 7 6.32 7 7 C5.68 7 4.36 7 3 7 C3 10.96 3 14.92 3 19 C4.32 19.33 5.64 19.66 7 20 C4.625 20.625 4.625 20.625 2 21 C0 19 0 19 -0.1953125 16.1796875 C-0.17210937 15.08914062 -0.14890625 13.99859375 -0.125 12.875 C-0.10695313 11.77929688 -0.08890625 10.68359375 -0.0703125 9.5546875 C-0.04710937 8.71164063 -0.02390625 7.86859375 0 7 C-0.66 7 -1.32 7 -2 7 C-2 6.34 -2 5.68 -2 5 C-1.34 5 -0.68 5 0 5 C0 3.35 0 1.7 0 0 Z " fill="#283E55" transform="translate(356,28)"/>
<path d="M0 0 C0.99 0 1.98 0 3 0 C3 1.65 3 3.3 3 5 C4.32 5 5.64 5 7 5 C7 5.66 7 6.32 7 7 C5.68 7 4.36 7 3 7 C3 10.96 3 14.92 3 19 C4.32 19.33 5.64 19.66 7 20 C4.625 20.625 4.625 20.625 2 21 C0 19 0 19 -0.1953125 16.1796875 C-0.17210937 15.08914062 -0.14890625 13.99859375 -0.125 12.875 C-0.10695313 11.77929688 -0.08890625 10.68359375 -0.0703125 9.5546875 C-0.04710937 8.71164063 -0.02390625 7.86859375 0 7 C-0.66 7 -1.32 7 -2 7 C-2 6.34 -2 5.68 -2 5 C-1.34 5 -0.68 5 0 5 C0 3.35 0 1.7 0 0 Z " fill="#283E55" transform="translate(280,28)"/>
<path d="M0 0 C0.66 0 1.32 0 2 0 C2 1.65 2 3.3 2 5 C3.32 5 4.64 5 6 5 C6 5.66 6 6.32 6 7 C4.68 7 3.36 7 2 7 C2 10.96 2 14.92 2 19 C3.65 19 5.3 19 7 19 C6.34 19.66 5.68 20.32 5 21 C2.4375 20.75 2.4375 20.75 0 20 C-1.32229189 17.35541621 -1.09677194 15.32238699 -1.0625 12.375 C-1.05347656 11.37210937 -1.04445313 10.36921875 -1.03515625 9.3359375 C-1.01775391 8.17964844 -1.01775391 8.17964844 -1 7 C-1.66 7 -2.32 7 -3 7 C-3 6.34 -3 5.68 -3 5 C-2.01 5 -1.02 5 0 5 C0 3.35 0 1.7 0 0 Z " fill="#2B1E2D" transform="translate(441,271)"/>
<path d="M0 0 C0.66 0 1.32 0 2 0 C2 1.65 2 3.3 2 5 C3.32 5 4.64 5 6 5 C6 5.66 6 6.32 6 7 C4.68 7 3.36 7 2 7 C2 10.96 2 14.92 2 19 C3.65 19 5.3 19 7 19 C6.34 19.66 5.68 20.32 5 21 C2.4375 20.75 2.4375 20.75 0 20 C-1.32229189 17.35541621 -1.09677194 15.32238699 -1.0625 12.375 C-1.05347656 11.37210937 -1.04445313 10.36921875 -1.03515625 9.3359375 C-1.01775391 8.17964844 -1.01775391 8.17964844 -1 7 C-1.66 7 -2.32 7 -3 7 C-3 6.34 -3 5.68 -3 5 C-2.01 5 -1.02 5 0 5 C0 3.35 0 1.7 0 0 Z " fill="#2B1E2D" transform="translate(391,271)"/>
<path d="M0 0 C0.66 0 1.32 0 2 0 C2 1.65 2 3.3 2 5 C3.32 5 4.64 5 6 5 C6 5.66 6 6.32 6 7 C4.68 7 3.36 7 2 7 C2 10.96 2 14.92 2 19 C3.65 19 5.3 19 7 19 C6.34 19.66 5.68 20.32 5 21 C2.4375 20.75 2.4375 20.75 0 20 C-1.32229189 17.35541621 -1.09677194 15.32238699 -1.0625 12.375 C-1.05347656 11.37210938 -1.04445313 10.36921875 -1.03515625 9.3359375 C-1.01775391 8.17964844 -1.01775391 8.17964844 -1 7 C-1.66 7 -2.32 7 -3 7 C-3 6.34 -3 5.68 -3 5 C-2.01 5 -1.02 5 0 5 C0 3.35 0 1.7 0 0 Z " fill="#2B1E2D" transform="translate(453,28)"/>
<path d="M0 0 C0 0.66 0 1.32 0 2 C-2.31 1.67 -4.62 1.34 -7 1 C-6.96044102 2.92309422 -6.96044102 2.92309422 -6 5 C-5.01 5.495 -4.02 5.99 -3 6.5 C0 8 0 8 0.875 10.1875 C0.936875 11.0846875 0.936875 11.0846875 1 12 C-0.5625 13.5625 -0.5625 13.5625 -3 15 C-6.75 14.6875 -6.75 14.6875 -10 14 C-10 13.34 -10 12.68 -10 12 C-7.69 12 -5.38 12 -3 12 C-3 11.01 -3 10.02 -3 9 C-3.969375 8.5875 -4.93875 8.175 -5.9375 7.75 C-9 6 -9 6 -10.0625 4 C-10 2 -10 2 -9 0.1875 C-5.90521904 -1.6500262 -3.40384837 -0.7064591 0 0 Z " fill="#2C252D" transform="translate(221,277)"/>
<path d="M0 0 C0 0.66 0 1.32 0 2 C-2.31 1.67 -4.62 1.34 -7 1 C-6.96044102 2.92309422 -6.96044102 2.92309422 -6 5 C-5.01 5.495 -4.02 5.99 -3 6.5 C0 8 0 8 0.875 10.1875 C0.936875 11.0846875 0.936875 11.0846875 1 12 C-0.5625 13.5625 -0.5625 13.5625 -3 15 C-6.75 14.6875 -6.75 14.6875 -10 14 C-10 13.34 -10 12.68 -10 12 C-7.69 12 -5.38 12 -3 12 C-3 11.01 -3 10.02 -3 9 C-3.969375 8.5875 -4.93875 8.175 -5.9375 7.75 C-9 6 -9 6 -10.0625 4 C-10 2 -10 2 -9 0.1875 C-5.90521904 -1.6500262 -3.40384837 -0.7064591 0 0 Z " fill="#2C252D" transform="translate(207,277)"/>
<path d="M0 0 C0 0.66 0 1.32 0 2 C-2.31 1.67 -4.62 1.34 -7 1 C-6.96044102 2.92309422 -6.96044102 2.92309422 -6 5 C-5.01 5.495 -4.02 5.99 -3 6.5 C0 8 0 8 0.875 10.1875 C0.936875 11.0846875 0.936875 11.0846875 1 12 C-0.5625 13.5625 -0.5625 13.5625 -3 15 C-6.75 14.6875 -6.75 14.6875 -10 14 C-10 13.34 -10 12.68 -10 12 C-7.69 12 -5.38 12 -3 12 C-3 11.01 -3 10.02 -3 9 C-3.969375 8.5875 -4.93875 8.175 -5.9375 7.75 C-9 6 -9 6 -10.0625 4 C-10 2 -10 2 -9 0.1875 C-5.90521904 -1.6500262 -3.40384837 -0.7064591 0 0 Z " fill="#2C252D" transform="translate(133,277)"/>
<path d="M0 0 C0 0.66 0 1.32 0 2 C-2.31 1.67 -4.62 1.34 -7 1 C-6.96044102 2.92309422 -6.96044102 2.92309422 -6 5 C-5.01 5.495 -4.02 5.99 -3 6.5 C0 8 0 8 0.875 10.1875 C0.936875 11.0846875 0.936875 11.0846875 1 12 C-0.5625 13.5625 -0.5625 13.5625 -3 15 C-6.75 14.6875 -6.75 14.6875 -10 14 C-10 13.34 -10 12.68 -10 12 C-7.69 12 -5.38 12 -3 12 C-3 11.01 -3 10.02 -3 9 C-3.969375 8.5875 -4.93875 8.175 -5.9375 7.75 C-9 6 -9 6 -10.0625 4 C-10 2 -10 2 -9 0.1875 C-5.90521904 -1.6500262 -3.40384837 -0.7064591 0 0 Z " fill="#2C252D" transform="translate(269,34)"/>
<path d="M0 0 C0.66 0 1.32 0 2 0 C2 1.65 2 3.3 2 5 C3.65 5 5.3 5 7 5 C7 5.66 7 6.32 7 7 C5.35 7 3.7 7 2 7 C2 10.63 2 14.26 2 18 C3.65 18 5.3 18 7 18 C7 18.66 7 19.32 7 20 C5.0085944 20.38133299 3.00720923 20.71325582 1 21 C0 20 0 20 -0.09765625 17.05859375 C-0.08605469 15.86363281 -0.07445312 14.66867188 -0.0625 13.4375 C-0.05347656 12.23996094 -0.04445313 11.04242188 -0.03515625 9.80859375 C-0.02355469 8.88175781 -0.01195312 7.95492187 0 7 C-0.99 7 -1.98 7 -3 7 C-3 6.34 -3 5.68 -3 5 C-2.01 5 -1.02 5 0 5 C0 3.35 0 1.7 0 0 Z " fill="#1E1521" transform="translate(408,28)"/>
<path d="M0 0 C0 0.66 0 1.32 0 2 C-2.31 1.67 -4.62 1.34 -7 1 C-6.96044102 2.92309422 -6.96044102 2.92309422 -6 5 C-5.01 5.495 -4.02 5.99 -3 6.5 C0 8 0 8 0.875 10.1875 C0.936875 11.0846875 0.936875 11.0846875 1 12 C-0.5625 13.5625 -0.5625 13.5625 -3 15 C-6.75 14.6875 -6.75 14.6875 -10 14 C-10 13.34 -10 12.68 -10 12 C-7.69 12 -5.38 12 -3 12 C-3 11.01 -3 10.02 -3 9 C-3.969375 8.5875 -4.93875 8.175 -5.9375 7.75 C-9 6 -9 6 -10.0625 4 C-10 2 -10 2 -9 0.1875 C-5.90521904 -1.6500262 -3.40384837 -0.7064591 0 0 Z " fill="#282127" transform="translate(114,277)"/>
<path d="M0 0 C0.99 0 1.98 0 3 0 C3 7.59 3 15.18 3 23 C2.01 23 1.02 23 0 23 C0 15.41 0 7.82 0 0 Z " fill="#3E2637" transform="translate(262,269)"/>
<path d="M0 0 C1.5778125 0.4021875 1.5778125 0.4021875 3.1875 0.8125 C3.1875 1.4725 3.1875 2.1325 3.1875 2.8125 C2.053125 2.791875 0.91875 2.77125 -0.25 2.75 C-3.62825674 2.39672523 -3.62825674 2.39672523 -4.8125 3.8125 C-5.11773962 8.46338715 -5.11773962 8.46338715 -3.8125 12.8125 C-1.5025 12.8125 0.8075 12.8125 3.1875 12.8125 C3.1875 13.4725 3.1875 14.1325 3.1875 14.8125 C0 15.625 0 15.625 -3.8125 15.8125 C-7.23514067 13.40936932 -8.58064736 11.92539267 -9.4375 7.8125 C-8.27704079 2.2422958 -5.72852065 -0.28173052 0 0 Z " fill="#31242A" transform="translate(496.8125,276.1875)"/>
<path d="M0 0 C0 0.66 0 1.32 0 2 C-1.134375 1.979375 -2.26875 1.95875 -3.4375 1.9375 C-6.81575674 1.58422523 -6.81575674 1.58422523 -8 3 C-8.07148199 4.35243917 -8.08399454 5.70834367 -8.0625 7.0625 C-8.041875 8.361875 -8.02125 9.66125 -8 11 C-5.23735711 11.59732819 -2.83967231 12 0 12 C0 12.66 0 13.32 0 14 C-3.1875 14.8125 -3.1875 14.8125 -7 15 C-9.9375 13 -9.9375 13 -12 10 C-12.625 6.4375 -12.625 6.4375 -12 3 C-8.2764518 -1.51339176 -5.47398896 -1.2879974 0 0 Z " fill="#322124" transform="translate(302,277)"/>
<path d="M0 0 C0 0.66 0 1.32 0 2 C-2.31 2 -4.62 2 -7 2 C-7.33 2.99 -7.66 3.98 -8 5 C-6.2984375 5.4640625 -6.2984375 5.4640625 -4.5625 5.9375 C-1 7 -1 7 0 8 C0.25 10.4375 0.25 10.4375 0 13 C-3.8503105 15.56687367 -5.58569763 14.83288724 -10 14 C-10 13.34 -10 12.68 -10 12 C-7.69 12 -5.38 12 -3 12 C-3 11.01 -3 10.02 -3 9 C-4.4540625 8.4121875 -4.4540625 8.4121875 -5.9375 7.8125 C-9 6 -9 6 -9.875 3.3125 C-9.91625 2.549375 -9.9575 1.78625 -10 1 C-6.1496895 -1.56687367 -4.41430237 -0.83288724 0 0 Z " fill="#241E28" transform="translate(559,277)"/>
<path d="M0 0 C0 0.66 0 1.32 0 2 C-0.94875 1.95875 -1.8975 1.9175 -2.875 1.875 C-6.10244856 1.65026182 -6.10244856 1.65026182 -8 4 C-8.33333333 7 -8.33333333 7 -8 10 C-6.04366025 12.41121859 -6.04366025 12.41121859 -2.375 12.125 C-1.26125 12.08375 -0.1475 12.0425 1 12 C0.67 12.66 0.34 13.32 0 14 C-5.97488318 15.57827103 -5.97488318 15.57827103 -9.4375 13.625 C-11.71763142 9.79437922 -11.79741978 6.34881508 -11 2 C-7.97861788 -2.10907968 -4.59200188 -0.97138501 0 0 Z " fill="#2E262C" transform="translate(324,34)"/>
<path d="M0 0 C0 0.66 0 1.32 0 2 C-2.31 2 -4.62 2 -7 2 C-7.33 2.99 -7.66 3.98 -8 5 C-6.2984375 5.4640625 -6.2984375 5.4640625 -4.5625 5.9375 C-1 7 -1 7 0 8 C0.25 10.4375 0.25 10.4375 0 13 C-3.8503105 15.56687367 -5.58569763 14.83288724 -10 14 C-10 13.34 -10 12.68 -10 12 C-7.69 12 -5.38 12 -3 12 C-3 11.01 -3 10.02 -3 9 C-4.4540625 8.4121875 -4.4540625 8.4121875 -5.9375 7.8125 C-9 6 -9 6 -9.875 3.3125 C-9.91625 2.549375 -9.9575 1.78625 -10 1 C-6.1496895 -1.56687367 -4.41430237 -0.83288724 0 0 Z " fill="#241E28" transform="translate(242,34)"/>
<path d="M0 0 C0 0.66 0 1.32 0 2 C-1.134375 1.979375 -2.26875 1.95875 -3.4375 1.9375 C-6.81575674 1.58422523 -6.81575674 1.58422523 -8 3 C-8.16053815 4.87321948 -8.16053815 4.87321948 -8.125 7 C-8.12757813 7.721875 -8.13015625 8.44375 -8.1328125 9.1875 C-8.19695276 11.02089415 -8.19695276 11.02089415 -7 12 C-4.66702567 12.04092937 -2.33294775 12.04241723 0 12 C-1.125 13.5625 -1.125 13.5625 -3 15 C-6.39727068 14.92922353 -8.28421879 14.62034372 -10.875 12.375 C-12.4772351 8.99250368 -12.52771588 6.69401119 -12 3 C-8.2764518 -1.51339176 -5.47398896 -1.2879974 0 0 Z " fill="#2D1A1D" transform="translate(166,277)"/>
<path d="M0 0 C0 0.66 0 1.32 0 2 C-0.94875 1.95875 -1.8975 1.9175 -2.875 1.875 C-6.10244856 1.65026182 -6.10244856 1.65026182 -8 4 C-8.33333333 7 -8.33333333 7 -8 10 C-6.04366025 12.41121859 -6.04366025 12.41121859 -2.375 12.125 C-1.26125 12.08375 -0.1475 12.0425 1 12 C0.67 12.66 0.34 13.32 0 14 C-3.3125 14.875 -3.3125 14.875 -7 15 C-9.4375 13.5625 -9.4375 13.5625 -11 11 C-11.80799014 6.92673013 -11.61175907 4.00328488 -9.4375 0.4375 C-6.01492921 -1.58093918 -3.77265569 -0.87061285 0 0 Z " fill="#2F2327" transform="translate(179,277)"/>
<path d="M0 0 C0.37125 0.598125 0.7425 1.19625 1.125 1.8125 C3.42561008 4.49654509 5.79751065 5.5766714 9 7 C8.67 8.32 8.34 9.64 8 11 C5.69 10.67 3.38 10.34 1 10 C0.67 10.66 0.34 11.32 0 12 C-1.12256131 9.75487738 -1.13413762 8.48543351 -1.125 6 C-1.12886719 4.948125 -1.12886719 4.948125 -1.1328125 3.875 C-1 2 -1 2 0 0 Z " fill="#F7F4EB" transform="translate(103,279)"/>
<path d="M0 0 C4.55555556 0.55555556 4.55555556 0.55555556 6 2 C6.1875 4.4375 6.1875 4.4375 6 7 C5.34 7.66 4.68 8.32 4 9 C-0.55555556 8.44444444 -0.55555556 8.44444444 -2 7 C-2.1875 4.5625 -2.1875 4.5625 -2 2 C-1.34 1.34 -0.68 0.68 0 0 Z " fill="#3368A1" transform="translate(480,88)"/>
<path d="M0 0 C4.55555556 0.55555556 4.55555556 0.55555556 6 2 C6.25 4.4375 6.25 4.4375 6 7 C3 9 3 9 0.875 8.6875 C-1 8 -1 8 -2 7 C-2.1875 4.5625 -2.1875 4.5625 -2 2 C-1.34 1.34 -0.68 0.68 0 0 Z " fill="#3C3D46" transform="translate(440,332)"/>
<path d="M0 0 C4.55555556 0.55555556 4.55555556 0.55555556 6 2 C6.25 4.4375 6.25 4.4375 6 7 C3 9 3 9 0.875 8.6875 C-1 8 -1 8 -2 7 C-2.1875 4.5625 -2.1875 4.5625 -2 2 C-1.34 1.34 -0.68 0.68 0 0 Z " fill="#3C3D46" transform="translate(152,332)"/>
<path d="M0 0 C0.66 0 1.32 0 2 0 C2 0.66 2 1.32 2 2 C2.99 1.34 3.98 0.68 5 0 C6.32 0 7.64 0 9 0 C9 0.66 9 1.32 9 2 C7.35 2.66 5.7 3.32 4 4 C3.67 7.96 3.34 11.92 3 16 C2.01 16 1.02 16 0 16 C0 10.72 0 5.44 0 0 Z " fill="#352D3C" transform="translate(343,33)"/>
<path d="M0 0 C2.875 0.3125 2.875 0.3125 6 1 C8.35119399 4.52679099 8.21443452 6.02879485 8.125 10.1875 C8.10695313 11.27417969 8.08890625 12.36085938 8.0703125 13.48046875 C8.03550781 14.72763672 8.03550781 14.72763672 8 16 C7.01 16 6.02 16 5 16 C5 11.71 5 7.42 5 3 C2.03 2.505 2.03 2.505 -1 2 C-0.67 1.34 -0.34 0.68 0 0 Z " fill="#262C40" transform="translate(424,33)"/>
<path d="M0 0 C2.875 0.3125 2.875 0.3125 6 1 C8.35119399 4.52679099 8.21443452 6.02879485 8.125 10.1875 C8.10695312 11.27417969 8.08890625 12.36085938 8.0703125 13.48046875 C8.03550781 14.72763672 8.03550781 14.72763672 8 16 C7.01 16 6.02 16 5 16 C5 11.71 5 7.42 5 3 C2.03 2.505 2.03 2.505 -1 2 C-0.67 1.34 -0.34 0.68 0 0 Z " fill="#262C40" transform="translate(212,33)"/>
<path d="M0 0 C0.66 0 1.32 0 2 0 C2 2.97 2 5.94 2 9 C2.66 9.33 3.32 9.66 4 10 C3.67 10.33 3.34 10.66 3 11 C2.76572222 13.01594582 2.58663876 15.038474 2.4375 17.0625 C2.35371094 18.16722656 2.26992188 19.27195312 2.18359375 20.41015625 C2.12300781 21.26480469 2.06242187 22.11945312 2 23 C1.34 23 0.68 23 0 23 C0 15.41 0 7.82 0 0 Z " fill="#170F22" transform="translate(419,26)"/>
<path d="M0 0 C0.66 0 1.32 0 2 0 C2 2.97 2 5.94 2 9 C2.66 9.33 3.32 9.66 4 10 C3.67 10.33 3.34 10.66 3 11 C2.76572222 13.01594582 2.58663876 15.038474 2.4375 17.0625 C2.35371094 18.16722656 2.26992187 19.27195312 2.18359375 20.41015625 C2.12300781 21.26480469 2.06242188 22.11945312 2 23 C1.34 23 0.68 23 0 23 C0 15.41 0 7.82 0 0 Z " fill="#170F22" transform="translate(207,26)"/>
<path d="M0 0 C0.99 0 1.98 0 3 0 C3 5.28 3 10.56 3 16 C2.01 16 1.02 16 0 16 C0 10.72 0 5.44 0 0 Z " fill="#3E2637" transform="translate(367,33)"/>
<path d="M0 0 C0.99 0 1.98 0 3 0 C3 5.28 3 10.56 3 16 C2.01 16 1.02 16 0 16 C0 10.72 0 5.44 0 0 Z " fill="#3E2637" transform="translate(224,33)"/>
<path d="M0 0 C0.66 0 1.32 0 2 0 C2 0.66 2 1.32 2 2 C2.99 1.34 3.98 0.68 5 0 C6.32 0 7.64 0 9 0 C9 0.66 9 1.32 9 2 C7.7934375 2.4640625 7.7934375 2.4640625 6.5625 2.9375 C4.10919595 3.76335345 4.10919595 3.76335345 3 5 C2.76636119 6.84891946 2.58696365 8.70488031 2.4375 10.5625 C2.35371094 11.57441406 2.26992188 12.58632813 2.18359375 13.62890625 C2.12300781 14.41136719 2.06242188 15.19382812 2 16 C1.34 16 0.68 16 0 16 C0 10.72 0 5.44 0 0 Z " fill="#170E1D" transform="translate(538,276)"/>
<path d="M0 0 C0.33 0 0.66 0 1 0 C1 7.59 1 15.18 1 23 C-0.32 22.67 -1.64 22.34 -3 22 C-5.00946222 22.27050453 -7.01354224 22.59367909 -9 23 C-9 22.01 -9 21.02 -9 20 C-8.236875 20.04125 -7.47375 20.0825 -6.6875 20.125 C-3.77281584 20.22080824 -3.77281584 20.22080824 -1 18 C-0.49468134 16.07558585 -0.49468134 16.07558585 -0.48828125 13.8671875 C-0.45283203 13.06152344 -0.41738281 12.25585938 -0.38085938 11.42578125 C-0.35830078 10.58402344 -0.33574219 9.74226563 -0.3125 8.875 C-0.27833984 8.02550781 -0.24417969 7.17601562 -0.20898438 6.30078125 C-0.12640827 4.20098895 -0.06153022 2.10051436 0 0 Z " fill="#264C6D" transform="translate(429,269)"/>
<path d="M0 0 C1 1 1 1 1.09765625 4.16015625 C1.08605469 5.44792969 1.07445312 6.73570312 1.0625 8.0625 C1.05347656 9.35285156 1.04445313 10.64320313 1.03515625 11.97265625 C1.02355469 12.97167969 1.01195312 13.97070312 1 15 C0.34 15 -0.32 15 -1 15 C-1.33 11.04 -1.66 7.08 -2 3 C-6.60532389 1.54685336 -6.60532389 1.54685336 -9 3 C-8.67 2.01 -8.34 1.02 -8 0 C-5.11795733 -1.44102133 -3.08226581 -0.65580124 0 0 Z " fill="#111731" transform="translate(463,277)"/>
<path d="M0 0 C1 1 1 1 1.09765625 4.16015625 C1.08605469 5.44792969 1.07445313 6.73570312 1.0625 8.0625 C1.05347656 9.35285156 1.04445313 10.64320313 1.03515625 11.97265625 C1.02355469 12.97167969 1.01195313 13.97070312 1 15 C0.34 15 -0.32 15 -1 15 C-1.33 11.04 -1.66 7.08 -2 3 C-6.60532389 1.54685336 -6.60532389 1.54685336 -9 3 C-8.67 2.01 -8.34 1.02 -8 0 C-5.11795733 -1.44102133 -3.08226581 -0.65580124 0 0 Z " fill="#111731" transform="translate(84,277)"/>
<path d="M0 0 C1 1 1 1 1.09765625 4.16015625 C1.08605469 5.44792969 1.07445312 6.73570313 1.0625 8.0625 C1.05347656 9.35285156 1.04445313 10.64320312 1.03515625 11.97265625 C1.02355469 12.97167969 1.01195312 13.97070312 1 15 C0.67 15 0.34 15 0 15 C0 12.69 0 10.38 0 8 C-1.65 8 -3.3 8 -5 8 C-4.67 7.34 -4.34 6.68 -4 6 C-3.01 6 -2.02 6 -1 6 C-1 4.68 -1 3.36 -1 2 C-3.97 2 -6.94 2 -10 2 C-7.86862515 -2.2627497 -3.93649859 -0.85576056 0 0 Z " fill="#100E16" transform="translate(446,34)"/>
<path d="M0 0 C0.99 0 1.98 0 3 0 C3 5.28 3 10.56 3 16 C2.34 16 1.68 16 1 16 C-0.14077657 12.57767028 -0.09815117 9.91326783 -0.0625 6.3125 C-0.05347656 5.13300781 -0.04445313 3.95351563 -0.03515625 2.73828125 C-0.02355469 1.83464844 -0.01195312 0.93101562 0 0 Z " fill="#352338" transform="translate(530,276)"/>
<path d="M0 0 C5.875 0.875 5.875 0.875 7 2 C7.07271741 4.35313555 7.08370868 6.70833668 7.0625 9.0625 C7.05347656 10.35285156 7.04445313 11.64320313 7.03515625 12.97265625 C7.02355469 13.97167969 7.01195312 14.97070312 7 16 C6.34 16 5.68 16 5 16 C4.67 11.71 4.34 7.42 4 3 C2.02 3.33 0.04 3.66 -2 4 C-1.34 2.68 -0.68 1.36 0 0 Z " fill="#231623" transform="translate(336,276)"/>
<path d="M0 0 C0.33 0 0.66 0 1 0 C1.33 2.97 1.66 5.94 2 9 C4.64 9 7.28 9 10 9 C8.875 10.5625 8.875 10.5625 7 12 C3.8125 11.6875 3.8125 11.6875 1 11 C1 12.98 1 14.96 1 17 C0.34 17 -0.32 17 -1 17 C-0.67 11.39 -0.34 5.78 0 0 Z " fill="#1A3C5A" transform="translate(350,280)"/>
<path d="M0 0 C0.66 0.33 1.32 0.66 2 1 C2.23822167 3.85866009 2.42775712 6.19819084 2 9 C-0.5444981 11.90799783 -1.95398137 12.90702057 -5.8125 13.25 C-6.534375 13.1675 -7.25625 13.085 -8 13 C-8 12.01 -8 11.02 -8 10 C-7.21625 10.04125 -6.4325 10.0825 -5.625 10.125 C-2.83883881 10.28728734 -2.83883881 10.28728734 -1 8 C-0.54188325 6.02764667 -0.54188325 6.02764667 -0.375 3.875 C-0.25125 2.59625 -0.1275 1.3175 0 0 Z " fill="#1D2640" transform="translate(515,279)"/>
<path d="M0 0 C0.66 0 1.32 0 2 0 C2 5.94 2 11.88 2 18 C1.34 18.33 0.68 18.66 0 19 C-0.8931507 12.41816638 -0.95494281 6.57849492 0 0 Z " fill="#280E0E" transform="translate(427,269)"/>
<path d="M0 0 C2.97 0 5.94 0 9 0 C9 1.32 9 2.64 9 4 C6.36 4 3.72 4 1 4 C0.67 2.68 0.34 1.36 0 0 Z " fill="#F6F8F6" transform="translate(196,367)"/>
<path d="M0 0 C-0.33 1.65 -0.66 3.3 -1 5 C-2.65 5 -4.3 5 -6 5 C-6.33 3.35 -6.66 1.7 -7 0 C-4.3333581 -1.33332095 -2.83319697 -0.67102033 0 0 Z " fill="#E3E9E7" transform="translate(204,349)"/>
<path d="M0 0 C-0.33 1.65 -0.66 3.3 -1 5 C-2.65 5.33 -4.3 5.66 -6 6 C-6.33 4.35 -6.66 2.7 -7 1 C-4.53721199 -0.231394 -2.7204945 -0.07159196 0 0 Z " fill="#E8EDEA" transform="translate(284,357)"/>
<path d="M0 0 C2.875 0.8125 2.875 0.8125 4.875 2.8125 C5.0703125 5.8515625 5.0703125 5.8515625 5 9.4375 C4.98195313 10.62601562 4.96390625 11.81453125 4.9453125 13.0390625 C4.92210938 13.95429688 4.89890625 14.86953125 4.875 15.8125 C4.545 15.8125 4.215 15.8125 3.875 15.8125 C3.80152344 14.78189453 3.80152344 14.78189453 3.7265625 13.73046875 C3.61441406 12.37888672 3.61441406 12.37888672 3.5 11 C3.43039063 10.10667969 3.36078125 9.21335937 3.2890625 8.29296875 C3.00854964 5.56851501 3.00854964 5.56851501 0.875 2.8125 C-1.10247122 2.44952064 -1.10247122 2.44952064 -3.25 2.625 C-4.52875 2.686875 -5.8075 2.74875 -7.125 2.8125 C-4.57630895 0.36183553 -3.6094771 -0.21656863 0 0 Z " fill="#1D2F51" transform="translate(96.125,276.1875)"/>
<path d="M0 0 C0.78375 0.04125 1.5675 0.0825 2.375 0.125 C2.045 1.775 1.715 3.425 1.375 5.125 C-0.275 5.455 -1.925 5.785 -3.625 6.125 C-4.25 4.25 -4.25 4.25 -4.625 2.125 C-2.625 0.125 -2.625 0.125 0 0 Z " fill="#EBF1F3" transform="translate(443.625,112.875)"/>
<path d="M0 0 C0.78375 0.04125 1.5675 0.0825 2.375 0.125 C2.045 1.775 1.715 3.425 1.375 5.125 C-0.275 5.455 -1.925 5.785 -3.625 6.125 C-4.25 4.25 -4.25 4.25 -4.625 2.125 C-2.625 0.125 -2.625 0.125 0 0 Z " fill="#EBF1F3" transform="translate(379.625,112.875)"/>
<path d="M0 0 C0.78375 0.04125 1.5675 0.0825 2.375 0.125 C2.045 1.775 1.715 3.425 1.375 5.125 C-0.275 5.455 -1.925 5.785 -3.625 6.125 C-4.25 4.25 -4.25 4.25 -4.625 2.125 C-2.625 0.125 -2.625 0.125 0 0 Z " fill="#EBF1F3" transform="translate(335.625,112.875)"/>
<path d="M0 0 C0.78375 0.04125 1.5675 0.0825 2.375 0.125 C2.045 1.775 1.715 3.425 1.375 5.125 C-0.275 5.455 -1.925 5.785 -3.625 6.125 C-4.25 4.25 -4.25 4.25 -4.625 2.125 C-2.625 0.125 -2.625 0.125 0 0 Z " fill="#EBF1F3" transform="translate(260.625,112.875)"/>
<path d="M0 0 C0.66 0 1.32 0 2 0 C0.33333333 5 -1.33333333 10 -3 15 C-3.33 14.01 -3.66 13.02 -4 12 C-4.66 12 -5.32 12 -6 12 C-4 8 -2 4 0 0 Z " fill="#423C49" transform="translate(281,276)"/>
<path d="M0 0 C0.33 0 0.66 0 1 0 C1.33 2.64 1.66 5.28 2 8 C3.0725 8.144375 4.145 8.28875 5.25 8.4375 C7.91662949 8.83749442 10.41399729 9.27591924 13 10 C10.41704268 11.68885671 9.07142606 12.00291535 5.9375 11.875 C3 11 3 11 1.125 9.375 C-0.39365855 6.16894306 -0.20189694 3.49954689 0 0 Z " fill="#392221" transform="translate(373,280)"/>
<path d="M0 0 C0.99 0.495 0.99 0.495 2 1 C2.31532249 3.55411213 2.37953701 6.08082828 2.4609375 8.65234375 C2.75324964 11.17650857 2.75324964 11.17650857 5.0390625 12.31640625 C5.68617188 12.54199219 6.33328125 12.76757812 7 13 C4.625 13.625 4.625 13.625 2 14 C0 12 0 12 -0.1953125 9.1796875 C-0.17210937 8.08914062 -0.14890625 6.99859375 -0.125 5.875 C-0.10695313 4.77929688 -0.08890625 3.68359375 -0.0703125 2.5546875 C-0.04710937 1.71164063 -0.02390625 0.86859375 0 0 Z " fill="#291013" transform="translate(356,35)"/>
<path d="M0 0 C0.99 0.495 0.99 0.495 2 1 C2.31532249 3.55411213 2.37953701 6.08082828 2.4609375 8.65234375 C2.75324964 11.17650857 2.75324964 11.17650857 5.0390625 12.31640625 C5.68617188 12.54199219 6.33328125 12.76757812 7 13 C4.625 13.625 4.625 13.625 2 14 C0 12 0 12 -0.1953125 9.1796875 C-0.17210937 8.08914062 -0.14890625 6.99859375 -0.125 5.875 C-0.10695313 4.77929688 -0.08890625 3.68359375 -0.0703125 2.5546875 C-0.04710937 1.71164063 -0.02390625 0.86859375 0 0 Z " fill="#291013" transform="translate(280,35)"/>
<path d="M0 0 C0.99 0.33 1.98 0.66 3 1 C1.35 4.96 -0.3 8.92 -2 13 C-2.99 12.34 -3.98 11.68 -5 11 C-3.35 7.37 -1.7 3.74 0 0 Z " fill="#493A43" transform="translate(396,33)"/>
<path d="M0 0 C2 2 2 2 2.6875 5 C3.120625 5.99 3.55375 6.98 4 8 C7.52451159 9.46022435 7.52451159 9.46022435 11 10 C10.34 10.66 9.68 11.32 9 12 C5.6578305 11.85778002 3.68267826 11.59165449 1.125 9.375 C-0.39365855 6.16894306 -0.20189694 3.49954689 0 0 Z " fill="#2D1C1C" transform="translate(304,280)"/>
<path d="M0 0 C2 2 2 2 2.6875 5 C3.120625 5.99 3.55375 6.98 4 8 C7.52451159 9.46022435 7.52451159 9.46022435 11 10 C10.34 10.66 9.68 11.32 9 12 C5.6578305 11.85778002 3.68267826 11.59165449 1.125 9.375 C-0.39365855 6.16894306 -0.20189694 3.49954689 0 0 Z " fill="#2D1C1C" transform="translate(290,37)"/>
<path d="M0 0 C0 1.32 0 2.64 0 4 C-1.98 4.33 -3.96 4.66 -6 5 C-6.33 3.68 -6.66 2.36 -7 1 C-4.53721199 -0.231394 -2.7204945 -0.07159196 0 0 Z " fill="#E7ECE9" transform="translate(98,285)"/>
<path d="M0 0 C0 0.66 0 1.32 0 2 C-1.134375 1.979375 -2.26875 1.95875 -3.4375 1.9375 C-6.81575674 1.58422523 -6.81575674 1.58422523 -8 3 C-8.36760731 5.32817964 -8.70241581 7.6618385 -9 10 C-9.33 10 -9.66 10 -10 10 C-10.33 7.36 -10.66 4.72 -11 2 C-7.374967 -1.625033 -4.81746234 -1.01907857 0 0 Z " fill="#1C2843" transform="translate(302,277)"/>
<path d="M0 0 C0 0.66 0 1.32 0 2 C-1.134375 1.979375 -2.26875 1.95875 -3.4375 1.9375 C-6.81575674 1.58422523 -6.81575674 1.58422523 -8 3 C-8.36760731 5.32817964 -8.70241581 7.6618385 -9 10 C-9.33 10 -9.66 10 -10 10 C-10.33 7.36 -10.66 4.72 -11 2 C-7.374967 -1.625033 -4.81746234 -1.01907857 0 0 Z " fill="#1C2843" transform="translate(166,277)"/>
<path d="M0 0 C1.65 0 3.3 0 5 0 C5.66 1.32 6.32 2.64 7 4 C4.03 4 1.06 4 -2 4 C-1.34 2.68 -0.68 1.36 0 0 Z " fill="#E3E9E9" transform="translate(567,278)"/>
<path d="M0 0 C1.65 0 3.3 0 5 0 C5.66 1.32 6.32 2.64 7 4 C4.03 4 1.06 4 -2 4 C-1.34 2.68 -0.68 1.36 0 0 Z " fill="#E3E9E9" transform="translate(472,278)"/>
<path d="M0 0 C1.65 0 3.3 0 5 0 C5.66 1.32 6.32 2.64 7 4 C4.03 4 1.06 4 -2 4 C-1.34 2.68 -0.68 1.36 0 0 Z " fill="#E9E9E3" transform="translate(405,278)"/>
<path d="M0 0 C1.65 0 3.3 0 5 0 C5.66 1.32 6.32 2.64 7 4 C4.03 4 1.06 4 -2 4 C-1.34 2.68 -0.68 1.36 0 0 Z " fill="#E3E9E9" transform="translate(186,278)"/>
<path d="M0 0 C0 0.66 0 1.32 0 2 C-0.94875 1.95875 -1.8975 1.9175 -2.875 1.875 C-6.10244856 1.65026182 -6.10244856 1.65026182 -8 4 C-8.64767793 6.57061311 -8.64767793 6.57061311 -9 9 C-9.33 9 -9.66 9 -10 9 C-10.29296875 2.9453125 -10.29296875 2.9453125 -10 1 C-6.1496895 -1.56687367 -4.41430237 -0.83288724 0 0 Z " fill="#26242F" transform="translate(179,277)"/>
<path d="M0 0 C0 1.32 0 2.64 0 4 C-2.31 4.33 -4.62 4.66 -7 5 C-7 3.68 -7 2.36 -7 1 C-4 0 -4 0 0 0 Z " fill="#EAE8E0" transform="translate(445,42)"/>
<path d="M0 0 C1.65 0 3.3 0 5 0 C5.66 1.32 6.32 2.64 7 4 C4.03 4 1.06 4 -2 4 C-1.34 2.68 -0.68 1.36 0 0 Z " fill="#E9E9E3" transform="translate(331,35)"/>
<path d="M0 0 C0.33 0.99 0.66 1.98 1 3 C-1.97 3 -4.94 3 -8 3 C-7.67 2.01 -7.34 1.02 -7 0 C-4.3333581 -1.33332095 -2.83319697 -0.67102033 0 0 Z " fill="#ECEEEA" transform="translate(351,349)"/>
<path d="M0 0 C0.33 0.99 0.66 1.98 1 3 C-1.97 3 -4.94 3 -8 3 C-7.67 2.01 -7.34 1.02 -7 0 C-4.3333581 -1.33332095 -2.83319697 -0.67102033 0 0 Z " fill="#ECEEEA" transform="translate(101,349)"/>
<path d="M0 0 C0.66 0.33 1.32 0.66 2 1 C1.6875 2.875 1.6875 2.875 1 5 C-2.8503105 7.56687367 -4.58569763 6.83288724 -9 6 C-9 5.34 -9 4.68 -9 4 C-6.69 4 -4.38 4 -2 4 C-1.34 2.68 -0.68 1.36 0 0 Z " fill="#2F2834" transform="translate(113,285)"/>
<path d="M0 0 C0.33 0.99 0.66 1.98 1 3 C-1.97 3 -4.94 3 -8 3 C-7.67 2.01 -7.34 1.02 -7 0 C-4.3333581 -1.33332095 -2.83319697 -0.67102033 0 0 Z " fill="#ECF0F2" transform="translate(211,105)"/>
<path d="M0 0 C1.32 0.33 2.64 0.66 4 1 C3.34 1 2.68 1 2 1 C2.33 1.99 2.66 2.98 3 4 C5.31 4 7.62 4 10 4 C8.3125 5.5625 8.3125 5.5625 6 7 C1.58974359 6.58974359 1.58974359 6.58974359 0 5 C-0.04063832 3.33382885 -0.042721 1.66611905 0 0 Z " fill="#25232E" transform="translate(89,285)"/>
<path d="M0 0 C2.97 0.495 2.97 0.495 6 1 C6 1.99 6 2.98 6 4 C3.36 4 0.72 4 -2 4 C-1.34 2.68 -0.68 1.36 0 0 Z " fill="#F3F4EE" transform="translate(378,278)"/>
<path d="M0 0 C0 0.99 0 1.98 0 3 C-1.093125 2.773125 -2.18625 2.54625 -3.3125 2.3125 C-6.90531273 1.59853617 -6.90531273 1.59853617 -8.9375 3.4375 C-9.288125 3.953125 -9.63875 4.46875 -10 5 C-10 3.68 -10 2.36 -10 1 C-6.1496895 -1.56687367 -4.41430237 -0.83288724 0 0 Z " fill="#372C2C" transform="translate(574,277)"/>
<path d="M0 0 C0 0.99 0 1.98 0 3 C-1.093125 2.773125 -2.18625 2.54625 -3.3125 2.3125 C-6.90531273 1.59853617 -6.90531273 1.59853617 -8.9375 3.4375 C-9.288125 3.953125 -9.63875 4.46875 -10 5 C-10 3.68 -10 2.36 -10 1 C-6.1496895 -1.56687367 -4.41430237 -0.83288724 0 0 Z " fill="#372C2C" transform="translate(479,277)"/>
<path d="M0 0 C0 0.99 0 1.98 0 3 C-1.093125 2.773125 -2.18625 2.54625 -3.3125 2.3125 C-6.90531273 1.59853617 -6.90531273 1.59853617 -8.9375 3.4375 C-9.288125 3.953125 -9.63875 4.46875 -10 5 C-10 3.68 -10 2.36 -10 1 C-6.1496895 -1.56687367 -4.41430237 -0.83288724 0 0 Z " fill="#372C2C" transform="translate(193,277)"/>
<path d="M0 0 C1.91796875 0.35546875 1.91796875 0.35546875 4 1 C5.5225431 3.68257593 6.12235992 5.24544717 5.625 8.3125 C5.41875 8.869375 5.2125 9.42625 5 10 C3 9 3 9 2.1484375 6.93359375 C1.89320313 6.10988281 1.63796875 5.28617188 1.375 4.4375 C1.11460937 3.61121094 0.85421875 2.78492188 0.5859375 1.93359375 C0.39257812 1.29550781 0.19921875 0.65742187 0 0 Z " fill="#3A3343" transform="translate(384,33)"/>
<path d="M0 0 C0.99 0 1.98 0 3 0 C3 3.96 3 7.92 3 12 C2.34 11.67 1.68 11.34 1 11 C0.5859375 8.49609375 0.5859375 8.49609375 0.375 5.4375 C0.30023438 4.42558594 0.22546875 3.41367187 0.1484375 2.37109375 C0.09945312 1.58863281 0.05046875 0.80617188 0 0 Z " fill="#DEC9A8" transform="translate(233,276)"/>
<path d="M0 0 C1.485 0.99 1.485 0.99 3 2 C5.05709596 2.24055468 5.05709596 2.24055468 7.1875 2.125 C8.445625 2.08375 9.70375 2.0425 11 2 C10.67 2.66 10.34 3.32 10 4 C6.625 4.75 6.625 4.75 3 5 C2.01 4.34 1.02 3.68 0 3 C0 2.01 0 1.02 0 0 Z " fill="#181E30" transform="translate(565,287)"/>
<path d="M0 0 C1.485 0.99 1.485 0.99 3 2 C5.05709596 2.24055468 5.05709596 2.24055468 7.1875 2.125 C8.445625 2.08375 9.70375 2.0425 11 2 C10.67 2.66 10.34 3.32 10 4 C6.625 4.75 6.625 4.75 3 5 C2.01 4.34 1.02 3.68 0 3 C0 2.01 0 1.02 0 0 Z " fill="#181E30" transform="translate(470,287)"/>
<path d="M0 0 C1.485 0.99 1.485 0.99 3 2 C5.05709596 2.24055468 5.05709596 2.24055468 7.1875 2.125 C8.445625 2.08375 9.70375 2.0425 11 2 C10.67 2.66 10.34 3.32 10 4 C6.625 4.75 6.625 4.75 3 5 C2.01 4.34 1.02 3.68 0 3 C0 2.01 0 1.02 0 0 Z " fill="#181E30" transform="translate(184,287)"/>
<path d="M0 0 C0.33 0 0.66 0 1 0 C1 2.64 1 5.28 1 8 C1.66 8 2.32 8 3 8 C2.67 9.32 2.34 10.64 2 12 C-0.48772258 8.7162062 -1.03180444 7.38801417 -0.6875 3.1875 C-0.460625 2.135625 -0.23375 1.08375 0 0 Z " fill="#503025" transform="translate(503,279)"/>
<path d="M0 0 C0.33 0 0.66 0 1 0 C1 3.3 1 6.6 1 10 C0.34 9.67 -0.32 9.34 -1 9 C-1.75 6.125 -1.75 6.125 -2 3 C-1.34 2.01 -0.68 1.02 0 0 Z " fill="#282E44" transform="translate(418,281)"/>
<path d="M0 0 C0.99 0.33 1.98 0.66 3 1 C2.67 1.66 2.34 2.32 2 3 C1.01 3 0.02 3 -1 3 C-1.33 3.99 -1.66 4.98 -2 6 C-2.99 6.495 -2.99 6.495 -4 7 C-3.6875 4.625 -3.6875 4.625 -3 2 C-2.01 1.34 -1.02 0.68 0 0 Z " fill="#534845" transform="translate(439,40)"/>
<path d="M0 0 C0 0.99 0 1.98 0 3 C-3.46941546 2.54177532 -6.67395049 2.10868317 -10 1 C-6.42181037 -1.33958553 -4.07775191 -0.9267618 0 0 Z " fill="#272530" transform="translate(446,34)"/>
<path d="M0 0 C0.99 0.33 1.98 0.66 3 1 C4.1875 4.0625 4.1875 4.0625 5 7 C3.68 6.67 2.36 6.34 1 6 C0.67 4.02 0.34 2.04 0 0 Z " fill="#3A3649" transform="translate(269,276)"/>
<path d="M0 0 C0.33 0.66 0.66 1.32 1 2 C1.99 1.34 2.98 0.68 4 0 C5.32 0 6.64 0 8 0 C8 0.66 8 1.32 8 2 C5.09399739 3.25664978 3.20395416 4 0 4 C0 2.68 0 1.36 0 0 Z " fill="#24304E" transform="translate(539,276)"/>
<path d="M0 0 C-0.33 0.99 -0.66 1.98 -1 3 C-1.78375 2.814375 -2.5675 2.62875 -3.375 2.4375 C-5.97089775 1.74037734 -5.97089775 1.74037734 -8 3 C-7.67 2.01 -7.34 1.02 -7 0 C-4.3333581 -1.33332095 -2.83319697 -0.67102033 0 0 Z " fill="#2F2927" transform="translate(462,277)"/>
<path d="M0 0 C-0.33 0.99 -0.66 1.98 -1 3 C-1.78375 2.814375 -2.5675 2.62875 -3.375 2.4375 C-5.97089775 1.74037734 -5.97089775 1.74037734 -8 3 C-7.67 2.01 -7.34 1.02 -7 0 C-4.3333581 -1.33332095 -2.83319697 -0.67102033 0 0 Z " fill="#2F2927" transform="translate(83,277)"/>
<path d="M0 0 C0 0.66 0 1.32 0 2 C-1.65 2.33 -3.3 2.66 -5 3 C-5.33 3.99 -5.66 4.98 -6 6 C-6.33 5.01 -6.66 4.02 -7 3 C-4.49955934 -0.00052879 -4.2621484 0 0 0 Z " fill="#372520" transform="translate(233,270)"/>
<path d="M0 0 C1.98 0 3.96 0 6 0 C6 0.66 6 1.32 6 2 C4.02 2.33 2.04 2.66 0 3 C0 2.01 0 1.02 0 0 Z " fill="#44434A" transform="translate(409,46)"/>
<path d="M0 0 C0 0.66 0 1.32 0 2 C-1.65 2.33 -3.3 2.66 -5 3 C-5.33 3.99 -5.66 4.98 -6 6 C-6.33 5.01 -6.66 4.02 -7 3 C-4.49955934 -0.00052879 -4.2621484 0 0 0 Z " fill="#372520" transform="translate(383,27)"/>
</svg>
