<?xml version="1.0" encoding="UTF-8"?>
<svg version="1.1" xmlns="http://www.w3.org/2000/svg" width="577" height="262">
<path d="M0 0 C190.41 0 380.82 0 577 0 C577 86.46 577 172.92 577 262 C386.59 262 196.18 262 0 262 C0 175.54 0 89.08 0 0 Z " fill="#FEFEFE" transform="translate(0,0)"/>
<path d="M0 0 C13.125 -0.53571429 13.125 -0.53571429 16.6875 1.75 C20.29079639 5.25591001 20.88480748 6.80967728 21.375 11.875 C21.26235068 16.18785966 19.82617939 18.70279071 17 22 C13.49515188 24.35780692 10.3950049 24.2079001 6.25 24.125 C3.15625 24.063125 3.15625 24.063125 0 24 C0 16.08 0 8.16 0 0 Z " fill="#353A3E" transform="translate(360,217)"/>
<path d="M0 0 C13.125 -0.53571429 13.125 -0.53571429 16.6875 1.75 C20.29079639 5.25591001 20.88480748 6.80967728 21.375 11.875 C21.26235068 16.18785966 19.82617939 18.70279071 17 22 C13.49515188 24.35780692 10.3950049 24.2079001 6.25 24.125 C3.15625 24.063125 3.15625 24.063125 0 24 C0 16.08 0 8.16 0 0 Z " fill="#2F639B" transform="translate(177,57)"/>
<path d="M0 0 C1.98 0 3.96 0 6 0 C8.97 7.92 11.94 15.84 15 24 C13.02 24 11.04 24 9 24 C8.505 21.525 8.505 21.525 8 19 C4.7 19 1.4 19 -2 19 C-2.33 20.65 -2.66 22.3 -3 24 C-4.98 24 -6.96 24 -9 24 C-7.87942681 20.74845669 -6.75277056 17.49905328 -5.625 14.25 C-5.30789063 13.32960937 -4.99078125 12.40921875 -4.6640625 11.4609375 C-4.3546875 10.57148438 -4.0453125 9.68203125 -3.7265625 8.765625 C-3.44377441 7.94868164 -3.16098633 7.13173828 -2.86962891 6.29003906 C-2.04060935 4.10693871 -1.08327115 2.06693116 0 0 Z " fill="#353A3E" transform="translate(443,217)"/>
<path d="M0 0 C2 2 2 2 2 5 C-0.64 4.67 -3.28 4.34 -6 4 C-4.6302836 7.99500618 -2.74277578 10.80009492 0 14 C0.66 12.68 1.32 11.36 2 10 C3.32 10 4.64 10 6 10 C5.89300781 10.60328125 5.78601563 11.2065625 5.67578125 11.828125 C4.79093221 16.8808034 4.79093221 16.8808034 6.4375 21.5625 C6.953125 22.036875 7.46875 22.51125 8 23 C4.65747276 23.07427838 2.1964086 23.06546953 -1 22 C-1.66 22.33 -2.32 22.66 -3 23 C-6.8612692 23.35752493 -9.16724804 23.52046997 -12.5 21.4375 C-14.60481417 18.01717697 -13.87885144 15.80835623 -13 12 C-12.01 11.67 -11.02 11.34 -10 11 C-10.33 10.34 -10.66 9.68 -11 9 C-11.57003257 2.72964169 -11.57003257 2.72964169 -9.4375 0 C-5.97697331 -1.41970326 -3.58483216 -0.86301515 0 0 Z " fill="#353A3E" transform="translate(166,218)"/>
<path d="M0 0 C12 0 12 0 16 2 C17.5959804 5.26450536 18.20461092 7.12017304 17.375 10.6875 C15.78352846 13.36406578 14.7785071 14.57319906 12 16 C8.25 16.1875 8.25 16.1875 5 16 C5 18.64 5 21.28 5 24 C3.35 24 1.7 24 0 24 C0 16.08 0 8.16 0 0 Z " fill="#2F639B" transform="translate(337,57)"/>
<path d="M0 0 C1.65 0 3.3 0 5 0 C5 2.64 5 5.28 5 8 C6.6396875 7.6596875 6.6396875 7.6596875 8.3125 7.3125 C12 7 12 7 13.875 7.9375 C15.63234647 11.15930185 16.09869152 14.38366056 16 18 C15 20.9375 15 20.9375 13 23 C8.54322783 24.09317053 4.62803802 24 0 24 C0 16.08 0 8.16 0 0 Z " fill="#2F639B" transform="translate(253,57)"/>
<path d="M0 0 C1.65 0 3.3 0 5 0 C5 2.64 5 5.28 5 8 C6.6396875 7.6596875 6.6396875 7.6596875 8.3125 7.3125 C12 7 12 7 13.875 7.9375 C15.63234647 11.15930185 16.09869152 14.38366056 16 18 C15 20.9375 15 20.9375 13 23 C8.54322783 24.09317053 4.62803802 24 0 24 C0 16.08 0 8.16 0 0 Z " fill="#2F639B" transform="translate(218,57)"/>
<path d="M0 0 C1.32 0 2.64 0 4 0 C4.33 0.66 4.66 1.32 5 2 C5.66 1.34 6.32 0.68 7 0 C9.3828125 -0.1953125 9.3828125 -0.1953125 12.125 -0.125 C13.49011719 -0.09792969 13.49011719 -0.09792969 14.8828125 -0.0703125 C15.58148438 -0.04710937 16.28015625 -0.02390625 17 0 C17.99 2.64 18.98 5.28 20 8 C20.99 5.36 21.98 2.72 23 0 C24.98 0 26.96 0 29 0 C27.5247255 3.48082996 26.04413293 6.95937231 24.5625 10.4375 C23.93118164 11.92733398 23.93118164 11.92733398 23.28710938 13.44726562 C22.68286133 14.86362305 22.68286133 14.86362305 22.06640625 16.30859375 C21.5086853 17.62041626 21.5086853 17.62041626 20.93969727 18.95874023 C20 21 20 21 19 22 C17.33382885 22.04063832 15.66611905 22.042721 14 22 C14.598125 21.0925 15.19625 20.185 15.8125 19.25 C17.1600104 16.25209841 17.02530362 15.08683249 16.0859375 11.86328125 C14.81192887 8.85619383 13.46993551 5.91593071 12 3 C11.34 3.66 10.68 4.32 10 5 C8.68 5.33 7.36 5.66 6 6 C5.67 9.63 5.34 13.26 5 17 C3.35 17 1.7 17 0 17 C0 11.39 0 5.78 0 0 Z " fill="#353A3E" transform="translate(324,224)"/>
<path d="M0 0 C2.475 0.495 2.475 0.495 5 1 C6.19625 0.79375 7.3925 0.5875 8.625 0.375 C12 0 12 0 13.875 0.9375 C15.63234647 4.15930185 16.09869152 7.38366056 16 11 C15 13.9375 15 13.9375 13 16 C9.3125 16.8125 9.3125 16.8125 6 17 C5.67 18.65 5.34 20.3 5 22 C3.35 22 1.7 22 0 22 C0 14.74 0 7.48 0 0 Z " fill="#353A3E" transform="translate(217,224)"/>
<path d="M0 0 C3.32635764 2.18839318 3.90585122 3.62340488 4.875 7.5 C5.04878049 12.36585366 5.04878049 12.36585366 3 15 C-0.21955988 17.29968563 -3.12559532 17.55348638 -7 17 C-10.63525215 14.39210172 -11.83397068 12.9297642 -12.625 8.5 C-11.33940733 1.30068103 -7.0374661 -1.15158536 0 0 Z " fill="#353A3E" transform="translate(317,224)"/>
<path d="M0 0 C3.32635764 2.18839318 3.90585122 3.62340488 4.875 7.5 C5.04878049 12.36585366 5.04878049 12.36585366 3 15 C-0.21955988 17.29968563 -3.12559532 17.55348638 -7 17 C-10.63525215 14.39210172 -11.83397068 12.9297642 -12.625 8.5 C-11.33940733 1.30068103 -7.0374661 -1.15158536 0 0 Z " fill="#353A3E" transform="translate(256,224)"/>
<path d="M0 0 C4.95 0 9.9 0 15 0 C15 1.32 15 2.64 15 4 C11.7 4 8.4 4 5 4 C5 5.98 5 7.96 5 10 C7.64 10 10.28 10 13 10 C13 11.32 13 12.64 13 14 C10.36 14 7.72 14 5 14 C5 15.98 5 17.96 5 20 C8.3 20 11.6 20 15 20 C15 21.32 15 22.64 15 24 C10.05 24 5.1 24 0 24 C0 16.08 0 8.16 0 0 Z " fill="#353A3E" transform="translate(181,217)"/>
<path d="M0 0 C0.99 0.66 1.98 1.32 3 2 C2.67 2.99 2.34 3.98 2 5 C-0.64 5 -3.28 5 -6 5 C-5.67 5.99 -5.34 6.98 -5 8 C-3.2984375 8.6496875 -3.2984375 8.6496875 -1.5625 9.3125 C2 11 2 11 3.5625 13.875 C4.05839812 17.41712939 3.85739531 18.96062585 2 22 C-1.03506416 23.95299781 -3.07790859 24.20080092 -6.625 23.75 C-7.40101562 23.66234375 -8.17703125 23.5746875 -8.9765625 23.484375 C-11 23 -11 23 -13 21 C-12.01 19.515 -12.01 19.515 -11 18 C-6.545 18.99 -6.545 18.99 -2 20 C-2.33 18.68 -2.66 17.36 -3 16 C-4.82464963 14.90846538 -4.82464963 14.90846538 -7 14.1875 C-10.50532944 12.58325914 -10.84817383 12.39763997 -12.3125 8.5625 C-12 5 -12 5 -10 2.0625 C-6.31875396 -0.46835665 -4.38391211 -0.5682849 0 0 Z " fill="#353A3E" transform="translate(26,217)"/>
<path d="M0 0 C2.03667615 1.54506466 2.86073078 2.72146156 4 5 C4.07065617 7.04055005 4.08421976 9.08334257 4.0625 11.125 C4.05347656 12.22070312 4.04445313 13.31640625 4.03515625 14.4453125 C4.02355469 15.28835937 4.01195312 16.13140625 4 17 C2.68 17 1.36 17 0 17 C0 16.34 0 15.68 0 15 C-0.99 15.66 -1.98 16.32 -3 17 C-6.6875 16.625 -6.6875 16.625 -10 16 C-10.6875 13.6875 -10.6875 13.6875 -11 11 C-10 9.25 -10 9.25 -8 8 C-4.3125 7.3125 -4.3125 7.3125 -1 7 C-1.33 6.34 -1.66 5.68 -2 5 C-4.31 5 -6.62 5 -9 5 C-9 3.68 -9 2.36 -9 1 C-5.72429875 -0.09190042 -3.43202271 -0.28600189 0 0 Z " fill="#42474B" transform="translate(488,224)"/>
<path d="M0 0 C2.03667615 1.54506466 2.86073078 2.72146156 4 5 C4.07065617 7.04055005 4.08421976 9.08334257 4.0625 11.125 C4.05347656 12.22070312 4.04445313 13.31640625 4.03515625 14.4453125 C4.02355469 15.28835937 4.01195312 16.13140625 4 17 C2.68 17 1.36 17 0 17 C0 16.34 0 15.68 0 15 C-0.99 15.66 -1.98 16.32 -3 17 C-6.6875 16.625 -6.6875 16.625 -10 16 C-10.6875 13.6875 -10.6875 13.6875 -11 11 C-10 9.25 -10 9.25 -8 8 C-4.3125 7.3125 -4.3125 7.3125 -1 7 C-1.33 6.34 -1.66 5.68 -2 5 C-4.31 5 -6.62 5 -9 5 C-9 3.68 -9 2.36 -9 1 C-5.72429875 -0.09190042 -3.43202271 -0.28600189 0 0 Z " fill="#42474B" transform="translate(423,224)"/>
<path d="M0 0 C2.03667615 1.54506466 2.86073078 2.72146156 4 5 C4.07065617 7.04055005 4.08421976 9.08334257 4.0625 11.125 C4.05347656 12.22070312 4.04445313 13.31640625 4.03515625 14.4453125 C4.02355469 15.28835937 4.01195312 16.13140625 4 17 C2.68 17 1.36 17 0 17 C0 16.34 0 15.68 0 15 C-0.99 15.66 -1.98 16.32 -3 17 C-6.6875 16.625 -6.6875 16.625 -10 16 C-10.6875 13.6875 -10.6875 13.6875 -11 11 C-10 9.25 -10 9.25 -8 8 C-4.3125 7.3125 -4.3125 7.3125 -1 7 C-1.33 6.34 -1.66 5.68 -2 5 C-4.31 5 -6.62 5 -9 5 C-9 3.68 -9 2.36 -9 1 C-5.72429875 -0.09190042 -3.43202271 -0.28600189 0 0 Z " fill="#42474B" transform="translate(394,224)"/>
<path d="M0 0 C2.03667615 1.54506466 2.86073078 2.72146156 4 5 C4.07065617 7.04055005 4.08421976 9.08334257 4.0625 11.125 C4.05347656 12.22070312 4.04445313 13.31640625 4.03515625 14.4453125 C4.02355469 15.28835937 4.01195312 16.13140625 4 17 C2.68 17 1.36 17 0 17 C0 16.34 0 15.68 0 15 C-0.99 15.66 -1.98 16.32 -3 17 C-6.6875 16.625 -6.6875 16.625 -10 16 C-10.6875 13.6875 -10.6875 13.6875 -11 11 C-10 9.25 -10 9.25 -8 8 C-4.3125 7.3125 -4.3125 7.3125 -1 7 C-1.33 6.34 -1.66 5.68 -2 5 C-4.31 5 -6.62 5 -9 5 C-9 3.68 -9 2.36 -9 1 C-5.72429875 -0.09190042 -3.43202271 -0.28600189 0 0 Z " fill="#42474B" transform="translate(286,224)"/>
<path d="M0 0 C2.03667615 1.54506466 2.86073078 2.72146156 4 5 C4.07065617 7.04055005 4.08421976 9.08334257 4.0625 11.125 C4.05347656 12.22070312 4.04445313 13.31640625 4.03515625 14.4453125 C4.02355469 15.28835937 4.01195312 16.13140625 4 17 C2.68 17 1.36 17 0 17 C0 16.34 0 15.68 0 15 C-0.99 15.66 -1.98 16.32 -3 17 C-6.6875 16.625 -6.6875 16.625 -10 16 C-10.6875 13.6875 -10.6875 13.6875 -11 11 C-10 9.25 -10 9.25 -8 8 C-4.3125 7.3125 -4.3125 7.3125 -1 7 C-1.33 6.34 -1.66 5.68 -2 5 C-4.31 5 -6.62 5 -9 5 C-9 3.68 -9 2.36 -9 1 C-5.72429875 -0.09190042 -3.43202271 -0.28600189 0 0 Z " fill="#42474B" transform="translate(54,224)"/>
<path d="M0 0 C2.03667615 1.54506466 2.86073078 2.72146156 4 5 C4.07065617 7.04055005 4.08421976 9.08334257 4.0625 11.125 C4.05347656 12.22070312 4.04445313 13.31640625 4.03515625 14.4453125 C4.02355469 15.28835937 4.01195312 16.13140625 4 17 C2.68 17 1.36 17 0 17 C0 16.34 0 15.68 0 15 C-0.99 15.66 -1.98 16.32 -3 17 C-6.6875 16.625 -6.6875 16.625 -10 16 C-10.6875 13.6875 -10.6875 13.6875 -11 11 C-10 9.25 -10 9.25 -8 8 C-4.3125 7.3125 -4.3125 7.3125 -1 7 C-1.33 6.34 -1.66 5.68 -2 5 C-4.31 5 -6.62 5 -9 5 C-9 3.68 -9 2.36 -9 1 C-5.72429875 -0.09190042 -3.43202271 -0.28600189 0 0 Z " fill="#3D6DA1" transform="translate(366,64)"/>
<path d="M0 0 C2.03667615 1.54506466 2.86073078 2.72146156 4 5 C4.07065617 7.04055005 4.08421976 9.08334257 4.0625 11.125 C4.05347656 12.22070312 4.04445313 13.31640625 4.03515625 14.4453125 C4.02355469 15.28835937 4.01195312 16.13140625 4 17 C2.68 17 1.36 17 0 17 C0 16.34 0 15.68 0 15 C-0.99 15.66 -1.98 16.32 -3 17 C-6.6875 16.625 -6.6875 16.625 -10 16 C-10.6875 13.6875 -10.6875 13.6875 -11 11 C-10 9.25 -10 9.25 -8 8 C-4.3125 7.3125 -4.3125 7.3125 -1 7 C-1.33 6.34 -1.66 5.68 -2 5 C-4.31 5 -6.62 5 -9 5 C-9 3.68 -9 2.36 -9 1 C-5.72429875 -0.09190042 -3.43202271 -0.28600189 0 0 Z " fill="#3D6DA1" transform="translate(324,64)"/>
<path d="M0 0 C2.03667615 1.54506466 2.86073078 2.72146156 4 5 C4.07065617 7.04055005 4.08421976 9.08334257 4.0625 11.125 C4.05347656 12.22070312 4.04445313 13.31640625 4.03515625 14.4453125 C4.02355469 15.28835937 4.01195312 16.13140625 4 17 C2.68 17 1.36 17 0 17 C0 16.34 0 15.68 0 15 C-0.99 15.66 -1.98 16.32 -3 17 C-6.6875 16.625 -6.6875 16.625 -10 16 C-10.6875 13.6875 -10.6875 13.6875 -11 11 C-10 9.25 -10 9.25 -8 8 C-4.3125 7.3125 -4.3125 7.3125 -1 7 C-1.33 6.34 -1.66 5.68 -2 5 C-4.31 5 -6.62 5 -9 5 C-9 3.68 -9 2.36 -9 1 C-5.72429875 -0.09190042 -3.43202271 -0.28600189 0 0 Z " fill="#3D6DA1" transform="translate(295,64)"/>
<path d="M0 0 C2.03667615 1.54506466 2.86073078 2.72146156 4 5 C4.07065617 7.04055005 4.08421976 9.08334257 4.0625 11.125 C4.05347656 12.22070312 4.04445312 13.31640625 4.03515625 14.4453125 C4.02355469 15.28835937 4.01195312 16.13140625 4 17 C2.68 17 1.36 17 0 17 C0 16.34 0 15.68 0 15 C-0.99 15.66 -1.98 16.32 -3 17 C-6.6875 16.625 -6.6875 16.625 -10 16 C-10.6875 13.6875 -10.6875 13.6875 -11 11 C-10 9.25 -10 9.25 -8 8 C-4.3125 7.3125 -4.3125 7.3125 -1 7 C-1.33 6.34 -1.66 5.68 -2 5 C-4.31 5 -6.62 5 -9 5 C-9 3.68 -9 2.36 -9 1 C-5.72429875 -0.09190042 -3.43202271 -0.28600189 0 0 Z " fill="#3D6DA1" transform="translate(246,64)"/>
<path d="M0 0 C3.28291543 0.55879412 4.75149622 0.97768794 6.9375 3.5 C7.1875 6.6875 7.1875 6.6875 6.9375 9.5 C3.6375 9.5 0.3375 9.5 -3.0625 9.5 C-2.7325 10.49 -2.4025 11.48 -2.0625 12.5 C0.5775 12.5 3.2175 12.5 5.9375 12.5 C5.9375 13.82 5.9375 15.14 5.9375 16.5 C2.79878812 18.06935594 0.39894178 17.85201103 -3.0625 17.5 C-6.75436542 14.90783917 -7.89133761 13.45850936 -8.6875 9 C-7.73593561 3.6712394 -5.43970944 0.88811583 0 0 Z " fill="#3A6BA0" transform="translate(208.0625,63.5)"/>
<path d="M0 0 C2.475 0.495 2.475 0.495 5 1 C7.34165499 0.73128549 9.67884289 0.40961596 12 0 C14.34290892 2.48434437 14.97982934 3.77731593 15.29296875 7.234375 C15.25816406 8.39453125 15.22335937 9.5546875 15.1875 10.75 C15.16042969 11.92046875 15.13335937 13.0909375 15.10546875 14.296875 C15.07066406 15.18890625 15.03585937 16.0809375 15 17 C13.35 17 11.7 17 10 17 C10 12.71 10 8.42 10 4 C8.68 4.33 7.36 4.66 6 5 C5.67 8.96 5.34 12.92 5 17 C3.35 17 1.7 17 0 17 C0 11.39 0 5.78 0 0 Z " fill="#353A3E" transform="translate(460,224)"/>
<path d="M0 0 C2.25 -0.25 2.25 -0.25 5 0 C7.3125 2 7.3125 2 9 4 C9.66 2.68 10.32 1.36 11 0 C12.98 0 14.96 0 17 0 C16.319375 0.886875 15.63875 1.77375 14.9375 2.6875 C12.77358155 5.72038693 12.77358155 5.72038693 13.0625 8.5 C14.17131054 11.4568281 15.51118367 14.21656077 17 17 C15.02 17 13.04 17 11 17 C10.34 15.35 9.68 13.7 9 12 C8.34 12 7.68 12 7 12 C6.34 13.65 5.68 15.3 5 17 C3.02 17 1.04 17 -1 17 C-0.59265625 16.443125 -0.1853125 15.88625 0.234375 15.3125 C1.8262034 12.88373089 3.07739009 10.75932642 4 8 C3.27085509 4.8947605 1.87538497 2.55861072 0 0 Z " fill="#353A3E" transform="translate(198,224)"/>
<path d="M0 0 C1.98 0 3.96 0 6 0 C6.99 2.64 7.98 5.28 9 8 C9.99 5.36 10.98 2.72 12 0 C13.98 0 15.96 0 18 0 C16.5247255 3.48082996 15.04413293 6.95937231 13.5625 10.4375 C12.93118164 11.92733398 12.93118164 11.92733398 12.28710938 13.44726562 C11.68286133 14.86362305 11.68286133 14.86362305 11.06640625 16.30859375 C10.69459229 17.18314209 10.32277832 18.05769043 9.93969727 18.95874023 C9 21 9 21 8 22 C6.33382885 22.04063832 4.66611905 22.042721 3 22 C3.55300781 21.00871094 4.10601562 20.01742187 4.67578125 18.99609375 C6.00324403 15.89868059 6.11008641 14.21108061 4.98046875 11.03515625 C4.40816646 9.69978425 3.80977386 8.37533035 3.1875 7.0625 C2.88779297 6.37865234 2.58808594 5.69480469 2.27929688 4.99023438 C1.54202032 3.31673362 0.77403535 1.65681947 0 0 Z " fill="#353A3E" transform="translate(502,224)"/>
<path d="M0 0 C7 0 7 0 8.875 1.125 C10.47060215 3.78433692 10.81462005 5.91033418 11 9 C10.07417343 12.13356684 9.31531305 13.68468695 7 16 C4.69 16 2.38 16 0 16 C0 10.72 0 5.44 0 0 Z " fill="#FFFFFF" transform="translate(365,221)"/>
<path d="M0 0 C7 0 7 0 8.875 1.125 C10.47060215 3.78433692 10.81462005 5.91033418 11 9 C10.07417343 12.13356684 9.31531305 13.68468695 7 16 C4.69 16 2.38 16 0 16 C0 10.72 0 5.44 0 0 Z " fill="#FFFFFF" transform="translate(182,61)"/>
<path d="M0 0 C1.32 0 2.64 0 4 0 C4 1.65 4 3.3 4 5 C5.32 5 6.64 5 8 5 C8 6.32 8 7.64 8 9 C6.68 9 5.36 9 4 9 C4 11.97 4 14.94 4 18 C5.32 18.33 6.64 18.66 8 19 C7.67 19.99 7.34 20.98 7 22 C4.125 22.125 4.125 22.125 1 22 C-1 20 -1 20 -1.1953125 17.3984375 C-1.17210937 16.40070313 -1.14890625 15.40296875 -1.125 14.375 C-1.10695313 13.37210938 -1.08890625 12.36921875 -1.0703125 11.3359375 C-1.04710937 10.56507813 -1.02390625 9.79421875 -1 9 C-1.66 9 -2.32 9 -3 9 C-3 7.68 -3 6.36 -3 5 C-2.34 4.67 -1.68 4.34 -1 4 C-0.34786708 1.97536745 -0.34786708 1.97536745 0 0 Z " fill="#353A3E" transform="translate(403,219)"/>
<path d="M0 0 C1.32 0 2.64 0 4 0 C4 1.65 4 3.3 4 5 C5.32 5 6.64 5 8 5 C8 6.32 8 7.64 8 9 C6.68 9 5.36 9 4 9 C4 11.97 4 14.94 4 18 C5.32 18.33 6.64 18.66 8 19 C7.67 19.99 7.34 20.98 7 22 C4.125 22.125 4.125 22.125 1 22 C-1 20 -1 20 -1.1953125 17.3984375 C-1.17210937 16.40070313 -1.14890625 15.40296875 -1.125 14.375 C-1.10695313 13.37210938 -1.08890625 12.36921875 -1.0703125 11.3359375 C-1.04710937 10.56507813 -1.02390625 9.79421875 -1 9 C-1.66 9 -2.32 9 -3 9 C-3 7.68 -3 6.36 -3 5 C-2.34 4.67 -1.68 4.34 -1 4 C-0.34786708 1.97536745 -0.34786708 1.97536745 0 0 Z " fill="#353A3E" transform="translate(295,219)"/>
<path d="M0 0 C1.32 0 2.64 0 4 0 C4 1.65 4 3.3 4 5 C5.32 5 6.64 5 8 5 C8 6.32 8 7.64 8 9 C6.68 9 5.36 9 4 9 C4 11.97 4 14.94 4 18 C5.32 18.33 6.64 18.66 8 19 C7.67 19.99 7.34 20.98 7 22 C4.125 22.125 4.125 22.125 1 22 C-1 20 -1 20 -1.1953125 17.3984375 C-1.17210938 16.40070313 -1.14890625 15.40296875 -1.125 14.375 C-1.10695313 13.37210938 -1.08890625 12.36921875 -1.0703125 11.3359375 C-1.04710938 10.56507813 -1.02390625 9.79421875 -1 9 C-1.66 9 -2.32 9 -3 9 C-3 7.68 -3 6.36 -3 5 C-2.34 4.67 -1.68 4.34 -1 4 C-0.34786708 1.97536745 -0.34786708 1.97536745 0 0 Z " fill="#353A3E" transform="translate(98,219)"/>
<path d="M0 0 C1.32 0 2.64 0 4 0 C4 1.65 4 3.3 4 5 C5.32 5 6.64 5 8 5 C8 6.32 8 7.64 8 9 C6.68 9 5.36 9 4 9 C4 11.97 4 14.94 4 18 C5.32 18.33 6.64 18.66 8 19 C7.67 19.99 7.34 20.98 7 22 C4.125 22.125 4.125 22.125 1 22 C-1 20 -1 20 -1.1953125 17.3984375 C-1.17210937 16.40070313 -1.14890625 15.40296875 -1.125 14.375 C-1.10695312 13.37210938 -1.08890625 12.36921875 -1.0703125 11.3359375 C-1.04710937 10.56507813 -1.02390625 9.79421875 -1 9 C-1.66 9 -2.32 9 -3 9 C-3 7.68 -3 6.36 -3 5 C-2.34 4.67 -1.68 4.34 -1 4 C-0.34786708 1.97536745 -0.34786708 1.97536745 0 0 Z " fill="#353A3E" transform="translate(63,219)"/>
<path d="M0 0 C1.32 0 2.64 0 4 0 C4 1.65 4 3.3 4 5 C5.32 5 6.64 5 8 5 C8 6.32 8 7.64 8 9 C6.68 9 5.36 9 4 9 C4 11.97 4 14.94 4 18 C5.32 18.33 6.64 18.66 8 19 C7.67 19.99 7.34 20.98 7 22 C4.125 22.125 4.125 22.125 1 22 C-1 20 -1 20 -1.1953125 17.3984375 C-1.17210937 16.40070313 -1.14890625 15.40296875 -1.125 14.375 C-1.10695312 13.37210938 -1.08890625 12.36921875 -1.0703125 11.3359375 C-1.04710937 10.56507813 -1.02390625 9.79421875 -1 9 C-1.66 9 -2.32 9 -3 9 C-3 7.68 -3 6.36 -3 5 C-2.34 4.67 -1.68 4.34 -1 4 C-0.34786708 1.97536745 -0.34786708 1.97536745 0 0 Z " fill="#353A3E" transform="translate(34,219)"/>
<path d="M0 0 C1.32 0 2.64 0 4 0 C4 1.65 4 3.3 4 5 C5.32 5 6.64 5 8 5 C8 6.32 8 7.64 8 9 C6.68 9 5.36 9 4 9 C4 11.97 4 14.94 4 18 C5.32 18.33 6.64 18.66 8 19 C7.67 19.99 7.34 20.98 7 22 C4.125 22.125 4.125 22.125 1 22 C-1 20 -1 20 -1.1953125 17.3984375 C-1.17210937 16.40070313 -1.14890625 15.40296875 -1.125 14.375 C-1.10695313 13.37210938 -1.08890625 12.36921875 -1.0703125 11.3359375 C-1.04710937 10.56507812 -1.02390625 9.79421875 -1 9 C-1.66 9 -2.32 9 -3 9 C-3 7.68 -3 6.36 -3 5 C-2.34 4.67 -1.68 4.34 -1 4 C-0.34786708 1.97536745 -0.34786708 1.97536745 0 0 Z " fill="#2F639B" transform="translate(375,59)"/>
<path d="M0 0 C1.32 0 2.64 0 4 0 C4 1.65 4 3.3 4 5 C5.32 5 6.64 5 8 5 C8 6.32 8 7.64 8 9 C6.68 9 5.36 9 4 9 C4 11.97 4 14.94 4 18 C5.32 18.33 6.64 18.66 8 19 C7.67 19.99 7.34 20.98 7 22 C4.125 22.125 4.125 22.125 1 22 C-1 20 -1 20 -1.1953125 17.3984375 C-1.17210937 16.40070313 -1.14890625 15.40296875 -1.125 14.375 C-1.10695313 13.37210938 -1.08890625 12.36921875 -1.0703125 11.3359375 C-1.04710937 10.56507812 -1.02390625 9.79421875 -1 9 C-1.66 9 -2.32 9 -3 9 C-3 7.68 -3 6.36 -3 5 C-2.34 4.67 -1.68 4.34 -1 4 C-0.34786708 1.97536745 -0.34786708 1.97536745 0 0 Z " fill="#2F639B" transform="translate(304,59)"/>
<path d="M0 0 C1.875 1.5 1.875 1.5 3 3 C2.34 3.66 1.68 4.32 1 5 C-1.625 4.625 -1.625 4.625 -4 4 C-2.49336217 7.01327566 0.03166411 7.61056618 3 9 C3.21917317 11.70313576 3.32851983 13.43958382 1.9375 15.8125 C-1.06297398 17.65150018 -3.56481613 17.30671285 -7 17 C-7.99 16.34 -8.98 15.68 -10 15 C-9.34 14.01 -8.68 13.02 -8 12 C-4.875 11.8125 -4.875 11.8125 -2 12 C-2.969375 11.62875 -3.93875 11.2575 -4.9375 10.875 C-8 9 -8 9 -9.0625 6 C-9 3 -9 3 -7.9375 1.125 C-5.14003001 -0.49933741 -3.17634515 -0.39704314 0 0 Z " fill="#353A3E" transform="translate(551,224)"/>
<path d="M0 0 C1.875 1.5 1.875 1.5 3 3 C2.34 3.66 1.68 4.32 1 5 C-1.625 4.625 -1.625 4.625 -4 4 C-2.49336217 7.01327566 0.03166411 7.61056618 3 9 C3.21917317 11.70313576 3.32851983 13.43958382 1.9375 15.8125 C-1.06297398 17.65150018 -3.56481613 17.30671285 -7 17 C-7.99 16.34 -8.98 15.68 -10 15 C-9.34 14.01 -8.68 13.02 -8 12 C-4.875 11.8125 -4.875 11.8125 -2 12 C-2.969375 11.62875 -3.93875 11.2575 -4.9375 10.875 C-8 9 -8 9 -9.0625 6 C-9 3 -9 3 -7.9375 1.125 C-5.14003001 -0.49933741 -3.17634515 -0.39704314 0 0 Z " fill="#353A3E" transform="translate(529,224)"/>
<path d="M0 0 C1.875 1.5 1.875 1.5 3 3 C2.34 3.66 1.68 4.32 1 5 C-1.625 4.625 -1.625 4.625 -4 4 C-2.49336217 7.01327566 0.03166411 7.61056618 3 9 C3.21917317 11.70313576 3.32851983 13.43958382 1.9375 15.8125 C-1.06297398 17.65150018 -3.56481613 17.30671285 -7 17 C-7.99 16.34 -8.98 15.68 -10 15 C-9.34 14.01 -8.68 13.02 -8 12 C-4.875 11.8125 -4.875 11.8125 -2 12 C-2.969375 11.62875 -3.93875 11.2575 -4.9375 10.875 C-8 9 -8 9 -9.0625 6 C-9 3 -9 3 -7.9375 1.125 C-5.14003001 -0.49933741 -3.17634515 -0.39704314 0 0 Z " fill="#353A3E" transform="translate(142,224)"/>
<path d="M0 0 C1.875 1.5 1.875 1.5 3 3 C2.34 3.66 1.68 4.32 1 5 C-1.625 4.625 -1.625 4.625 -4 4 C-2.49336217 7.01327566 0.03166411 7.61056618 3 9 C3.21917317 11.70313576 3.32851983 13.43958382 1.9375 15.8125 C-1.06297398 17.65150018 -3.56481613 17.30671285 -7 17 C-7.99 16.34 -8.98 15.68 -10 15 C-9.34 14.01 -8.68 13.02 -8 12 C-4.875 11.8125 -4.875 11.8125 -2 12 C-2.969375 11.62875 -3.93875 11.2575 -4.9375 10.875 C-8 9 -8 9 -9.0625 6 C-9 3 -9 3 -7.9375 1.125 C-5.14003001 -0.49933741 -3.17634515 -0.39704314 0 0 Z " fill="#353A3E" transform="translate(91,224)"/>
<path d="M0 0 C3.07235411 0.53432245 4.03615216 1.04820288 5.875 3.5 C5.545 4.16 5.215 4.82 4.875 5.5 C2.565 5.5 0.255 5.5 -2.125 5.5 C-2.125 8.14 -2.125 10.78 -2.125 13.5 C1.34 13.005 1.34 13.005 4.875 12.5 C4.875 13.82 4.875 15.14 4.875 16.5 C1.98638291 17.94430855 0.07852299 17.87688506 -3.125 17.5 C-6.76025215 14.89210172 -7.95897068 13.4297642 -8.75 9 C-7.79106712 3.62997586 -5.47365885 0.87578542 0 0 Z " fill="#353A3E" transform="translate(125.125,223.5)"/>
<path d="M0 0 C1.65 0 3.3 0 5 0 C5 7.92 5 15.84 5 24 C3.35 24 1.7 24 0 24 C0 16.08 0 8.16 0 0 Z " fill="#353A3E" transform="translate(495,217)"/>
<path d="M0 0 C1.65 0 3.3 0 5 0 C5 7.92 5 15.84 5 24 C3.35 24 1.7 24 0 24 C0 16.08 0 8.16 0 0 Z " fill="#353A3E" transform="translate(236,217)"/>
<path d="M0 0 C1.32 0 2.64 0 4 0 C4.33 0.66 4.66 1.32 5 2 C5.66 1.34 6.32 0.68 7 0 C8.32 0 9.64 0 11 0 C10.67 1.65 10.34 3.3 10 5 C8.68 5.33 7.36 5.66 6 6 C5.67 9.63 5.34 13.26 5 17 C3.35 17 1.7 17 0 17 C0 11.39 0 5.78 0 0 Z " fill="#353A3E" transform="translate(263,224)"/>
<path d="M0 0 C1.32 0 2.64 0 4 0 C4.33 0.66 4.66 1.32 5 2 C5.66 1.34 6.32 0.68 7 0 C8.32 0 9.64 0 11 0 C10.67 1.65 10.34 3.3 10 5 C8.68 5.33 7.36 5.66 6 6 C5.67 9.63 5.34 13.26 5 17 C3.35 17 1.7 17 0 17 C0 11.39 0 5.78 0 0 Z " fill="#2F639B" transform="translate(271,64)"/>
<path d="M0 0 C0.66 0 1.32 0 2 0 C2 4.62 2 9.24 2 14 C-0.31 14 -2.62 14 -5 14 C-7 12 -7 12 -7.25 9 C-7 6 -7 6 -5 4 C-3.68 4 -2.36 4 -1 4 C-0.67 2.68 -0.34 1.36 0 0 Z " fill="#0F0E0E" transform="translate(352,177)"/>
<path d="M0 0 C6.75 -0.125 6.75 -0.125 9 1 C9.125 4.375 9.125 4.375 9 8 C8.34 8.66 7.68 9.32 7 10 C5.68 10 4.36 10 3 10 C2.67 10.99 2.34 11.98 2 13 C1.34 13 0.68 13 0 13 C0 8.71 0 4.42 0 0 Z " fill="#0F0E0E" transform="translate(300,181)"/>
<path d="M0 0 C1.65 0 3.3 0 5 0 C5 5.61 5 11.22 5 17 C3.35 17 1.7 17 0 17 C0 11.39 0 5.78 0 0 Z " fill="#353A3E" transform="translate(534,224)"/>
<path d="M0 0 C1.65 0 3.3 0 5 0 C5 5.61 5 11.22 5 17 C3.35 17 1.7 17 0 17 C0 11.39 0 5.78 0 0 Z " fill="#353A3E" transform="translate(109,224)"/>
<path d="M0 0 C1.65 0 3.3 0 5 0 C5 5.61 5 11.22 5 17 C3.35 17 1.7 17 0 17 C0 11.39 0 5.78 0 0 Z " fill="#353A3E" transform="translate(74,224)"/>
<path d="M0 0 C1.65 0 3.3 0 5 0 C5 5.61 5 11.22 5 17 C3.35 17 1.7 17 0 17 C0 11.39 0 5.78 0 0 Z " fill="#2F639B" transform="translate(385,64)"/>
<path d="M0 0 C2.5 0.25 2.5 0.25 4.5 2.25 C4.75 5.25 4.75 5.25 4.5 8.25 C2.5 10.25 2.5 10.25 0 10.5 C-2.5 10.25 -2.5 10.25 -4.5 8.25 C-4.75 5.25 -4.75 5.25 -4.5 2.25 C-2.5 0.25 -2.5 0.25 0 0 Z " fill="#0F0E0E" transform="translate(405.5,180.75)"/>
<path d="M0 0 C2.5 0.25 2.5 0.25 4.5 2.25 C4.75 5.25 4.75 5.25 4.5 8.25 C2.5 10.25 2.5 10.25 0 10.5 C-2.5 10.25 -2.5 10.25 -4.5 8.25 C-4.75 5.25 -4.75 5.25 -4.5 2.25 C-2.5 0.25 -2.5 0.25 0 0 Z " fill="#0F0E0E" transform="translate(275.5,180.75)"/>
<path d="M0 0 C2.5 0.25 2.5 0.25 4.5 2.25 C4.75 5.25 4.75 5.25 4.5 8.25 C2.5 10.25 2.5 10.25 0 10.5 C-2.5 10.25 -2.5 10.25 -4.5 8.25 C-4.75 5.25 -4.75 5.25 -4.5 2.25 C-2.5 0.25 -2.5 0.25 0 0 Z " fill="#0F0E0E" transform="translate(266.5,21.75)"/>
<path d="M0 0 C1.32 0.33 2.64 0.66 4 1 C2.515 2.485 2.515 2.485 1 4 C1.78375 4.0825 2.5675 4.165 3.375 4.25 C6 5 6 5 7.3125 7.0625 C7.6528125 8.0215625 7.6528125 8.0215625 8 9 C8.99 7.35 9.98 5.7 11 4 C11.66 4.33 12.32 4.66 13 5 C11.02 8.96 9.04 12.92 7 17 C6.34 16.67 5.68 16.34 5 16 C5.20625 15.29875 5.4125 14.5975 5.625 13.875 C6.07850357 10.39813928 5.27540277 8.22601877 4 5 C3.01 5 2.02 5 1 5 C1 7.97 1 10.94 1 14 C0.34 14 -0.32 14 -1 14 C-1 11.03 -1 8.06 -1 5 C-1.66 4.67 -2.32 4.34 -3 4 C-2.34 4 -1.68 4 -1 4 C-0.67 2.68 -0.34 1.36 0 0 Z " fill="#0F0E0E" transform="translate(320,18)"/>
<path d="M0 0 C0.66 0 1.32 0 2 0 C2 0.99 2 1.98 2 3 C2.99 3.33 3.98 3.66 5 4 C4.01 4 3.02 4 2 4 C2.25561323 6.3431213 2.59270772 8.67843403 3 11 C3.66 11.33 4.32 11.66 5 12 C3.0625 12.5625 3.0625 12.5625 1 13 C0 12 0 12 -0.09765625 10.15234375 C-0.04882812 7.07617188 -0.04882812 7.07617188 0 4 C-1.98 4.66 -3.96 5.32 -6 6 C-6.33 8.31 -6.66 10.62 -7 13 C-7.66 13 -8.32 13 -9 13 C-9 9.7 -9 6.4 -9 3 C-6.03 3 -3.06 3 0 3 C0 2.01 0 1.02 0 0 Z " fill="#0F0E0E" transform="translate(305,19)"/>
<path d="M0 0 C4.55555556 0.55555556 4.55555556 0.55555556 6 2 C6.14115161 4.67058851 6.04247107 7.32432238 6 10 C3.69 10 1.38 10 -1 10 C-1.625 8.125 -1.625 8.125 -2 6 C-1.34 5.34 -0.68 4.68 0 4 C1.32 4 2.64 4 4 4 C3.67 3.34 3.34 2.68 3 2 C1.35 2 -0.3 2 -2 2 C-1.34 1.34 -0.68 0.68 0 0 Z " fill="#424141" transform="translate(132,181)"/>
<path d="M0 0 C4.55555556 0.55555556 4.55555556 0.55555556 6 2 C6.14115161 4.67058851 6.04247107 7.32432238 6 10 C3.69 10 1.38 10 -1 10 C-1.625 8.125 -1.625 8.125 -2 6 C-1.34 5.34 -0.68 4.68 0 4 C1.32 4 2.64 4 4 4 C3.67 3.34 3.34 2.68 3 2 C1.35 2 -0.3 2 -2 2 C-1.34 1.34 -0.68 0.68 0 0 Z " fill="#424141" transform="translate(359,22)"/>
<path d="M0 0 C1.2065625 0.0309375 1.2065625 0.0309375 2.4375 0.0625 C3.5625 5.6875 3.5625 5.6875 2.4375 9.0625 C0.77138095 9.105221 -0.89632885 9.10313832 -2.5625 9.0625 C-3.5625 8.0625 -3.5625 8.0625 -3.6875 4.5625 C-3.52762642 0.08603967 -3.52762642 0.08603967 0 0 Z " fill="#FFFFFF" transform="translate(313.5625,227.9375)"/>
<path d="M0 0 C1.2065625 0.0309375 1.2065625 0.0309375 2.4375 0.0625 C3.5625 5.6875 3.5625 5.6875 2.4375 9.0625 C0.77138095 9.105221 -0.89632885 9.10313832 -2.5625 9.0625 C-3.5625 8.0625 -3.5625 8.0625 -3.6875 4.5625 C-3.52762642 0.08603967 -3.52762642 0.08603967 0 0 Z " fill="#FFFFFF" transform="translate(252.5625,227.9375)"/>
<path d="M0 0 C0.78375 0.04125 1.5675 0.0825 2.375 0.125 C3.035 1.775 3.695 3.425 4.375 5.125 C2.065 5.125 -0.245 5.125 -2.625 5.125 C-2.625 6.115 -2.625 7.105 -2.625 8.125 C-0.315 8.125 1.995 8.125 4.375 8.125 C2.375 10.125 2.375 10.125 -0.125 10.375 C-2.625 10.125 -2.625 10.125 -4.625 8.125 C-4.875 5.125 -4.875 5.125 -4.625 2.125 C-2.625 0.125 -2.625 0.125 0 0 Z " fill="#727171" transform="translate(445.625,180.875)"/>
<path d="M0 0 C0.78375 0.04125 1.5675 0.0825 2.375 0.125 C3.035 1.775 3.695 3.425 4.375 5.125 C2.065 5.125 -0.245 5.125 -2.625 5.125 C-2.625 6.115 -2.625 7.105 -2.625 8.125 C-0.315 8.125 1.995 8.125 4.375 8.125 C2.375 10.125 2.375 10.125 -0.125 10.375 C-2.625 10.125 -2.625 10.125 -4.625 8.125 C-4.875 5.125 -4.875 5.125 -4.625 2.125 C-2.625 0.125 -2.625 0.125 0 0 Z " fill="#727171" transform="translate(383.625,180.875)"/>
<path d="M0 0 C0.78375 0.04125 1.5675 0.0825 2.375 0.125 C3.035 1.775 3.695 3.425 4.375 5.125 C2.065 5.125 -0.245 5.125 -2.625 5.125 C-2.625 6.115 -2.625 7.105 -2.625 8.125 C-0.315 8.125 1.995 8.125 4.375 8.125 C2.375 10.125 2.375 10.125 -0.125 10.375 C-2.625 10.125 -2.625 10.125 -4.625 8.125 C-4.875 5.125 -4.875 5.125 -4.625 2.125 C-2.625 0.125 -2.625 0.125 0 0 Z " fill="#727171" transform="translate(339.625,180.875)"/>
<path d="M0 0 C0.78375 0.04125 1.5675 0.0825 2.375 0.125 C3.035 1.775 3.695 3.425 4.375 5.125 C2.065 5.125 -0.245 5.125 -2.625 5.125 C-2.625 6.115 -2.625 7.105 -2.625 8.125 C-0.315 8.125 1.995 8.125 4.375 8.125 C2.375 10.125 2.375 10.125 -0.125 10.375 C-2.625 10.125 -2.625 10.125 -4.625 8.125 C-4.875 5.125 -4.875 5.125 -4.625 2.125 C-2.625 0.125 -2.625 0.125 0 0 Z " fill="#727171" transform="translate(321.625,180.875)"/>
<path d="M0 0 C0.78375 0.04125 1.5675 0.0825 2.375 0.125 C3.035 1.775 3.695 3.425 4.375 5.125 C2.065 5.125 -0.245 5.125 -2.625 5.125 C-2.625 6.115 -2.625 7.105 -2.625 8.125 C-0.315 8.125 1.995 8.125 4.375 8.125 C2.375 10.125 2.375 10.125 -0.125 10.375 C-2.625 10.125 -2.625 10.125 -4.625 8.125 C-4.875 5.125 -4.875 5.125 -4.625 2.125 C-2.625 0.125 -2.625 0.125 0 0 Z " fill="#727171" transform="translate(195.625,180.875)"/>
<path d="M0 0 C0.78375 0.04125 1.5675 0.0825 2.375 0.125 C3.035 1.775 3.695 3.425 4.375 5.125 C2.065 5.125 -0.245 5.125 -2.625 5.125 C-2.625 6.115 -2.625 7.105 -2.625 8.125 C-0.315 8.125 1.995 8.125 4.375 8.125 C2.375 10.125 2.375 10.125 -0.125 10.375 C-2.625 10.125 -2.625 10.125 -4.625 8.125 C-4.875 5.125 -4.875 5.125 -4.625 2.125 C-2.625 0.125 -2.625 0.125 0 0 Z " fill="#727171" transform="translate(290.625,21.875)"/>
<path d="M0 0 C1.99954746 -0.04254356 4.00041636 -0.04080783 6 0 C7 1 7 1 7.125 4 C7 7 7 7 6 8 C4.00041636 8.04080783 1.99954746 8.04254356 0 8 C0 5.36 0 2.72 0 0 Z " fill="#FFFFFF" transform="translate(342,61)"/>
<path d="M0 0 C1.65 0 3.3 0 5 0 C5.625 2.8125 5.625 2.8125 6 6 C5.01 7.485 5.01 7.485 4 9 C2.68 9 1.36 9 0 9 C0 6.03 0 3.06 0 0 Z " fill="#FFFFFF" transform="translate(222,228)"/>
<path d="M0 0 C1.32 0 2.64 0 4 0 C4.625 2.8125 4.625 2.8125 5 6 C4.01 7.485 4.01 7.485 3 9 C1.68 9 0.36 9 -1 9 C-1.09765625 2.84765625 -1.09765625 2.84765625 -1 1 C-0.67 0.67 -0.34 0.34 0 0 Z " fill="#FFFFFF" transform="translate(259,68)"/>
<path d="M0 0 C1.32 0 2.64 0 4 0 C4.625 2.8125 4.625 2.8125 5 6 C4.01 7.485 4.01 7.485 3 9 C1.68 9 0.36 9 -1 9 C-1.09765625 2.84765625 -1.09765625 2.84765625 -1 1 C-0.67 0.67 -0.34 0.34 0 0 Z " fill="#FFFFFF" transform="translate(224,68)"/>
<path d="M0 0 C0.66 0 1.32 0 2 0 C2.33 2.64 2.66 5.28 3 8 C4.32 8 5.64 8 7 8 C7 5.36 7 2.72 7 0 C7.66 0 8.32 0 9 0 C9 3.3 9 6.6 9 10 C5.625 10.125 5.625 10.125 2 10 C0 8 0 8 -0.1953125 6.0546875 C-0.13020833 4.03645833 -0.06510417 2.01822917 0 0 Z " fill="#0F0E0E" transform="translate(413,181)"/>
<path d="M0 0 C2.31 0 4.62 0 7 0 C8.60725635 3.21451269 8.05748185 6.43612536 8 10 C7.34 10 6.68 10 6 10 C5.67 7.36 5.34 4.72 5 2 C4.01 2 3.02 2 2 2 C2 4.64 2 7.28 2 10 C1.34 10 0.68 10 0 10 C0 6.7 0 3.4 0 0 Z " fill="#0F0E0E" transform="translate(283,181)"/>
<path d="M0 0 C0.66 0 1.32 0 2 0 C2.33 2.64 2.66 5.28 3 8 C4.32 8 5.64 8 7 8 C7 5.36 7 2.72 7 0 C7.66 0 8.32 0 9 0 C9 3.3 9 6.6 9 10 C5.625 10.125 5.625 10.125 2 10 C0 8 0 8 -0.1953125 6.0546875 C-0.13020833 4.03645833 -0.06510417 2.01822917 0 0 Z " fill="#0F0E0E" transform="translate(226,181)"/>
<path d="M0 0 C0.66 0 1.32 0 2 0 C2.33 2.64 2.66 5.28 3 8 C4.32 8 5.64 8 7 8 C7 5.36 7 2.72 7 0 C7.66 0 8.32 0 9 0 C9 3.3 9 6.6 9 10 C5.625 10.125 5.625 10.125 2 10 C0 8 0 8 -0.1953125 6.0546875 C-0.13020833 4.03645833 -0.06510417 2.01822917 0 0 Z " fill="#0F0E0E" transform="translate(162,181)"/>
<path d="M0 0 C0.99 0.33 1.98 0.66 3 1 C3.8125 2.875 3.8125 2.875 4 5 C3.01 6.485 3.01 6.485 2 8 C0.68 7.67 -0.64 7.34 -2 7 C-2 5.02 -2 3.04 -2 1 C-1.34 0.67 -0.68 0.34 0 0 Z " fill="#FFFFFF" transform="translate(405,182)"/>
<path d="M0 0 C0.99 0.33 1.98 0.66 3 1 C3.8125 2.875 3.8125 2.875 4 5 C3.01 6.485 3.01 6.485 2 8 C0.68 7.67 -0.64 7.34 -2 7 C-2 5.02 -2 3.04 -2 1 C-1.34 0.67 -0.68 0.34 0 0 Z " fill="#FFFFFF" transform="translate(275,182)"/>
<path d="M0 0 C1.32 0.33 2.64 0.66 4 1 C2.515 2.485 2.515 2.485 1 4 C1.99 4.33 2.98 4.66 4 5 C3.01 5 2.02 5 1 5 C1 7.97 1 10.94 1 14 C0.34 14 -0.32 14 -1 14 C-1 11.03 -1 8.06 -1 5 C-1.66 4.67 -2.32 4.34 -3 4 C-2.34 4 -1.68 4 -1 4 C-0.67 2.68 -0.34 1.36 0 0 Z " fill="#0F0E0E" transform="translate(221,177)"/>
<path d="M0 0 C0.99 0.33 1.98 0.66 3 1 C3.8125 2.875 3.8125 2.875 4 5 C3.01 6.485 3.01 6.485 2 8 C0.68 7.67 -0.64 7.34 -2 7 C-2 5.02 -2 3.04 -2 1 C-1.34 0.67 -0.68 0.34 0 0 Z " fill="#FFFFFF" transform="translate(266,23)"/>
<path d="M0 0 C0.99 0.33 1.98 0.66 3 1 C3.8125 2.875 3.8125 2.875 4 5 C3.01 6.485 3.01 6.485 2 8 C0.68 7.67 -0.64 7.34 -2 7 C-2.125 4.625 -2.125 4.625 -2 2 C-1.34 1.34 -0.68 0.68 0 0 Z " fill="#FFFFFF" transform="translate(304,182)"/>
<path d="M0 0 C0.66 0 1.32 0 2 0 C2 0.99 2 1.98 2 3 C2.99 3.33 3.98 3.66 5 4 C4.01 4 3.02 4 2 4 C2.25561323 6.3431213 2.59270772 8.67843403 3 11 C3.66 11.33 4.32 11.66 5 12 C3.0625 12.5625 3.0625 12.5625 1 13 C0 12 0 12 -0.09765625 10.15234375 C-0.06510417 8.1015625 -0.03255208 6.05078125 0 4 C-0.66 3.67 -1.32 3.34 -2 3 C-1.34 3 -0.68 3 0 3 C0 2.01 0 1.02 0 0 Z " fill="#0F0E0E" transform="translate(361,178)"/>
<path d="M0 0 C0.66 0 1.32 0 2 0 C2 0.99 2 1.98 2 3 C2.99 3.33 3.98 3.66 5 4 C4.01 4 3.02 4 2 4 C2.25561323 6.3431213 2.59270772 8.67843403 3 11 C3.66 11.33 4.32 11.66 5 12 C3.0625 12.5625 3.0625 12.5625 1 13 C0 12 0 12 -0.09765625 10.15234375 C-0.06510417 8.1015625 -0.03255208 6.05078125 0 4 C-0.66 3.67 -1.32 3.34 -2 3 C-1.34 3 -0.68 3 0 3 C0 2.01 0 1.02 0 0 Z " fill="#0F0E0E" transform="translate(328,178)"/>
<path d="M0 0 C0.66 0 1.32 0 2 0 C2 0.99 2 1.98 2 3 C2.99 3.33 3.98 3.66 5 4 C4.01 4 3.02 4 2 4 C2.25561323 6.3431213 2.59270772 8.67843403 3 11 C3.66 11.33 4.32 11.66 5 12 C3.0625 12.5625 3.0625 12.5625 1 13 C0 12 0 12 -0.09765625 10.15234375 C-0.06510417 8.1015625 -0.03255208 6.05078125 0 4 C-0.66 3.67 -1.32 3.34 -2 3 C-1.34 3 -0.68 3 0 3 C0 2.01 0 1.02 0 0 Z " fill="#0F0E0E" transform="translate(368,19)"/>
<path d="M0 0 C0.66 0 1.32 0 2 0 C2 0.99 2 1.98 2 3 C2.99 3.33 3.98 3.66 5 4 C4.01 4 3.02 4 2 4 C2.25561323 6.3431213 2.59270772 8.67843403 3 11 C3.66 11.33 4.32 11.66 5 12 C3.0625 12.5625 3.0625 12.5625 1 13 C0 12 0 12 -0.09765625 10.15234375 C-0.06510417 8.1015625 -0.03255208 6.05078125 0 4 C-0.66 3.67 -1.32 3.34 -2 3 C-1.34 3 -0.68 3 0 3 C0 2.01 0 1.02 0 0 Z " fill="#0F0E0E" transform="translate(339,19)"/>
<path d="M0 0 C0.66 0 1.32 0 2 0 C2 0.99 2 1.98 2 3 C2.99 3.33 3.98 3.66 5 4 C4.01 4 3.02 4 2 4 C2.25561323 6.3431213 2.59270772 8.67843403 3 11 C3.66 11.33 4.32 11.66 5 12 C3.0625 12.5625 3.0625 12.5625 1 13 C0 12 0 12 -0.09765625 10.15234375 C-0.06510417 8.1015625 -0.03255208 6.05078125 0 4 C-0.66 3.67 -1.32 3.34 -2 3 C-1.34 3 -0.68 3 0 3 C0 2.01 0 1.02 0 0 Z " fill="#0F0E0E" transform="translate(255,19)"/>
<path d="M0 0 C2 1 2 1 2.6328125 2.84765625 C2.79523438 3.57855469 2.95765625 4.30945313 3.125 5.0625 C3.29257812 5.79597656 3.46015625 6.52945313 3.6328125 7.28515625 C3.75398438 7.85105469 3.87515625 8.41695312 4 9 C2.02 9 0.04 9 -2 9 C-1.34 6.03 -0.68 3.06 0 0 Z " fill="#FFFFFF" transform="translate(445,223)"/>
<path d="M0 0 C0.99 0.33 1.98 0.66 3 1 C3 2.98 3 4.96 3 7 C1.0625 7.5625 1.0625 7.5625 -1 8 C-2 7 -2 7 -2.0625 3.9375 C-2.041875 2.968125 -2.02125 1.99875 -2 1 C-1.34 0.67 -0.68 0.34 0 0 Z " fill="#FFFFFF" transform="translate(349,182)"/>
<path d="M0 0 C1.65 0 3.3 0 5 0 C5.33 0.66 5.66 1.32 6 2 C4.68 2 3.36 2 2 2 C1.67 2.66 1.34 3.32 1 4 C3.475 4.99 3.475 4.99 6 6 C5.34 7.32 4.68 8.64 4 10 C2.35 9.67 0.7 9.34 -1 9 C-0.360625 8.87625 0.27875 8.7525 0.9375 8.625 C1.618125 8.41875 2.29875 8.2125 3 8 C3.33 7.34 3.66 6.68 4 6 C1.525 5.01 1.525 5.01 -1 4 C-0.67 2.68 -0.34 1.36 0 0 Z " fill="#0F0E0E" transform="translate(433,181)"/>
<path d="M0 0 C1.65 0 3.3 0 5 0 C5.33 0.66 5.66 1.32 6 2 C4.68 2 3.36 2 2 2 C1.67 2.66 1.34 3.32 1 4 C3.475 4.99 3.475 4.99 6 6 C5.34 7.32 4.68 8.64 4 10 C2.35 9.67 0.7 9.34 -1 9 C-0.360625 8.87625 0.27875 8.7525 0.9375 8.625 C1.618125 8.41875 2.29875 8.2125 3 8 C3.33 7.34 3.66 6.68 4 6 C1.525 5.01 1.525 5.01 -1 4 C-0.67 2.68 -0.34 1.36 0 0 Z " fill="#0F0E0E" transform="translate(211,181)"/>
<path d="M0 0 C1.65 0 3.3 0 5 0 C5.33 0.66 5.66 1.32 6 2 C4.68 2 3.36 2 2 2 C1.67 2.66 1.34 3.32 1 4 C3.475 4.99 3.475 4.99 6 6 C5.34 7.32 4.68 8.64 4 10 C2.35 9.67 0.7 9.34 -1 9 C-0.360625 8.87625 0.27875 8.7525 0.9375 8.625 C1.618125 8.41875 2.29875 8.2125 3 8 C3.33 7.34 3.66 6.68 4 6 C1.525 5.01 1.525 5.01 -1 4 C-0.67 2.68 -0.34 1.36 0 0 Z " fill="#0F0E0E" transform="translate(202,181)"/>
<path d="M0 0 C1.65 0 3.3 0 5 0 C5.33 0.66 5.66 1.32 6 2 C4.68 2 3.36 2 2 2 C1.67 2.66 1.34 3.32 1 4 C3.475 4.99 3.475 4.99 6 6 C5.34 7.32 4.68 8.64 4 10 C2.35 9.67 0.7 9.34 -1 9 C-0.360625 8.87625 0.27875 8.7525 0.9375 8.625 C1.618125 8.41875 2.29875 8.2125 3 8 C3.33 7.34 3.66 6.68 4 6 C1.525 5.01 1.525 5.01 -1 4 C-0.67 2.68 -0.34 1.36 0 0 Z " fill="#0F0E0E" transform="translate(153,181)"/>
<path d="M0 0 C1.65 0 3.3 0 5 0 C5.33 0.66 5.66 1.32 6 2 C4.68 2 3.36 2 2 2 C1.67 2.66 1.34 3.32 1 4 C3.475 4.99 3.475 4.99 6 6 C5.34 7.32 4.68 8.64 4 10 C2.35 9.67 0.7 9.34 -1 9 C-0.360625 8.87625 0.27875 8.7525 0.9375 8.625 C1.618125 8.41875 2.29875 8.2125 3 8 C3.33 7.34 3.66 6.68 4 6 C1.525 5.01 1.525 5.01 -1 4 C-0.67 2.68 -0.34 1.36 0 0 Z " fill="#0F0E0E" transform="translate(141,181)"/>
<path d="M0 0 C1.65 0 3.3 0 5 0 C5.33 0.66 5.66 1.32 6 2 C4.68 2 3.36 2 2 2 C1.67 2.66 1.34 3.32 1 4 C3.475 4.99 3.475 4.99 6 6 C5.34 7.32 4.68 8.64 4 10 C2.35 9.67 0.7 9.34 -1 9 C-0.360625 8.87625 0.27875 8.7525 0.9375 8.625 C1.618125 8.41875 2.29875 8.2125 3 8 C3.33 7.34 3.66 6.68 4 6 C1.525 5.01 1.525 5.01 -1 4 C-0.67 2.68 -0.34 1.36 0 0 Z " fill="#0F0E0E" transform="translate(243,22)"/>
<path d="M0 0 C1.65 0 3.3 0 5 0 C5.33 0.66 5.66 1.32 6 2 C4.68 2 3.36 2 2 2 C1.67 2.66 1.34 3.32 1 4 C3.475 4.99 3.475 4.99 6 6 C5.34 7.32 4.68 8.64 4 10 C2.35 9.67 0.7 9.34 -1 9 C-0.360625 8.87625 0.27875 8.7525 0.9375 8.625 C1.618125 8.41875 2.29875 8.2125 3 8 C3.33 7.34 3.66 6.68 4 6 C1.525 5.01 1.525 5.01 -1 4 C-0.67 2.68 -0.34 1.36 0 0 Z " fill="#0F0E0E" transform="translate(225,22)"/>
<path d="M0 0 C0.66 0 1.32 0 2 0 C2 1.65 2 3.3 2 5 C2.66 5.33 3.32 5.66 4 6 C3.34 6 2.68 6 2 6 C2 8.64 2 11.28 2 14 C1.34 14 0.68 14 0 14 C0 9.38 0 4.76 0 0 Z " fill="#0F0E0E" transform="translate(367,177)"/>
<path d="M0 0 C0.66 0 1.32 0 2 0 C2 1.65 2 3.3 2 5 C2.66 5.33 3.32 5.66 4 6 C3.34 6 2.68 6 2 6 C2 8.64 2 11.28 2 14 C1.34 14 0.68 14 0 14 C0 9.38 0 4.76 0 0 Z " fill="#0F0E0E" transform="translate(119,177)"/>
<path d="M0 0 C0.66 0 1.32 0 2 0 C2 1.65 2 3.3 2 5 C2.66 5.33 3.32 5.66 4 6 C3.34 6 2.68 6 2 6 C2 8.64 2 11.28 2 14 C1.34 14 0.68 14 0 14 C0 9.38 0 4.76 0 0 Z " fill="#0F0E0E" transform="translate(346,18)"/>
<path d="M0 0 C0.66 0 1.32 0 2 0 C2 1.65 2 3.3 2 5 C2.66 5.33 3.32 5.66 4 6 C3.34 6 2.68 6 2 6 C2 8.64 2 11.28 2 14 C1.34 14 0.68 14 0 14 C0 9.38 0 4.76 0 0 Z " fill="#0F0E0E" transform="translate(207,18)"/>
<path d="M0 0 C2.0625 0.4375 2.0625 0.4375 4 1 C4 2.32 4 3.64 4 5 C2.68 5.33 1.36 5.66 0 6 C-0.38218767 4.34385343 -0.71395102 2.67542976 -1 1 C-0.67 0.67 -0.34 0.34 0 0 Z " fill="#353A3E" transform="translate(535,217)"/>
<path d="M0 0 C2.0625 0.4375 2.0625 0.4375 4 1 C4 2.32 4 3.64 4 5 C2.68 5.33 1.36 5.66 0 6 C-0.38218767 4.34385343 -0.71395102 2.67542976 -1 1 C-0.67 0.67 -0.34 0.34 0 0 Z " fill="#353A3E" transform="translate(110,217)"/>
<path d="M0 0 C2.0625 0.4375 2.0625 0.4375 4 1 C4 2.32 4 3.64 4 5 C2.68 5.33 1.36 5.66 0 6 C-0.38218767 4.34385343 -0.71395102 2.67542976 -1 1 C-0.67 0.67 -0.34 0.34 0 0 Z " fill="#353A3E" transform="translate(75,217)"/>
<path d="M0 0 C2.0625 0.4375 2.0625 0.4375 4 1 C4 2.32 4 3.64 4 5 C2.68 5.33 1.36 5.66 0 6 C-0.38218767 4.34385343 -0.71395102 2.67542976 -1 1 C-0.67 0.67 -0.34 0.34 0 0 Z " fill="#2F639B" transform="translate(386,57)"/>
<path d="M0 0 C2.31 0 4.62 0 7 0 C6.360625 0.350625 5.72125 0.70125 5.0625 1.0625 C2.17836168 3.77184206 2.2899178 6.15858911 2 10 C1.34 10 0.68 10 0 10 C0 6.7 0 3.4 0 0 Z " fill="#0F0E0E" transform="translate(424,181)"/>
<path d="M0 0 C0.33 0.66 0.66 1.32 1 2 C3.02463255 2.65213292 3.02463255 2.65213292 5 3 C3.68 3 2.36 3 1 3 C1 3.99 1 4.98 1 6 C3.31 6 5.62 6 8 6 C6 8 6 8 3.5 8.25 C1 8 1 8 -1 6 C-1.1875 3.4375 -1.1875 3.4375 -1 1 C-0.67 0.67 -0.34 0.34 0 0 Z " fill="#0F0E0E" transform="translate(442,183)"/>
<path d="M0 0 C0.33 0.66 0.66 1.32 1 2 C3.02463255 2.65213292 3.02463255 2.65213292 5 3 C3.68 3 2.36 3 1 3 C1 3.99 1 4.98 1 6 C3.31 6 5.62 6 8 6 C6 8 6 8 3.5 8.25 C1 8 1 8 -1 6 C-1.1875 3.4375 -1.1875 3.4375 -1 1 C-0.67 0.67 -0.34 0.34 0 0 Z " fill="#0F0E0E" transform="translate(380,183)"/>
<path d="M0 0 C0.33 0.66 0.66 1.32 1 2 C3.02463255 2.65213292 3.02463255 2.65213292 5 3 C3.68 3 2.36 3 1 3 C1 3.99 1 4.98 1 6 C3.31 6 5.62 6 8 6 C6 8 6 8 3.5 8.25 C1 8 1 8 -1 6 C-1.1875 3.4375 -1.1875 3.4375 -1 1 C-0.67 0.67 -0.34 0.34 0 0 Z " fill="#0F0E0E" transform="translate(336,183)"/>
<path d="M0 0 C0.33 0.66 0.66 1.32 1 2 C3.02463255 2.65213292 3.02463255 2.65213292 5 3 C3.68 3 2.36 3 1 3 C1 3.99 1 4.98 1 6 C3.31 6 5.62 6 8 6 C6 8 6 8 3.5 8.25 C1 8 1 8 -1 6 C-1.1875 3.4375 -1.1875 3.4375 -1 1 C-0.67 0.67 -0.34 0.34 0 0 Z " fill="#0F0E0E" transform="translate(318,183)"/>
<path d="M0 0 C0.33 0.66 0.66 1.32 1 2 C3.02463255 2.65213292 3.02463255 2.65213292 5 3 C3.68 3 2.36 3 1 3 C1 3.99 1 4.98 1 6 C3.31 6 5.62 6 8 6 C6 8 6 8 3.5 8.25 C1 8 1 8 -1 6 C-1.1875 3.4375 -1.1875 3.4375 -1 1 C-0.67 0.67 -0.34 0.34 0 0 Z " fill="#0F0E0E" transform="translate(192,183)"/>
<path d="M0 0 C0.33 0.66 0.66 1.32 1 2 C3.02463255 2.65213292 3.02463255 2.65213292 5 3 C3.68 3 2.36 3 1 3 C1 3.99 1 4.98 1 6 C3.31 6 5.62 6 8 6 C6 8 6 8 3.5 8.25 C1 8 1 8 -1 6 C-1.1875 3.4375 -1.1875 3.4375 -1 1 C-0.67 0.67 -0.34 0.34 0 0 Z " fill="#0F0E0E" transform="translate(287,24)"/>
<path d="M0 0 C1.67542976 0.28604898 3.34385343 0.61781233 5 1 C5 3.97 5 6.94 5 10 C4.34 10 3.68 10 3 10 C2.67 7.36 2.34 4.72 2 2 C1.01 1.67 0.02 1.34 -1 1 C-0.67 0.67 -0.34 0.34 0 0 Z " fill="#0F0E0E" transform="translate(292,181)"/>
<path d="M0 0 C1.7074998 1.28062485 3.37373596 2.61767557 5 4 C5 4.66 5 5.32 5 6 C3.35 6 1.7 6 0 6 C-0.38218767 4.34385343 -0.71395102 2.67542976 -1 1 C-0.67 0.67 -0.34 0.34 0 0 Z " fill="#FFFFFF" transform="translate(158,231)"/>
</svg>
